<?xml version="1.0" encoding="utf-8"?>
<!-- Generator: Adobe Illustrator 24.2.3, SVG Export Plug-In . SVG Version: 6.00 Build 0)  -->
<svg version="1.1" xmlns="http://www.w3.org/2000/svg" xmlns:xlink="http://www.w3.org/1999/xlink" x="0px" y="0px"
	 viewBox="0 0 1280.2 477.22" style="enable-background:new 0 0 1280.2 477.22;" xml:space="preserve">
<style type="text/css">
	.st0{opacity:0.2;}
	.st1{clip-path:url(#SVGID_2_);fill:none;stroke:#A19FA0;stroke-miterlimit:10;}
	.st2{fill:#FFFFFF;}
	.st3{fill:none;}
	.st4{fill:#003354;}
	.st5{fill:#FFFFFF;stroke:#003354;stroke-width:0.75;stroke-miterlimit:10;}
	.st6{fill:#6BCABA;}
	.st7{fill:#FFFFFF;stroke:#003354;stroke-width:0.5;stroke-miterlimit:10;}
	.st8{fill:#FFF4FF;}
	.st9{clip-path:url(#SVGID_4_);}
	.st10{fill:#DBDBDB;}
	.st11{opacity:0.6;}
	.st12{fill:none;stroke:#FFFFFF;stroke-width:0.75;stroke-linecap:round;stroke-linejoin:round;stroke-miterlimit:10;}
	.st13{fill:none;stroke:#FFFFFF;stroke-width:0.5;stroke-miterlimit:10;}
	.st14{fill:none;stroke:#FFFFFF;stroke-width:0.75;stroke-miterlimit:10;}
	.st15{fill:none;stroke:#FFFFFF;stroke-linecap:round;stroke-linejoin:round;stroke-miterlimit:10;}
	.st16{clip-path:url(#SVGID_8_);fill:#FFFFFF;}
	.st17{opacity:0.9;clip-path:url(#SVGID_8_);}
	.st18{clip-path:url(#SVGID_12_);}
	.st19{fill:none;stroke:#FFFFFF;stroke-width:3;stroke-miterlimit:10;}
	.st20{fill:none;stroke:#6BCABA;stroke-width:3;stroke-miterlimit:10;}
	.st21{opacity:0.03;clip-path:url(#SVGID_14_);}
	.st22{clip-path:url(#SVGID_16_);}
	.st23{fill:#EAEAEA;stroke:#D6D6D6;stroke-miterlimit:10;}
	.st24{clip-path:url(#SVGID_18_);}
	.st25{clip-path:url(#SVGID_22_);fill:#FFFFFF;}
	.st26{opacity:0.9;clip-path:url(#SVGID_22_);}
	.st27{clip-path:url(#SVGID_26_);}
	.st28{opacity:0.03;clip-path:url(#SVGID_28_);}
	.st29{clip-path:url(#SVGID_30_);}
	.st30{opacity:0.03;clip-path:url(#SVGID_32_);}
	.st31{clip-path:url(#SVGID_34_);}
	.st32{fill:#DDDDDD;}
	.st33{clip-path:url(#SVGID_36_);}
	.st34{clip-path:url(#SVGID_40_);fill:#FFFFFF;}
	.st35{opacity:0.9;clip-path:url(#SVGID_40_);}
	.st36{clip-path:url(#SVGID_44_);}
	.st37{opacity:0.03;clip-path:url(#SVGID_46_);}
	.st38{clip-path:url(#SVGID_48_);}
	.st39{opacity:0.03;clip-path:url(#SVGID_50_);}
	.st40{clip-path:url(#SVGID_52_);}
	.st41{opacity:0.7;fill:none;stroke:#003354;stroke-width:0.75;stroke-miterlimit:10;}
	.st42{clip-path:url(#SVGID_54_);}
	.st43{clip-path:url(#SVGID_58_);fill:#FFFFFF;}
	.st44{opacity:0.9;clip-path:url(#SVGID_58_);}
	.st45{clip-path:url(#SVGID_62_);}
	.st46{opacity:0.6;fill:#DDDDDD;}
	.st47{fill:#003354;stroke:#003354;stroke-miterlimit:10;}
	.st48{fill:#FFFFFF;stroke:#003354;stroke-miterlimit:10;}
	.st49{fill:#EAEAEA;}
	.st50{fill:#FEF1C8;}
	.st51{fill:none;stroke:#6BCABA;stroke-miterlimit:10;}
	.st52{clip-path:url(#SVGID_64_);}
	.st53{clip-path:url(#SVGID_68_);fill:#FFFFFF;}
	.st54{opacity:0.9;clip-path:url(#SVGID_68_);}
	.st55{clip-path:url(#SVGID_72_);}
	.st56{clip-path:url(#SVGID_74_);fill:none;stroke:#A19FA0;stroke-miterlimit:10;}
	.st57{clip-path:url(#SVGID_76_);fill:none;stroke:#A19FA0;stroke-miterlimit:10;}
	.st58{clip-path:url(#SVGID_78_);}
	.st59{fill:#00557A;}
	.st60{fill:none;stroke:#003354;stroke-width:0.75;stroke-miterlimit:10;}
	.st61{fill:#FBFDFC;}
	.st62{clip-path:url(#SVGID_82_);fill:#FFFFFF;}
	.st63{opacity:0.9;clip-path:url(#SVGID_82_);}
	.st64{clip-path:url(#SVGID_86_);}
	.st65{clip-path:url(#SVGID_88_);}
	.st66{clip-path:url(#SVGID_90_);fill:none;stroke:#A19FA0;stroke-miterlimit:10;}
	.st67{fill:#EAEAEA;stroke:#003354;stroke-miterlimit:10;}
	.st68{fill:#FFFFFF;stroke:#EAEAEA;stroke-miterlimit:10;}
	.st69{clip-path:url(#SVGID_94_);fill:#FFFFFF;}
	.st70{opacity:0.9;clip-path:url(#SVGID_94_);}
	.st71{clip-path:url(#SVGID_98_);}
	.st72{clip-path:url(#SVGID_100_);fill:none;stroke:#A19FA0;stroke-miterlimit:10;}
	.st73{clip-path:url(#SVGID_102_);fill:none;stroke:#A19FA0;stroke-miterlimit:10;}
	.st74{clip-path:url(#SVGID_104_);fill:none;stroke:#A19FA0;stroke-miterlimit:10;}
	.st75{clip-path:url(#SVGID_106_);}
	.st76{fill:#FFFFFF;stroke:#003354;stroke-width:1.6901;stroke-miterlimit:10;}
	.st77{fill:none;stroke:#003354;stroke-miterlimit:10;}
	.st78{fill:#EAEAEA;stroke:#003354;stroke-width:0.5;stroke-miterlimit:10;}
	.st79{clip-path:url(#SVGID_110_);fill:#FFFFFF;}
	.st80{opacity:0.9;clip-path:url(#SVGID_110_);}
	.st81{clip-path:url(#SVGID_114_);}
	.st82{opacity:0.03;clip-path:url(#SVGID_116_);}
	.st83{clip-path:url(#SVGID_118_);}
	.st84{fill:#71C2B5;}
	.st85{fill:#898989;}
	.st86{fill:#123452;}
	.st87{fill:#71C1B4;}
	.st88{clip-path:url(#SVGID_120_);}
	.st89{clip-path:url(#SVGID_124_);fill:#FFFFFF;}
	.st90{opacity:0.9;clip-path:url(#SVGID_124_);}
	.st91{clip-path:url(#SVGID_128_);}
	.st92{opacity:0.03;clip-path:url(#SVGID_130_);}
	.st93{clip-path:url(#SVGID_132_);}
	.st94{clip-path:url(#SVGID_134_);}
	.st95{fill:none;stroke:#71C2B5;stroke-miterlimit:10;}
	.st96{clip-path:url(#SVGID_138_);fill:#FFFFFF;}
	.st97{opacity:0.9;clip-path:url(#SVGID_138_);}
	.st98{clip-path:url(#SVGID_142_);}
	.st99{opacity:0.03;clip-path:url(#SVGID_144_);}
	.st100{clip-path:url(#SVGID_146_);}
	.st101{clip-path:url(#SVGID_148_);fill:none;stroke:#A19FA0;stroke-miterlimit:10;}
	.st102{clip-path:url(#SVGID_150_);fill:none;stroke:#A19FA0;stroke-miterlimit:10;}
	.st103{opacity:0.03;clip-path:url(#SVGID_152_);}
	.st104{clip-path:url(#SVGID_154_);}
	.st105{clip-path:url(#SVGID_156_);}
	.st106{fill:none;stroke:#6BCABA;stroke-width:2;stroke-miterlimit:10;}
	.st107{clip-path:url(#SVGID_158_);fill:none;stroke:#A19FA0;stroke-miterlimit:10;}
	.st108{clip-path:url(#SVGID_160_);}
	.st109{clip-path:url(#SVGID_162_);}
	.st110{clip-path:url(#SVGID_164_);}
	.st111{clip-path:url(#SVGID_166_);}
	.st112{clip-path:url(#SVGID_168_);}
	.st113{clip-path:url(#SVGID_170_);}
	.st114{clip-path:url(#SVGID_172_);}
	.st115{clip-path:url(#SVGID_174_);}
	.st116{clip-path:url(#SVGID_176_);}
	.st117{clip-path:url(#SVGID_178_);}
	.st118{clip-path:url(#SVGID_180_);}
	.st119{clip-path:url(#SVGID_182_);}
	.st120{opacity:0.92;fill:#6BCABA;}
	.st121{fill:none;stroke:#FFFFFF;stroke-width:1.9746;stroke-miterlimit:10;}
	.st122{opacity:0.9;fill:#6BCABA;}
	.st123{clip-path:url(#SVGID_186_);fill:#FFFFFF;}
	.st124{opacity:0.9;clip-path:url(#SVGID_186_);}
	.st125{clip-path:url(#SVGID_190_);}
	.st126{opacity:0.5;}
	.st127{fill:#606060;}
	.st128{clip-path:url(#SVGID_192_);}
	.st129{clip-path:url(#SVGID_196_);fill:#FFFFFF;}
	.st130{opacity:0.9;clip-path:url(#SVGID_196_);}
	.st131{clip-path:url(#SVGID_200_);}
	.st132{opacity:0;clip-path:url(#SVGID_202_);fill:#FFFFFF;}
	.st133{clip-path:url(#SVGID_202_);}
	.st134{clip-path:url(#SVGID_206_);fill:none;stroke:#A19FA0;stroke-width:0.9937;stroke-miterlimit:10;}
	.st135{clip-path:url(#SVGID_208_);fill:none;stroke:#A19FA0;stroke-width:0.9937;stroke-miterlimit:10;}
	.st136{opacity:0.03;clip-path:url(#SVGID_210_);}
	.st137{clip-path:url(#SVGID_212_);}
	.st138{opacity:0.03;clip-path:url(#SVGID_214_);}
	.st139{clip-path:url(#SVGID_216_);}
	.st140{clip-path:url(#SVGID_218_);}
	.st141{clip-path:url(#SVGID_220_);fill:none;stroke:#A19FA0;stroke-miterlimit:10;}
	.st142{fill:#FFFFFF;stroke:#6BCABA;stroke-width:0.9715;stroke-miterlimit:10;}
	.st143{clip-path:url(#SVGID_222_);}
	.st144{clip-path:url(#SVGID_224_);}
	.st145{clip-path:url(#SVGID_226_);}
	.st146{clip-path:url(#SVGID_228_);}
	.st147{clip-path:url(#SVGID_230_);}
	.st148{clip-path:url(#SVGID_232_);}
	.st149{clip-path:url(#SVGID_234_);}
	.st150{clip-path:url(#SVGID_236_);}
	.st151{clip-path:url(#SVGID_238_);}
	.st152{clip-path:url(#SVGID_240_);}
	.st153{clip-path:url(#SVGID_242_);}
	.st154{clip-path:url(#SVGID_244_);}
	.st155{clip-path:url(#SVGID_246_);}
	.st156{clip-path:url(#SVGID_248_);}
	.st157{clip-path:url(#SVGID_250_);}
	.st158{clip-path:url(#SVGID_252_);}
	.st159{clip-path:url(#SVGID_254_);}
	.st160{clip-path:url(#SVGID_256_);}
	.st161{clip-path:url(#SVGID_258_);}
	.st162{clip-path:url(#SVGID_260_);}
	.st163{clip-path:url(#SVGID_262_);}
	.st164{clip-path:url(#SVGID_264_);}
	.st165{clip-path:url(#SVGID_266_);}
	.st166{clip-path:url(#SVGID_268_);}
	.st167{clip-path:url(#SVGID_270_);}
	.st168{clip-path:url(#SVGID_272_);}
	.st169{clip-path:url(#SVGID_274_);}
	.st170{clip-path:url(#SVGID_276_);}
	.st171{clip-path:url(#SVGID_280_);fill:#FFFFFF;}
	.st172{opacity:0.9;clip-path:url(#SVGID_280_);}
	.st173{clip-path:url(#SVGID_284_);}
	.st174{clip-path:url(#SVGID_286_);}
	.st175{clip-path:url(#SVGID_288_);fill:none;stroke:#A19FA0;stroke-width:1.0215;stroke-miterlimit:10;}
	.st176{fill:url(#SVGID_289_);}
	.st177{fill:#F0F3F4;}
	.st178{fill:#DCDCDC;}
	.st179{opacity:0.03;clip-path:url(#SVGID_291_);}
	.st180{clip-path:url(#SVGID_293_);}
	.st181{clip-path:url(#SVGID_295_);}
	.st182{opacity:0.55;}
	.st183{fill:none;stroke:#FFFFFF;stroke-width:2;stroke-miterlimit:10;}
	.st184{clip-path:url(#SVGID_299_);fill:#FFFFFF;}
	.st185{opacity:0.9;clip-path:url(#SVGID_299_);}
	.st186{clip-path:url(#SVGID_303_);}
	.st187{fill:none;stroke:#6BCABA;stroke-width:8;stroke-miterlimit:10;}
	.st188{fill:#123251;}
	.st189{clip-path:url(#SVGID_305_);}
	.st190{fill:none;stroke:#123452;stroke-width:4;stroke-miterlimit:10;}
	.st191{fill:none;stroke:#71C2B5;stroke-width:4;stroke-miterlimit:10;}
	.st192{clip-path:url(#SVGID_307_);}
	.st193{opacity:0.4;fill:#1D1D1B;}
	.st194{clip-path:url(#SVGID_309_);}
	.st195{clip-path:url(#SVGID_311_);}
	.st196{clip-path:url(#SVGID_313_);}
</style>
<g id="TESIUAQ_TESIS">
</g>
<g id="TESIUAQ_RESULTADOS">
</g>
<g id="TESIUAQ_BÚSQUEDA">
</g>
<g id="TESIUAQ">
</g>
<g id="CUENTA">
</g>
<g id="RESULTADO">
</g>
<g id="BÚSQUEDA_AVANZADA">
</g>
<g id="BÚSQUEDA">
</g>
<g id="RECUPERACIÓN_DE_CONTRASEÑA">
</g>
<g id="INGRESA">
</g>
<g id="RECURSOS">
</g>
<g id="SERVICIOS">
</g>
<g id="CONÓCENOS">
</g>
<g id="INICIO">
	<rect x="42.85" y="401.87" class="st2" width="846.02" height="3"/>
	<g>
		<g>
			<path class="st2" d="M358.66,432.05h-1.18v-9.47h-2.55v-1.09h6.3v1.09h-2.58V432.05z"/>
			<path class="st2" d="M360.45,428.77c0-1.93,1.53-3.49,3.46-3.49s3.46,1.55,3.46,3.49c0,1.93-1.54,3.46-3.46,3.46
				S360.45,430.7,360.45,428.77z M361.57,428.76c0,1.34,0.95,2.44,2.34,2.44s2.34-1.09,2.34-2.44c0-1.33-0.95-2.44-2.34-2.44
				S361.57,427.43,361.57,428.76z"/>
			<path class="st2" d="M373.8,431.14h-0.03c-0.55,0.71-1.37,1.09-2.27,1.09c-1.93,0-3.15-1.64-3.15-3.46
				c0-1.88,1.19-3.49,3.17-3.49c0.88,0,1.72,0.42,2.26,1.12h0.03v-5.91h1.12v11.56h-1.12V431.14z M369.5,428.69
				c0,1.29,0.76,2.51,2.16,2.51c1.44,0,2.2-1.16,2.2-2.49c0-1.32-0.83-2.38-2.21-2.38C370.34,426.32,369.5,427.45,369.5,428.69z"/>
			<path class="st2" d="M376.4,428.77c0-1.93,1.53-3.49,3.46-3.49s3.46,1.55,3.46,3.49c0,1.93-1.54,3.46-3.46,3.46
				S376.4,430.7,376.4,428.77z M377.52,428.76c0,1.34,0.95,2.44,2.34,2.44s2.34-1.09,2.34-2.44c0-1.33-0.95-2.44-2.34-2.44
				S377.52,427.43,377.52,428.76z"/>
			<path class="st2" d="M387.52,426.99c-0.15-0.35-0.49-0.67-0.9-0.67c-0.39,0-0.81,0.31-0.81,0.73c0,0.6,0.76,0.83,1.53,1.15
				c0.77,0.32,1.53,0.79,1.53,1.89c0,1.25-1.01,2.14-2.23,2.14c-1.11,0-1.98-0.63-2.33-1.67l0.99-0.42c0.28,0.62,0.6,1.05,1.34,1.05
				c0.6,0,1.06-0.41,1.06-1.01c0-1.47-2.97-0.97-2.97-3.04c0-1.11,0.9-1.86,1.96-1.86c0.76,0,1.46,0.53,1.75,1.22L387.52,426.99z"/>
			<path class="st2" d="M395.85,432.05h-1.12v-11.56h1.12V432.05z"/>
			<path class="st2" d="M397.34,428.77c0-1.93,1.53-3.49,3.46-3.49s3.46,1.55,3.46,3.49c0,1.93-1.54,3.46-3.46,3.46
				S397.34,430.7,397.34,428.77z M398.46,428.76c0,1.34,0.95,2.44,2.34,2.44s2.34-1.09,2.34-2.44c0-1.33-0.95-2.44-2.34-2.44
				S398.46,427.43,398.46,428.76z"/>
			<path class="st2" d="M408.46,426.99c-0.15-0.35-0.49-0.67-0.9-0.67c-0.39,0-0.81,0.31-0.81,0.73c0,0.6,0.76,0.83,1.53,1.15
				c0.77,0.32,1.53,0.79,1.53,1.89c0,1.25-1.01,2.14-2.23,2.14c-1.11,0-1.98-0.63-2.33-1.67l0.99-0.42c0.28,0.62,0.6,1.05,1.34,1.05
				c0.6,0,1.06-0.41,1.06-1.01c0-1.47-2.97-0.97-2.97-3.04c0-1.11,0.9-1.86,1.96-1.86c0.76,0,1.46,0.53,1.75,1.22L408.46,426.99z"/>
			<path class="st2" d="M415.7,421.49h1.99c1.58,0,2.87,0.21,4.12,1.27c1.2,1.04,1.75,2.45,1.75,4.02c0,1.54-0.56,2.9-1.72,3.94
				c-1.26,1.12-2.52,1.33-4.17,1.33h-1.96V421.49z M417.73,430.96c1.29,0,2.37-0.18,3.33-1.09c0.87-0.81,1.32-1.92,1.32-3.1
				c0-1.2-0.46-2.37-1.37-3.17c-0.97-0.85-2.03-1.02-3.28-1.02h-0.85v8.38H417.73z"/>
			<path class="st2" d="M425.75,429c0.01,1.22,0.88,2.2,2.16,2.2c0.95,0,1.57-0.57,2-1.36l0.95,0.55c-0.63,1.18-1.69,1.85-3.04,1.85
				c-1.96,0-3.22-1.5-3.22-3.39c0-1.95,1.13-3.56,3.19-3.56c2.12,0,3.24,1.75,3.12,3.71H425.75z M429.74,428.04
				c-0.15-0.95-0.95-1.72-1.93-1.72c-0.97,0-1.86,0.77-2,1.72H429.74z"/>
			<path class="st2" d="M433.52,426.18h0.03c0.39-0.52,0.73-0.9,1.46-0.9c0.38,0,0.69,0.13,1.01,0.31l-0.53,1.02
				c-0.22-0.15-0.38-0.29-0.67-0.29c-1.23,0-1.29,1.58-1.29,2.44v3.29h-1.12v-6.58h1.12V426.18z"/>
			<path class="st2" d="M437.7,429c0.01,1.22,0.88,2.2,2.16,2.2c0.95,0,1.57-0.57,2-1.36l0.95,0.55c-0.63,1.18-1.7,1.85-3.04,1.85
				c-1.96,0-3.22-1.5-3.22-3.39c0-1.95,1.13-3.56,3.19-3.56c2.12,0,3.24,1.75,3.12,3.71H437.7z M441.7,428.04
				c-0.15-0.95-0.95-1.72-1.93-1.72c-0.97,0-1.86,0.77-2,1.72H441.7z"/>
			<path class="st2" d="M449.3,427.43h-0.03c-0.52-0.66-1.16-1.11-2.05-1.11c-1.36,0-2.33,1.12-2.33,2.44c0,1.3,0.9,2.44,2.27,2.44
				c0.94,0,1.6-0.42,2.14-1.13h0.03v1.5c-0.64,0.43-1.3,0.67-2.09,0.67c-1.99,0-3.5-1.48-3.5-3.47c0-1.96,1.58-3.47,3.52-3.47
				c0.71,0,1.44,0.24,2.03,0.66V427.43z"/>
			<path class="st2" d="M452.2,420.49v5.74l0.03,0.03c0.46-0.63,1.06-0.98,1.88-0.98c1.82,0,2.24,1.32,2.24,2.86v3.91h-1.12v-3.71
				c0-1.06-0.08-2.02-1.39-2.02c-1.54,0-1.64,1.43-1.64,2.61v3.12h-1.12v-11.56H452.2z"/>
			<path class="st2" d="M457.88,428.77c0-1.93,1.53-3.49,3.46-3.49s3.46,1.55,3.46,3.49c0,1.93-1.54,3.46-3.46,3.46
				S457.88,430.7,457.88,428.77z M459,428.76c0,1.34,0.95,2.44,2.34,2.44s2.34-1.09,2.34-2.44c0-1.33-0.95-2.44-2.34-2.44
				S459,427.43,459,428.76z"/>
			<path class="st2" d="M469,426.99c-0.15-0.35-0.49-0.67-0.9-0.67c-0.39,0-0.81,0.31-0.81,0.73c0,0.6,0.76,0.83,1.53,1.15
				c0.77,0.32,1.53,0.79,1.53,1.89c0,1.25-1.01,2.14-2.23,2.14c-1.11,0-1.98-0.63-2.33-1.67l0.99-0.42c0.28,0.62,0.6,1.05,1.34,1.05
				c0.6,0,1.06-0.41,1.06-1.01c0-1.47-2.97-0.97-2.97-3.04c0-1.11,0.9-1.86,1.96-1.86c0.76,0,1.46,0.53,1.75,1.22L469,426.99z"/>
			<path class="st2" d="M477.41,432.05h-1.18v-10.56h1.53c2,0,3.87,0.53,3.87,2.91c0,1.62-1.02,2.77-2.65,2.91l3.36,4.73h-1.44
				l-3.19-4.64h-0.29V432.05z M477.41,426.38h0.36c1.33,0,2.68-0.25,2.68-1.89c0-1.74-1.27-1.9-2.69-1.9h-0.35V426.38z"/>
			<path class="st2" d="M484.38,429c0.01,1.22,0.88,2.2,2.16,2.2c0.95,0,1.57-0.57,2-1.36l0.95,0.55c-0.63,1.18-1.7,1.85-3.04,1.85
				c-1.96,0-3.22-1.5-3.22-3.39c0-1.95,1.13-3.56,3.19-3.56c2.12,0,3.24,1.75,3.12,3.71H484.38z M488.37,428.04
				c-0.15-0.95-0.95-1.72-1.93-1.72c-0.97,0-1.86,0.77-2,1.72H488.37z"/>
			<path class="st2" d="M493.75,426.99c-0.15-0.35-0.49-0.67-0.9-0.67c-0.39,0-0.81,0.31-0.81,0.73c0,0.6,0.76,0.83,1.53,1.15
				c0.77,0.32,1.53,0.79,1.53,1.89c0,1.25-1.01,2.14-2.23,2.14c-1.11,0-1.98-0.63-2.33-1.67l0.99-0.42c0.28,0.62,0.6,1.05,1.34,1.05
				c0.6,0,1.06-0.41,1.06-1.01c0-1.47-2.97-0.97-2.97-3.04c0-1.11,0.9-1.86,1.96-1.86c0.76,0,1.46,0.53,1.75,1.22L493.75,426.99z"/>
			<path class="st2" d="M497.23,429c0.01,1.22,0.88,2.2,2.16,2.2c0.95,0,1.57-0.57,2-1.36l0.95,0.55c-0.63,1.18-1.7,1.85-3.04,1.85
				c-1.96,0-3.22-1.5-3.22-3.39c0-1.95,1.13-3.56,3.19-3.56c2.12,0,3.24,1.75,3.12,3.71H497.23z M501.22,428.04
				c-0.15-0.95-0.95-1.72-1.93-1.72c-0.97,0-1.86,0.77-2,1.72H501.22z"/>
			<path class="st2" d="M505,426.18h0.03c0.39-0.52,0.73-0.9,1.46-0.9c0.38,0,0.69,0.13,1.01,0.31l-0.53,1.02
				c-0.22-0.15-0.38-0.29-0.67-0.29c-1.23,0-1.29,1.58-1.29,2.44v3.29h-1.12v-6.58H505V426.18z"/>
			<path class="st2" d="M511.37,429.89l1.96-4.43h1.26l-3.22,7.02l-3.24-7.02h1.27L511.37,429.89z"/>
			<path class="st2" d="M521.68,432.05h-1.12v-0.91h-0.03c-0.57,0.73-1.34,1.09-2.27,1.09c-1.93,0-3.15-1.64-3.15-3.46
				c0-1.88,1.19-3.49,3.17-3.49c0.9,0,1.71,0.42,2.26,1.12h0.03v-0.94h1.12V432.05z M516.26,428.69c0,1.29,0.76,2.51,2.16,2.51
				c1.44,0,2.2-1.16,2.2-2.49c0-1.32-0.83-2.38-2.21-2.38C517.1,426.32,516.26,427.45,516.26,428.69z"/>
			<path class="st2" d="M528.64,431.14h-0.03c-0.55,0.71-1.37,1.09-2.27,1.09c-1.93,0-3.15-1.64-3.15-3.46
				c0-1.88,1.19-3.49,3.17-3.49c0.88,0,1.72,0.42,2.26,1.12h0.03v-5.91h1.12v11.56h-1.12V431.14z M524.34,428.69
				c0,1.29,0.76,2.51,2.16,2.51c1.44,0,2.2-1.16,2.2-2.49c0-1.32-0.83-2.38-2.21-2.38C525.18,426.32,524.34,427.45,524.34,428.69z"
				/>
			<path class="st2" d="M531.24,428.77c0-1.93,1.53-3.49,3.46-3.49s3.46,1.55,3.46,3.49c0,1.93-1.54,3.46-3.46,3.46
				S531.24,430.7,531.24,428.77z M532.36,428.76c0,1.34,0.95,2.44,2.34,2.44s2.34-1.09,2.34-2.44c0-1.33-0.95-2.44-2.34-2.44
				S532.36,427.43,532.36,428.76z"/>
			<path class="st2" d="M542.36,426.99c-0.15-0.35-0.49-0.67-0.9-0.67c-0.39,0-0.81,0.31-0.81,0.73c0,0.6,0.76,0.83,1.53,1.15
				c0.77,0.32,1.53,0.79,1.53,1.89c0,1.25-1.01,2.14-2.23,2.14c-1.11,0-1.98-0.63-2.33-1.67l0.99-0.42c0.28,0.62,0.6,1.05,1.34,1.05
				c0.6,0,1.06-0.41,1.06-1.01c0-1.47-2.97-0.97-2.97-3.04c0-1.11,0.9-1.86,1.96-1.86c0.76,0,1.46,0.53,1.75,1.22L542.36,426.99z"/>
			<path class="st2" d="M547.16,431.43c0,0.43-0.35,0.8-0.78,0.8s-0.78-0.36-0.78-0.8c0-0.42,0.35-0.77,0.78-0.77
				S547.16,431.01,547.16,431.43z"/>
			<path class="st2" d="M552.95,426.77c0-3.04,2.42-5.46,5.49-5.46s5.49,2.42,5.49,5.46c0,3.04-2.42,5.46-5.49,5.46
				S552.95,429.81,552.95,426.77z M563.09,426.77c0-2.58-2.14-4.62-4.65-4.62s-4.65,2.04-4.65,4.62c0,2.58,2.14,4.62,4.65,4.62
				S563.09,429.35,563.09,426.77z M560.37,425.65c-0.17-0.77-0.81-1.23-1.74-1.23c-1.51,0-2.19,1.19-2.19,2.28
				c0,1.29,0.81,2.33,2.21,2.33c0.92,0,1.51-0.48,1.71-1.28h0.85c-0.17,1.32-1.3,2.12-2.56,2.12c-1.85,0-3.05-1.4-3.05-3.14
				c0-1.81,1.15-3.15,3.04-3.15c1.29,0,2.33,0.77,2.58,2.07H560.37z"/>
			<path class="st2" d="M571.45,430.96v1.09h-6.84l4.94-5.84c0.42-0.5,0.71-1.08,0.71-1.77c0-1.18-0.95-2.04-2.1-2.04
				c-1.27,0-2.1,0.94-2.13,2.17h-1.18c0.04-1.85,1.4-3.26,3.26-3.26c1.76,0,3.32,1.29,3.32,3.12c0,0.85-0.25,1.6-0.8,2.23l-3.66,4.3
				H571.45z"/>
			<path class="st2" d="M580.76,426.78c0,2.61-1.37,5.45-3.78,5.45s-3.78-2.84-3.78-5.45c0-2.17,1.11-5.48,3.78-5.48
				C579.65,421.3,580.76,424.61,580.76,426.78z M574.37,426.84c0.03,1.49,0.66,4.3,2.61,4.3c1.95,0,2.58-2.82,2.61-4.3
				c0.03-1.5-0.62-4.44-2.61-4.44C574.99,422.4,574.34,425.34,574.37,426.84z"/>
			<path class="st2" d="M588.7,430.96v1.09h-6.84l4.94-5.84c0.42-0.5,0.71-1.08,0.71-1.77c0-1.18-0.95-2.04-2.1-2.04
				c-1.27,0-2.1,0.94-2.13,2.17h-1.18c0.04-1.85,1.4-3.26,3.26-3.26c1.76,0,3.32,1.29,3.32,3.12c0,0.85-0.25,1.6-0.8,2.23l-3.66,4.3
				H588.7z"/>
			<path class="st2" d="M597.88,429.25v1.09h-1.3v1.71h-1.18v-1.71h-5.41l6.56-9.44h0.03v8.35H597.88z M595.4,424.47h-0.03
				l-3.32,4.78h3.35V424.47z"/>
			<path class="st2" d="M605.06,427.78c0,0.78-0.03,1.68,0.46,2.35c0.46,0.64,1.36,1.01,2.13,1.01c0.76,0,1.58-0.35,2.07-0.94
				c0.56-0.67,0.52-1.6,0.52-2.42v-6.29h1.18v6.61c0,1.15-0.08,2.06-0.92,2.93c-0.73,0.78-1.78,1.2-2.84,1.2
				c-0.99,0-2.02-0.38-2.73-1.08c-0.92-0.88-1.04-1.85-1.04-3.05v-6.61h1.18V427.78z"/>
			<path class="st2" d="M614.62,426.26h0.03c0.46-0.63,1.06-0.98,1.88-0.98c1.82,0,2.24,1.32,2.24,2.86v3.91h-1.12v-3.71
				c0-1.06-0.08-2.02-1.39-2.02c-1.54,0-1.64,1.43-1.64,2.61v3.12h-1.12v-6.58h1.12V426.26z"/>
			<path class="st2" d="M622.46,422.99c0,0.45-0.36,0.8-0.8,0.8s-0.8-0.35-0.8-0.8c0-0.43,0.36-0.8,0.8-0.8
				S622.46,422.55,622.46,422.99z M622.22,432.05h-1.12v-6.58h1.12V432.05z"/>
			<path class="st2" d="M626.75,429.89l1.96-4.43h1.26l-3.22,7.02l-3.24-7.02h1.28L626.75,429.89z"/>
			<path class="st2" d="M631.6,429c0.01,1.22,0.88,2.2,2.16,2.2c0.95,0,1.57-0.57,2-1.36l0.95,0.55c-0.63,1.18-1.69,1.85-3.04,1.85
				c-1.96,0-3.22-1.5-3.22-3.39c0-1.95,1.13-3.56,3.19-3.56c2.12,0,3.24,1.75,3.12,3.71H631.6z M635.59,428.04
				c-0.15-0.95-0.95-1.72-1.93-1.72c-0.97,0-1.86,0.77-2,1.72H635.59z"/>
			<path class="st2" d="M639.37,426.18h0.03c0.39-0.52,0.73-0.9,1.46-0.9c0.38,0,0.69,0.13,1.01,0.31l-0.53,1.02
				c-0.22-0.15-0.38-0.29-0.67-0.29c-1.23,0-1.29,1.58-1.29,2.44v3.29h-1.12v-6.58h1.12V426.18z"/>
			<path class="st2" d="M645.66,426.99c-0.15-0.35-0.49-0.67-0.9-0.67c-0.39,0-0.81,0.31-0.81,0.73c0,0.6,0.76,0.83,1.53,1.15
				c0.77,0.32,1.53,0.79,1.53,1.89c0,1.25-1.01,2.14-2.23,2.14c-1.11,0-1.98-0.63-2.33-1.67l0.99-0.42c0.28,0.62,0.6,1.05,1.34,1.05
				c0.6,0,1.06-0.41,1.06-1.01c0-1.47-2.97-0.97-2.97-3.04c0-1.11,0.9-1.86,1.96-1.86c0.76,0,1.46,0.53,1.75,1.22L645.66,426.99z"/>
			<path class="st2" d="M650.15,422.99c0,0.45-0.36,0.8-0.8,0.8s-0.8-0.35-0.8-0.8c0-0.43,0.36-0.8,0.8-0.8
				S650.15,422.55,650.15,422.99z M649.92,432.05h-1.12v-6.58h1.12V432.05z"/>
			<path class="st2" d="M657.14,431.14h-0.03c-0.55,0.71-1.37,1.09-2.27,1.09c-1.93,0-3.15-1.64-3.15-3.46
				c0-1.88,1.19-3.49,3.17-3.49c0.88,0,1.72,0.42,2.25,1.12h0.03v-5.91h1.12v11.56h-1.12V431.14z M652.84,428.69
				c0,1.29,0.76,2.51,2.16,2.51c1.44,0,2.2-1.16,2.2-2.49c0-1.32-0.83-2.38-2.21-2.38C653.68,426.32,652.84,427.45,652.84,428.69z"
				/>
			<path class="st2" d="M666.34,432.05h-1.12v-0.91h-0.03c-0.57,0.73-1.34,1.09-2.27,1.09c-1.93,0-3.15-1.64-3.15-3.46
				c0-1.88,1.19-3.49,3.17-3.49c0.9,0,1.71,0.42,2.25,1.12h0.03v-0.94h1.12V432.05z M660.92,428.69c0,1.29,0.76,2.51,2.16,2.51
				c1.44,0,2.2-1.16,2.2-2.49c0-1.32-0.83-2.38-2.21-2.38C661.76,426.32,660.92,427.45,660.92,428.69z"/>
			<path class="st2" d="M673.3,431.14h-0.03c-0.55,0.71-1.37,1.09-2.27,1.09c-1.93,0-3.15-1.64-3.15-3.46
				c0-1.88,1.19-3.49,3.17-3.49c0.88,0,1.72,0.42,2.25,1.12h0.03v-5.91h1.12v11.56h-1.12V431.14z M669,428.69
				c0,1.29,0.76,2.51,2.16,2.51c1.44,0,2.2-1.16,2.2-2.49c0-1.32-0.83-2.38-2.21-2.38C669.84,426.32,669,427.45,669,428.69z"/>
			<path class="st2" d="M682.38,429.05l-1.27,3h-1.29l4.88-11.07l4.75,11.07h-1.3l-1.25-3H682.38z M684.66,423.73l-1.81,4.23h3.57
				L684.66,423.73z"/>
			<path class="st2" d="M691.62,429.13c0,1.11,0.13,2.06,1.48,2.06s1.48-0.95,1.48-2.06v-3.67h1.12v3.8c0,1.75-0.66,2.97-2.61,2.97
				s-2.61-1.22-2.61-2.97v-3.8h1.12V429.13z"/>
			<path class="st2" d="M698.93,432.05h-1.12v-5.55h-0.69v-1.04h0.69v-2.37h1.12v2.37h1.18v1.04h-1.18V432.05z"/>
			<path class="st2" d="M700.52,428.77c0-1.93,1.53-3.49,3.46-3.49c1.93,0,3.46,1.55,3.46,3.49c0,1.93-1.54,3.46-3.46,3.46
				S700.52,430.7,700.52,428.77z M701.64,428.76c0,1.34,0.95,2.44,2.34,2.44s2.34-1.09,2.34-2.44c0-1.33-0.95-2.44-2.34-2.44
				S701.64,427.43,701.64,428.76z M705.97,422.16l-2.14,2.16l-0.7-0.39l1.67-2.3L705.97,422.16z"/>
			<path class="st2" d="M710.1,426.26h0.03c0.46-0.63,1.06-0.98,1.88-0.98c1.82,0,2.24,1.32,2.24,2.86v3.91h-1.12v-3.71
				c0-1.06-0.08-2.02-1.39-2.02c-1.54,0-1.64,1.43-1.64,2.61v3.12h-1.12v-6.58h1.12V426.26z"/>
			<path class="st2" d="M715.78,428.77c0-1.93,1.53-3.49,3.46-3.49c1.93,0,3.46,1.55,3.46,3.49c0,1.93-1.54,3.46-3.46,3.46
				S715.78,430.7,715.78,428.77z M716.9,428.76c0,1.34,0.95,2.44,2.34,2.44s2.34-1.09,2.34-2.44c0-1.33-0.95-2.44-2.34-2.44
				S716.9,427.43,716.9,428.76z"/>
			<path class="st2" d="M725.36,426.18h0.03c0.35-0.55,0.91-0.9,1.58-0.9c0.77,0,1.47,0.41,1.82,1.09c0.39-0.73,1.18-1.09,1.97-1.09
				c1.68,0,2.1,1.37,2.1,2.76v4.01h-1.12v-3.82c0-0.85-0.06-1.91-1.2-1.91c-1.29,0-1.43,1.25-1.43,2.24v3.49h-1.12v-3.74
				c0-0.81-0.1-1.99-1.18-1.99c-1.32,0-1.46,1.33-1.46,2.33v3.4h-1.12v-6.58h1.12V426.18z"/>
			<path class="st2" d="M741,432.05h-1.12v-0.91h-0.03c-0.57,0.73-1.34,1.09-2.27,1.09c-1.93,0-3.15-1.64-3.15-3.46
				c0-1.88,1.19-3.49,3.17-3.49c0.9,0,1.71,0.42,2.25,1.12h0.03v-0.94H741V432.05z M735.58,428.69c0,1.29,0.76,2.51,2.16,2.51
				c1.44,0,2.2-1.16,2.2-2.49c0-1.32-0.83-2.38-2.21-2.38C736.42,426.32,735.58,427.45,735.58,428.69z"/>
			<path class="st2" d="M752.27,431.14h-0.03c-0.55,0.71-1.37,1.09-2.27,1.09c-1.93,0-3.15-1.64-3.15-3.46
				c0-1.88,1.19-3.49,3.17-3.49c0.88,0,1.72,0.42,2.25,1.12h0.03v-5.91h1.12v11.56h-1.12V431.14z M747.97,428.69
				c0,1.29,0.76,2.51,2.16,2.51c1.44,0,2.2-1.16,2.2-2.49c0-1.32-0.83-2.38-2.21-2.38C748.81,426.32,747.97,427.45,747.97,428.69z"
				/>
			<path class="st2" d="M756.02,429c0.01,1.22,0.88,2.2,2.16,2.2c0.95,0,1.57-0.57,2-1.36l0.95,0.55c-0.63,1.18-1.69,1.85-3.04,1.85
				c-1.96,0-3.22-1.5-3.22-3.39c0-1.95,1.13-3.56,3.19-3.56c2.12,0,3.24,1.75,3.12,3.71H756.02z M760.01,428.04
				c-0.15-0.95-0.95-1.72-1.93-1.72c-0.97,0-1.86,0.77-2,1.72H760.01z"/>
			<path class="st2" d="M775.19,431.19c-0.87,0.66-2.12,1.04-3.18,1.04c-3.01,0-5.5-2.41-5.5-5.45c0-3.03,2.49-5.48,5.5-5.48
				c3.05,0,5.5,2.48,5.5,5.5c0,1.47-0.53,2.66-1.53,3.73l1.58,1.61h-1.5L775.19,431.19z M775.18,429.7
				c0.78-0.83,1.16-1.79,1.16-2.93c0-2.41-1.9-4.37-4.33-4.37c-2.42,0-4.33,1.98-4.33,4.37c0,2.38,1.93,4.37,4.33,4.37
				c0.78,0,1.71-0.29,2.35-0.79l-2.55-2.56h1.54L775.18,429.7z"/>
			<path class="st2" d="M780.14,429.13c0,1.11,0.13,2.06,1.48,2.06s1.48-0.95,1.48-2.06v-3.67h1.12v3.8c0,1.75-0.66,2.97-2.61,2.97
				s-2.61-1.22-2.61-2.97v-3.8h1.12V429.13z"/>
			<path class="st2" d="M786.83,429c0.01,1.22,0.88,2.2,2.16,2.2c0.95,0,1.57-0.57,2-1.36l0.95,0.55c-0.63,1.18-1.69,1.85-3.04,1.85
				c-1.96,0-3.22-1.5-3.22-3.39c0-1.95,1.13-3.56,3.19-3.56c2.12,0,3.24,1.75,3.12,3.71H786.83z M790.83,428.04
				c-0.15-0.95-0.95-1.72-1.93-1.72c-0.97,0-1.86,0.77-2,1.72H790.83z"/>
			<path class="st2" d="M794.6,426.18h0.03c0.39-0.52,0.73-0.9,1.46-0.9c0.38,0,0.69,0.13,1.01,0.31l-0.53,1.02
				c-0.22-0.15-0.38-0.29-0.67-0.29c-1.23,0-1.29,1.58-1.29,2.44v3.29h-1.12v-6.58h1.12V426.18z"/>
			<path class="st2" d="M798.79,429c0.01,1.22,0.88,2.2,2.16,2.2c0.95,0,1.57-0.57,2-1.36l0.95,0.55c-0.63,1.18-1.69,1.85-3.04,1.85
				c-1.96,0-3.22-1.5-3.22-3.39c0-1.95,1.13-3.56,3.19-3.56c2.12,0,3.24,1.75,3.12,3.71H798.79z M802.78,428.04
				c-0.15-0.95-0.95-1.72-1.93-1.72c-0.97,0-1.86,0.77-2,1.72H802.78z M802.8,422.16l-2.14,2.16l-0.7-0.39l1.67-2.3L802.8,422.16z"
				/>
			<path class="st2" d="M806.67,432.05h-1.12v-5.55h-0.69v-1.04h0.69v-2.37h1.12v2.37h1.18v1.04h-1.18V432.05z"/>
			<path class="st2" d="M814.86,432.05h-1.12v-0.91h-0.03c-0.57,0.73-1.34,1.09-2.27,1.09c-1.93,0-3.15-1.64-3.15-3.46
				c0-1.88,1.19-3.49,3.17-3.49c0.9,0,1.71,0.42,2.25,1.12h0.03v-0.94h1.12V432.05z M809.44,428.69c0,1.29,0.76,2.51,2.16,2.51
				c1.44,0,2.2-1.16,2.2-2.49c0-1.32-0.83-2.38-2.21-2.38C810.28,426.32,809.44,427.45,809.44,428.69z"/>
			<path class="st2" d="M818,426.18h0.03c0.39-0.52,0.73-0.9,1.46-0.9c0.38,0,0.69,0.13,1.01,0.31l-0.53,1.02
				c-0.22-0.15-0.38-0.29-0.67-0.29c-1.23,0-1.29,1.58-1.29,2.44v3.29h-1.12v-6.58H818V426.18z"/>
			<path class="st2" d="M821.03,428.77c0-1.93,1.53-3.49,3.46-3.49c1.93,0,3.46,1.55,3.46,3.49c0,1.93-1.54,3.46-3.46,3.46
				C822.57,432.23,821.03,430.7,821.03,428.77z M822.15,428.76c0,1.34,0.95,2.44,2.34,2.44s2.34-1.09,2.34-2.44
				c0-1.33-0.95-2.44-2.34-2.44S822.15,427.43,822.15,428.76z"/>
		</g>
	</g>
	<g>
		<defs>
			<rect id="SVGID_312_" x="878.21" y="26.05" width="398.59" height="426.89"/>
		</defs>
		<clipPath id="SVGID_2_">
			<use xlink:href="#SVGID_312_"  style="overflow:visible;"/>
		</clipPath>
		<g style="clip-path:url(#SVGID_2_);">
			<g>
				<g>
					<path class="st19" d="M1226.54,107.83c0,16.71-6.34,33.42-19.08,46.24c-12.46,12.46-28.66,18.87-45.01,19.16h-2.59
						c-16.28-0.29-32.48-6.7-44.94-19.16c-18.72-18.8-23.69-46.09-14.91-69.43c3.17-8.35,8.14-16.28,14.91-23.05
						c25.57-25.57,66.98-25.57,92.54,0c6.77,6.77,11.74,14.69,14.91,23.05C1225.17,92.06,1226.54,99.98,1226.54,107.83z"/>
				</g>
			</g>
			<g>
				<g>
					<path class="st19" d="M1030.32,303.25c0,0.07,0.07,0.14,0.07,0.29v0.22c-0.36,16.28-6.7,32.48-19.16,44.94
						c-18.8,18.8-46.09,23.77-69.43,14.91c-8.43-3.17-16.28-8.14-23.05-14.91c-25.57-25.57-25.57-66.98,0-92.54
						c6.77-6.77,14.62-11.74,23.05-14.91c23.26-8.79,50.49-3.82,69.28,14.84c0.07,0,0.07,0.07,0.14,0.14
						c6.77,6.77,11.74,14.62,14.91,23.05c2.66,7.06,4.1,14.48,4.25,21.89c0,0.07,0,0.14-0.07,0.22V303.25z"/>
				</g>
			</g>
			<g>
				<g>
					<path class="st3" d="M1095.81,303.74h-0.07c0.14,7.42,1.58,14.84,4.25,21.89c3.17,8.28,7.99,15.99,14.55,22.69
						c0.07,0.07,0.14,0.14,0.22,0.22c0.07,0.07,0.07,0.07,0.14,0.14c0.79,0.79,1.58,1.51,2.38,2.16c0.43,0.43,0.79,0.79,1.22,1.15
						c0.07,0.07,0.14,0.14,0.29,0.22c1.08,1.01,2.23,1.94,3.46,2.74c0.86,0.72,1.73,1.37,2.59,1.94c0.07,0,0.07,0,0.07,0
						c0.14,0.14,0.36,0.22,0.58,0.36c0.15,0.07,0.29,0.22,0.51,0.29c1.01,0.72,2.02,1.3,3.1,1.87c0.43,0.22,0.79,0.5,1.3,0.72
						c1.22,0.72,2.52,1.22,3.75,1.8c0.07,0,0.07,0.07,0.14,0.07c0.58,0.29,1.22,0.58,1.73,0.86c0.58,0.22,1.15,0.43,1.73,0.58
						c0,0,0.07,0.07,0.14,0.07c0.58,0.22,1.15,0.43,1.8,0.65c0.07,0,0.07,0.07,0.15,0.07c0.65,0.29,1.37,0.5,2.09,0.72
						c0.29,0.07,0.65,0.22,0.94,0.22c0.86,0.29,1.66,0.43,2.52,0.65c0.87,0.22,1.66,0.5,2.52,0.65c0.72,0.14,1.37,0.22,2.09,0.36
						c0.36,0.07,0.79,0.07,1.15,0.14c1.01,0.14,1.94,0.36,2.88,0.43c1.01,0.14,1.94,0.14,2.95,0.22c0.94,0.07,1.94,0.14,2.88,0.22
						h2.02c0.07,0,0.07,0,0.14,0h0.43c0.07,0,0.07,0,0.07,0c1.3-0.07,2.66-0.14,3.96-0.29c0.36,0,0.72,0,1.01-0.07
						c0.29,0,0.58,0,0.87-0.07h0.07c0.43,0,0.94-0.14,1.44-0.22c0.22,0,0.36-0.07,0.58-0.07c1.15-0.14,2.3-0.29,3.46-0.5
						c0.07-0.07,0.22-0.07,0.36-0.07c0.07-0.07,0.22-0.07,0.29-0.07c0.36-0.07,0.65-0.14,0.94-0.22c0.22-0.07,0.36-0.07,0.5-0.14
						c0.07,0,0.14-0.07,0.29-0.07c0.07,0,0.14-0.07,0.22-0.07c1.08-0.22,2.02-0.5,3.03-0.79c0.14,0,0.29,0,0.43-0.07
						c0.72-0.22,1.44-0.5,2.16-0.72c0.14-0.07,0.36-0.14,0.5-0.22c0.22,0,0.36-0.07,0.5-0.14c0.58-0.22,1.15-0.43,1.8-0.65
						c1.08-0.43,2.23-0.94,3.31-1.44c0.14,0,0.22-0.07,0.36-0.14c0.22-0.14,0.43-0.22,0.65-0.29c0.58-0.29,1.22-0.58,1.8-0.86
						c0.14-0.07,0.22-0.14,0.36-0.22c0.94-0.43,1.8-1.01,2.67-1.51c0.36-0.22,0.65-0.36,1.01-0.58c0.58-0.36,1.22-0.65,1.8-1.08
						c0.07-0.07,0.22-0.14,0.29-0.22c0.36-0.22,0.72-0.43,1.08-0.72c0.43-0.29,0.86-0.58,1.3-0.94c0.43-0.36,0.86-0.65,1.37-1.01
						c0.43-0.36,0.94-0.72,1.44-1.08l0.22-0.22c0.14-0.07,0.36-0.22,0.5-0.36c0.07-0.14,0.14-0.14,0.22-0.22
						c1.37-1.22,2.81-2.45,4.18-3.82c0.86-0.86,1.58-1.66,2.38-2.52c0,0,0,0,0-0.07c0.79-0.79,1.51-1.66,2.23-2.52
						c0.36-0.5,0.72-1.01,1.08-1.44c1.01-1.37,2.02-2.66,2.88-4.03c0.07-0.07,0.07-0.14,0.14-0.22c0.14-0.22,0.29-0.5,0.43-0.72
						c0.15-0.29,0.36-0.58,0.5-0.86c0.79-1.22,1.51-2.52,2.16-3.82c0.07-0.07,0.07-0.14,0.14-0.22v-0.07c0-0.07,0-0.07,0.07-0.07
						c0.22-0.43,0.36-0.79,0.58-1.22c0.43-1.01,0.94-2.09,1.37-3.17c0.29-0.5,0.5-1.08,0.72-1.58c0.07-0.14,0.14-0.36,0.22-0.5
						v-0.07c0.14-0.43,0.29-0.86,0.43-1.3c0.43-1.22,0.86-2.38,1.22-3.6c0.14-0.5,0.22-0.94,0.36-1.44v-0.07
						c0.15-0.43,0.22-0.79,0.29-1.22c0.07-0.14,0.07-0.29,0.14-0.43c0.14-0.79,0.36-1.58,0.58-2.38v-0.07
						c0.29-1.58,0.5-3.02,0.65-4.61c0.07-0.14,0.07-0.29,0.07-0.43c0.07-0.43,0.14-0.86,0.14-1.3c0.07-0.29,0.07-0.65,0.07-1.01
						c0.07-0.65,0.07-1.37,0.14-2.02v-0.07c0.07-0.65,0.14-1.22,0.14-1.87c0-0.07-0.07-0.14-0.07-0.14c0-0.07,0-0.07,0-0.14
						s0.07-0.22,0.07-0.36c0-0.22-0.07-0.43-0.07-0.65c0-0.22,0.07-0.43,0.07-0.72c0-0.07,0-0.07-0.07-0.14
						c0.07-0.07,0-0.14,0.07-0.22v-0.22c-0.07-0.5-0.07-1.08-0.14-1.58v-0.29c-0.07-0.79-0.07-1.58-0.14-2.38
						c0-0.58-0.07-1.15-0.15-1.73v-0.07c-0.07-0.43-0.14-0.86-0.22-1.3l-0.43-3.02c-0.07-0.58-0.14-1.15-0.29-1.73
						c-0.07-0.07-0.07-0.07-0.07-0.07c0-0.22-0.07-0.43-0.14-0.65c-1.3-5.91-3.39-11.67-6.34-17.07c-0.72-1.37-1.51-2.66-2.3-3.96
						v-0.07c-0.86-1.3-1.73-2.52-2.66-3.82c0,0,0,0,0-0.07c-0.65-0.79-1.3-1.58-2.02-2.38c-0.14-0.29-0.43-0.58-0.65-0.86
						c-0.07-0.14-0.14-0.22-0.29-0.36h-0.07v-0.07c-1.01-1.15-2.09-2.3-3.24-3.46l-0.07-0.07c-0.07-0.07-0.14-0.14-0.14-0.22
						c-0.65-0.65-1.37-1.3-2.09-1.87c-0.65-0.65-1.37-1.22-2.02-1.8c-0.22-0.14-0.36-0.29-0.58-0.43c-1.08-0.94-2.23-1.73-3.39-2.59
						c-0.72-0.43-1.3-0.94-2.02-1.37c-1.01-0.72-2.09-1.37-3.17-1.94c-0.86-0.5-1.66-1.01-2.52-1.44c-1.01-0.5-2.02-1.01-3.02-1.44
						c-1.01-0.43-2.02-0.94-3.03-1.3c-0.36-0.14-0.65-0.36-1.01-0.5c-0.79-0.29-1.66-0.5-2.45-0.79c-0.65-0.22-1.22-0.43-1.87-0.58
						c-1.44-0.5-2.95-0.87-4.46-1.22c-0.43-0.07-0.79-0.14-1.22-0.29c-1.73-0.36-3.53-0.58-5.33-0.79c-0.14-0.07-0.29-0.07-0.5-0.14
						c-2.02-0.22-4.03-0.36-6.05-0.36h-2.81c-2.38,0.07-4.75,0.22-7.06,0.5c-1.37,0.22-2.81,0.43-4.18,0.72
						c-1.97,0.37-3.94,0.93-5.89,1.5c-1.08,0.32-2.15,0.68-3.21,1.06c-1.86,0.66-3.72,1.34-5.52,2.19c-1.22,0.5-2.38,1.08-3.53,1.73
						c-0.22,0.07-0.36,0.22-0.5,0.29c-1.66,0.94-3.31,1.87-4.9,2.95c-0.86,0.58-1.73,1.3-2.59,1.87c-0.87,0.65-1.73,1.22-2.52,1.94
						l-4.9,4.32c0,0.07,0,0.07,0,0.07c-3.1,3.1-5.83,6.41-8.21,9.94c-6.19,9.29-9.72,19.73-10.66,30.39
						c-0.15,1.58-0.22,3.1-0.29,4.61v0.72c0.07,0.07,0,0.14,0,0.22v0.36c0.07,0.36,0.07,0.72,0.07,1.08c-0.07,0.07-0.07,0.07,0,0.14
						V303.74z"/>
				</g>
			</g>
			<g>
				<g>
					<g>
						<path class="st20" d="M1067.28,460.35h2.74c7.42-0.14,14.76-1.51,21.82-4.18c8.43-3.17,16.28-8.21,23.05-14.98
							c12.46-12.46,28.66-18.8,44.94-19.08c0.14-0.07,0.22,0,0.29,0h2.09c0.07,0,0.22-0.07,0.29,0c16.28,0.29,32.48,6.7,44.94,19.16
							c6.7,6.7,14.62,11.67,23.04,14.84c7.2,2.81,14.84,4.18,22.47,4.25h1.44c16.49-0.14,32.91-6.55,45.52-19.16
							c12.46-12.46,18.8-28.59,19.16-44.94v-0.22c-0.07-0.72-0.07-1.44,0-2.16v-0.22c-0.29-16.28-6.7-32.48-19.16-44.94
							c-12.46-12.46-18.8-28.66-19.16-44.94v-2.59c0.14-7.42,1.58-14.84,4.25-21.89c3.17-8.43,8.14-16.28,14.91-23.05
							c25.57-25.57,25.57-66.98,0-92.54c-6.77-6.77-14.69-11.74-23.05-14.91c-23.33-8.86-50.7-3.82-69.43,14.91
							c-12.46,12.46-28.66,18.87-45.01,19.16h-2.59c-16.28-0.29-32.48-6.7-44.94-19.16c-12.46-12.46-28.66-18.8-44.94-19.16h-0.43
							c-0.65,0-1.3,0-1.95,0.07c-0.07-0.07-0.14,0-0.22-0.07c-7.42,0.14-14.84,1.58-21.89,4.25c-8.35,3.17-16.28,8.14-23.04,14.91
							c-12.6,12.6-18.94,29.02-19.16,45.52v1.51c0.14,16.42,6.48,32.77,19.01,45.37c0.07,0,0.07,0.07,0.15,0.14
							c6.77,6.77,11.74,14.62,14.91,23.05c2.66,7.06,4.1,14.48,4.25,21.89c0,0.07,0,0.14-0.07,0.22v1.87c0,0.07,0.07,0.14,0.07,0.29
							v0.22c-0.36,16.28-6.7,32.48-19.16,44.94c-12.46,12.39-18.8,28.59-19.16,44.87c0,0,0,0,0,0.07c0.07,0.86,0.07,1.73,0,2.59
							c0,0.07,0,0.14,0,0.14c0.36,16.28,6.77,32.41,19.16,44.87C1034.87,453.65,1051,460.06,1067.28,460.35z M1095.73,302.48v-0.36
							c0-0.07,0.07-0.14,0-0.22v-0.72c0.07-1.51,0.14-3.02,0.29-4.61c0.94-10.66,4.46-21.1,10.66-30.39
							c2.38-3.53,5.11-6.84,8.21-9.94c0,0,0,0,0-0.07l4.9-4.32c0.79-0.72,1.66-1.3,2.52-1.94c0.86-0.58,1.73-1.3,2.59-1.87
							c1.58-1.08,3.24-2.02,4.9-2.95c0.14-0.07,0.29-0.22,0.5-0.29c1.15-0.65,2.3-1.22,3.53-1.73c1.79-0.86,3.65-1.53,5.52-2.19
							c-1.85,0.66-3.7,1.32-5.49,2.17c4.68-2.23,9.65-3.82,14.62-4.75c-2,0.4-3.96,0.95-5.92,1.52c1.96-0.58,3.92-1.13,5.89-1.5
							c1.37-0.29,2.81-0.5,4.18-0.72c2.3-0.29,4.68-0.43,7.06-0.5h2.81c2.02,0,4.03,0.14,6.05,0.36c0.22,0.07,0.36,0.07,0.5,0.14
							c1.8,0.22,3.6,0.43,5.33,0.79c0.43,0.14,0.79,0.22,1.22,0.29c1.51,0.36,3.03,0.72,4.46,1.22c0.65,0.14,1.22,0.36,1.87,0.58
							c0.79,0.29,1.66,0.5,2.45,0.79c0.36,0.14,0.65,0.36,1.01,0.5c1.01,0.36,2.02,0.86,3.03,1.3c1.01,0.43,2.02,0.94,3.02,1.44
							c0.86,0.43,1.66,0.94,2.52,1.44c1.08,0.58,2.16,1.22,3.17,1.94c0.72,0.43,1.3,0.94,2.02,1.37c1.15,0.86,2.3,1.66,3.39,2.59
							c0.22,0.14,0.36,0.29,0.58,0.43c0.65,0.58,1.37,1.15,2.02,1.8c0.72,0.58,1.44,1.22,2.09,1.87c0,0.07,0.07,0.14,0.14,0.22
							l0.07,0.07c1.15,1.15,2.23,2.3,3.24,3.46v0.07h0.07c0.14,0.14,0.22,0.22,0.29,0.36c0.22,0.29,0.5,0.58,0.65,0.86
							c0.72,0.79,1.37,1.58,2.02,2.38c0,0.07,0,0.07,0,0.07c0.94,1.3,1.8,2.52,2.66,3.82v0.07c0.79,1.3,1.58,2.59,2.3,3.96
							c2.95,5.4,5.04,11.16,6.34,17.07c0.07,0.22,0.14,0.43,0.14,0.65c0,0,0,0,0.07,0.07c0.14,0.58,0.22,1.15,0.29,1.73l0.43,3.02
							c0.07,0.43,0.14,0.86,0.22,1.3v0.07c0.07,0.58,0.15,1.15,0.15,1.73c0.07,0.79,0.07,1.58,0.14,2.38v0.29
							c0.07,0.5,0.07,1.08,0.14,1.58v0.22c-0.07,0.07,0,0.14-0.07,0.22c0.07,0.07,0.07,0.07,0.07,0.14c0,0.29-0.07,0.5-0.07,0.72
							c0,0.22,0.07,0.43,0.07,0.65c0,0.14-0.07,0.29-0.07,0.36s0,0.07,0,0.14c0,0,0.07,0.07,0.07,0.14c0,0.65-0.07,1.22-0.14,1.87
							v0.07c-0.07,0.65-0.07,1.37-0.14,2.02c0,0.36,0,0.72-0.07,1.01c0,0.43-0.07,0.86-0.14,1.3c0,0.14,0,0.29-0.07,0.43
							c-0.15,1.58-0.36,3.02-0.65,4.61v0.07c-0.22,0.79-0.43,1.58-0.58,2.38c-0.07,0.14-0.07,0.29-0.14,0.43
							c-0.07,0.43-0.14,0.79-0.29,1.22v0.07c-0.14,0.5-0.22,0.94-0.36,1.44c-0.36,1.22-0.79,2.38-1.22,3.6
							c-0.14,0.43-0.29,0.86-0.43,1.3v0.07c-0.07,0.14-0.14,0.36-0.22,0.5c-0.22,0.5-0.43,1.08-0.72,1.58
							c-0.43,1.08-0.94,2.16-1.37,3.17c-0.22,0.43-0.36,0.79-0.58,1.22c-0.07,0-0.07,0-0.07,0.07v0.07
							c-0.07,0.07-0.07,0.14-0.14,0.22c-0.65,1.3-1.37,2.59-2.16,3.82c-0.14,0.29-0.36,0.58-0.5,0.86c-0.14,0.22-0.29,0.5-0.43,0.72
							c-0.07,0.07-0.07,0.14-0.14,0.22c-0.87,1.37-1.87,2.66-2.88,4.03c-0.36,0.43-0.72,0.94-1.08,1.44
							c-0.72,0.86-1.44,1.73-2.23,2.52c0,0.07,0,0.07,0,0.07c-0.79,0.86-1.51,1.66-2.38,2.52c-1.37,1.37-2.81,2.59-4.18,3.82
							c-0.07,0.07-0.14,0.07-0.22,0.22c-0.14,0.14-0.36,0.29-0.5,0.36l-0.22,0.22c-0.5,0.36-1.01,0.72-1.44,1.08
							c-0.5,0.36-0.94,0.65-1.37,1.01c-0.43,0.36-0.87,0.65-1.3,0.94c-0.36,0.29-0.72,0.5-1.08,0.72c-0.07,0.07-0.22,0.14-0.29,0.22
							c-0.58,0.43-1.22,0.72-1.8,1.08c-0.36,0.22-0.65,0.36-1.01,0.58c-0.87,0.5-1.73,1.08-2.67,1.51
							c-0.14,0.07-0.22,0.14-0.36,0.22c-0.58,0.29-1.22,0.58-1.8,0.86c-0.22,0.07-0.43,0.14-0.65,0.29
							c-0.14,0.07-0.22,0.14-0.36,0.14c-1.08,0.5-2.23,1.01-3.31,1.44c-0.65,0.22-1.22,0.43-1.8,0.65c-0.14,0.07-0.29,0.14-0.5,0.14
							c-0.14,0.07-0.36,0.14-0.5,0.22c-0.72,0.22-1.44,0.5-2.16,0.72c-0.15,0.07-0.29,0.07-0.43,0.07
							c-1.01,0.29-1.94,0.58-3.03,0.79c-0.07,0-0.14,0.07-0.22,0.07c-0.14,0-0.22,0.07-0.29,0.07c-0.14,0.07-0.29,0.07-0.5,0.14
							c-0.29,0.07-0.58,0.14-0.94,0.22c-0.07,0-0.22,0-0.29,0.07c-0.14,0-0.29,0-0.36,0.07c-1.15,0.22-2.3,0.36-3.46,0.5
							c-0.22,0-0.36,0.07-0.58,0.07c-0.5,0.07-1.01,0.22-1.44,0.22h-0.07c-0.29,0.07-0.58,0.07-0.87,0.07
							c-0.29,0.07-0.65,0.07-1.01,0.07c-1.3,0.14-2.66,0.22-3.96,0.29c0,0,0,0-0.07,0h-0.43c-0.07,0-0.07,0-0.14,0h-2.02
							c-0.94-0.07-1.94-0.14-2.88-0.22c-1.01-0.07-1.94-0.07-2.95-0.22c-0.94-0.07-1.87-0.29-2.88-0.43
							c-0.36-0.07-0.79-0.07-1.15-0.14c-0.72-0.14-1.37-0.22-2.09-0.36c-0.86-0.14-1.66-0.43-2.52-0.65
							c-0.87-0.22-1.66-0.36-2.52-0.65c-0.29,0-0.65-0.14-0.94-0.22c-0.72-0.22-1.44-0.43-2.09-0.72c-0.07,0-0.07-0.07-0.15-0.07
							c-0.65-0.22-1.22-0.43-1.8-0.65c-0.07,0-0.14-0.07-0.14-0.07c-0.58-0.14-1.15-0.36-1.73-0.58c-0.51-0.29-1.15-0.58-1.73-0.86
							c-0.07,0-0.07-0.07-0.14-0.07c-1.22-0.58-2.52-1.08-3.75-1.8c-0.5-0.22-0.86-0.5-1.3-0.72c-1.08-0.58-2.09-1.15-3.1-1.87
							c-0.22-0.07-0.36-0.22-0.51-0.29c-0.22-0.14-0.43-0.22-0.58-0.36c0,0,0,0-0.07,0c-0.87-0.58-1.73-1.22-2.59-1.94
							c-1.22-0.79-2.38-1.73-3.46-2.74c-0.14-0.07-0.22-0.14-0.29-0.22c-0.43-0.36-0.79-0.72-1.22-1.15
							c-0.79-0.65-1.58-1.37-2.38-2.16c-0.07-0.07-0.07-0.07-0.14-0.14c-0.07-0.07-0.14-0.14-0.22-0.22
							c-6.55-6.7-11.38-14.4-14.55-22.69c-2.66-7.06-4.1-14.48-4.25-21.89h0.07v-0.07c-0.07-0.07-0.07-0.07,0-0.14
							C1095.8,303.2,1095.8,302.84,1095.73,302.48z"/>
					</g>
				</g>
			</g>
		</g>
	</g>
	<g>
		<path class="st2" d="M612.52,377.92c0,1.38-1.09,2.47-2.5,2.47c-1.4,0-2.51-1.09-2.51-2.47c0-1.35,1.12-2.44,2.51-2.44
			C611.43,375.48,612.52,376.57,612.52,377.92 M608.13,377.92c0,1.09,0.8,1.95,1.91,1.95c1.07,0,1.86-0.86,1.86-1.94
			c0-1.09-0.79-1.96-1.88-1.96S608.13,376.85,608.13,377.92 M609.63,379.2h-0.57v-2.44c0.22-0.04,0.54-0.07,0.94-0.07
			c0.46,0,0.67,0.07,0.85,0.18c0.13,0.1,0.24,0.3,0.24,0.54c0,0.27-0.21,0.48-0.51,0.57v0.03c0.24,0.09,0.37,0.27,0.45,0.6
			c0.07,0.37,0.12,0.52,0.18,0.61h-0.61c-0.07-0.09-0.12-0.31-0.19-0.59c-0.04-0.27-0.19-0.39-0.51-0.39h-0.27V379.2z
			 M609.65,377.82h0.27c0.31,0,0.56-0.1,0.56-0.36c0-0.22-0.16-0.37-0.52-0.37c-0.15,0-0.25,0.01-0.31,0.03V377.82z"/>
		<path class="st2" d="M576.57,331.99v1.38c0,0.2,0.04,0.34,0.17,0.34c0.14,0,0.17-0.15,0.17-0.34v-1.38h0.3v1.38
			c0,0.5-0.23,0.64-0.47,0.64s-0.47-0.11-0.47-0.64v-1.38H576.57z"/>
		<polygon class="st2" points="577.8,331.99 578.16,333.35 578.16,333.35 578.16,331.99 578.44,331.99 578.44,333.97 578.1,333.97 
			577.74,332.58 577.73,332.58 577.73,333.97 577.46,333.97 577.46,331.99 		"/>
		<rect x="578.72" y="331.99" class="st2" width="0.3" height="1.98"/>
		<polygon class="st2" points="579.51,331.99 579.72,333.45 579.73,333.45 579.95,331.99 580.25,331.99 579.91,333.97 
			579.54,333.97 579.2,331.99 		"/>
		<polygon class="st2" points="581.24,331.99 581.24,332.31 580.72,332.31 580.72,332.78 581.21,332.78 581.21,333.11 
			580.72,333.11 580.72,333.64 581.26,333.64 581.26,333.97 580.42,333.97 580.42,331.99 		"/>
		<path class="st2" d="M581.45,331.99H582c0.24,0,0.39,0.17,0.39,0.51c0,0.26-0.08,0.44-0.24,0.49v0c0.2,0.04,0.23,0.19,0.24,0.61
			c0,0.21,0.01,0.32,0.07,0.36v0.02h-0.32c-0.03-0.06-0.03-0.13-0.04-0.21l-0.01-0.38c0-0.15-0.06-0.25-0.17-0.25h-0.16v0.84h-0.3
			V331.99z M581.75,332.85h0.12c0.14,0,0.22-0.08,0.22-0.3c0-0.18-0.07-0.28-0.21-0.28h-0.14V332.85z"/>
		<path class="st2" d="M582.87,333.35v0.06c0,0.19,0.04,0.31,0.19,0.31c0.09,0,0.18-0.08,0.18-0.24c0-0.18-0.07-0.25-0.26-0.34
			c-0.26-0.12-0.38-0.27-0.38-0.6c0-0.39,0.17-0.58,0.45-0.58c0.26,0,0.45,0.15,0.45,0.53v0.06h-0.28c0-0.19-0.05-0.29-0.16-0.29
			c-0.13,0-0.17,0.11-0.17,0.23c0,0.12,0.03,0.2,0.15,0.27l0.23,0.13c0.22,0.13,0.28,0.28,0.28,0.53c0,0.42-0.19,0.61-0.51,0.61
			c-0.33,0-0.47-0.21-0.47-0.58v-0.08H582.87z"/>
		<rect x="583.77" y="331.99" class="st2" width="0.3" height="1.98"/>
		<path class="st2" d="M584.36,331.99h0.48c0.41,0,0.49,0.38,0.49,0.96c0,0.7-0.11,1.02-0.5,1.02h-0.47V331.99z M584.66,333.68h0.13
			c0.21,0,0.25-0.17,0.25-0.71c0-0.45-0.03-0.68-0.25-0.68h-0.13V333.68z"/>
		<path class="st2" d="M585.78,331.99h0.37l0.39,1.98h-0.31l-0.07-0.42h-0.39l-0.07,0.42h-0.31L585.78,331.99z M585.82,333.22h0.29
			l-0.14-0.89h0L585.82,333.22z"/>
		<path class="st2" d="M586.69,331.99h0.49c0.41,0,0.49,0.38,0.49,0.96c0,0.7-0.11,1.02-0.5,1.02h-0.47V331.99z M586.99,333.68h0.13
			c0.21,0,0.25-0.17,0.25-0.71c0-0.45-0.03-0.68-0.25-0.68h-0.13V333.68z"/>
		<path class="st2" d="M588.67,331.99h0.36l0.39,1.98h-0.31l-0.07-0.42h-0.39l-0.07,0.42h-0.31L588.67,331.99z M588.71,333.22H589
			l-0.14-0.89h0L588.71,333.22z"/>
		<path class="st2" d="M589.84,331.99v1.38c0,0.2,0.04,0.34,0.17,0.34c0.14,0,0.17-0.15,0.17-0.34v-1.38h0.3v1.38
			c0,0.5-0.23,0.64-0.47,0.64c-0.24,0-0.47-0.11-0.47-0.64v-1.38H589.84z"/>
		<polygon class="st2" points="591.59,331.99 591.59,332.31 591.27,332.31 591.27,333.97 590.98,333.97 590.98,332.31 
			590.66,332.31 590.66,331.99 		"/>
		<path class="st2" d="M592.23,331.95c0.44,0,0.5,0.43,0.5,1.03c0,0.6-0.06,1.03-0.5,1.03c-0.44,0-0.5-0.43-0.5-1.03
			C591.73,332.38,591.78,331.95,592.23,331.95 M592.23,333.72c0.17,0,0.2-0.2,0.2-0.74c0-0.53-0.03-0.74-0.2-0.74
			c-0.17,0-0.2,0.21-0.2,0.74C592.02,333.51,592.05,333.72,592.23,333.72"/>
		<polygon class="st2" points="593.28,331.99 593.64,333.35 593.64,333.35 593.64,331.99 593.92,331.99 593.92,333.97 
			593.58,333.97 593.22,332.58 593.21,332.58 593.21,333.97 592.94,333.97 592.94,331.99 		"/>
		<path class="st2" d="M594.63,331.95c0.44,0,0.5,0.43,0.5,1.03c0,0.6-0.06,1.03-0.5,1.03c-0.44,0-0.5-0.43-0.5-1.03
			C594.13,332.38,594.19,331.95,594.63,331.95 M594.63,333.72c0.17,0,0.2-0.2,0.2-0.74c0-0.53-0.03-0.74-0.2-0.74
			c-0.17,0-0.2,0.21-0.2,0.74C594.43,333.51,594.45,333.72,594.63,333.72"/>
		<polygon class="st2" points="595.35,331.99 595.79,331.99 596,333.39 596,333.39 596.21,331.99 596.65,331.99 596.65,333.97 
			596.38,333.97 596.38,332.39 596.37,332.39 596.11,333.97 595.88,333.97 595.62,332.39 595.62,332.39 595.62,333.97 
			595.35,333.97 		"/>
		<path class="st2" d="M597.19,331.99h0.37l0.39,1.98h-0.31l-0.07-0.42h-0.39l-0.07,0.42h-0.31L597.19,331.99z M597.23,333.22h0.29
			l-0.14-0.89h0L597.23,333.22z"/>
		<path class="st2" d="M598.58,331.99h0.48c0.41,0,0.49,0.38,0.49,0.96c0,0.7-0.11,1.02-0.5,1.02h-0.47V331.99z M598.88,333.68h0.13
			c0.2,0,0.25-0.17,0.25-0.71c0-0.45-0.03-0.68-0.25-0.68h-0.12V333.68z"/>
		<polygon class="st2" points="600.59,331.99 600.59,332.31 600.06,332.31 600.06,332.78 600.56,332.78 600.56,333.11 
			600.06,333.11 600.06,333.64 600.61,333.64 600.61,333.97 599.77,333.97 599.77,331.99 		"/>
		<path class="st2" d="M602.12,334.22l-0.17-0.24c-0.03,0.01-0.06,0.03-0.09,0.03c-0.03,0.01-0.07,0.01-0.1,0.01
			c-0.44,0-0.5-0.43-0.5-1.03c0-0.6,0.06-1.03,0.5-1.03c0.44,0,0.5,0.43,0.5,1.03c0,0.34-0.02,0.62-0.11,0.81l0.16,0.22
			L602.12,334.22z M601.75,333.72c0.17,0,0.2-0.2,0.2-0.74c0-0.53-0.03-0.74-0.2-0.74c-0.17,0-0.2,0.21-0.2,0.74
			C601.55,333.51,601.58,333.72,601.75,333.72"/>
		<path class="st2" d="M602.76,331.99v1.38c0,0.2,0.04,0.34,0.17,0.34c0.14,0,0.17-0.15,0.17-0.34v-1.38h0.3v1.38
			c0,0.5-0.23,0.64-0.47,0.64s-0.47-0.11-0.47-0.64v-1.38H602.76z"/>
		<polygon class="st2" points="604.45,331.99 604.45,332.31 603.93,332.31 603.93,332.78 604.42,332.78 604.42,333.11 
			603.93,333.11 603.93,333.64 604.47,333.64 604.47,333.97 603.63,333.97 603.63,331.99 		"/>
		<path class="st2" d="M604.68,331.99h0.55c0.24,0,0.39,0.17,0.39,0.51c0,0.26-0.08,0.44-0.24,0.49v0c0.2,0.04,0.23,0.19,0.23,0.61
			c0,0.21,0.01,0.32,0.07,0.36v0.02h-0.32c-0.03-0.06-0.03-0.13-0.04-0.21l-0.01-0.38c-0.01-0.15-0.06-0.25-0.17-0.25h-0.16v0.84
			h-0.3V331.99z M604.97,332.85h0.12c0.14,0,0.22-0.08,0.22-0.3c0-0.18-0.07-0.28-0.2-0.28h-0.14V332.85z"/>
		<polygon class="st2" points="606.68,331.99 606.68,332.31 606.16,332.31 606.16,332.78 606.65,332.78 606.65,333.11 
			606.16,333.11 606.16,333.64 606.7,333.64 606.7,333.97 605.86,333.97 605.86,331.99 		"/>
		<polygon class="st2" points="607.77,331.99 607.77,332.31 607.45,332.31 607.45,333.97 607.15,333.97 607.15,332.31 
			606.83,332.31 606.83,331.99 		"/>
		<path class="st2" d="M608.11,331.99h0.37l0.39,1.98h-0.31l-0.07-0.42h-0.39l-0.07,0.42h-0.31L608.11,331.99z M608.15,333.22h0.29
			l-0.14-0.89h0L608.15,333.22z"/>
		<path class="st2" d="M609,331.99h0.55c0.24,0,0.39,0.17,0.39,0.51c0,0.26-0.08,0.44-0.24,0.49v0c0.2,0.04,0.23,0.19,0.24,0.61
			c0,0.21,0.01,0.32,0.07,0.36v0.02h-0.32c-0.03-0.06-0.04-0.13-0.04-0.21l-0.01-0.38c0-0.15-0.06-0.25-0.17-0.25h-0.16v0.84H609
			V331.99z M609.3,332.85h0.12c0.14,0,0.22-0.08,0.22-0.3c0-0.18-0.07-0.28-0.21-0.28h-0.14V332.85z"/>
		<path class="st2" d="M610.61,331.95c0.44,0,0.5,0.43,0.5,1.03c0,0.6-0.06,1.03-0.5,1.03c-0.44,0-0.5-0.43-0.5-1.03
			C610.11,332.38,610.17,331.95,610.61,331.95 M610.61,333.72c0.17,0,0.2-0.2,0.2-0.74c0-0.53-0.03-0.74-0.2-0.74
			c-0.17,0-0.2,0.21-0.2,0.74C610.41,333.51,610.43,333.72,610.61,333.72"/>
		<polygon class="st2" points="576.7,342.45 577.53,342.45 577.53,343.61 577.96,343.61 577.96,342.45 578.78,342.45 578.78,343.61 
			579.2,343.61 579.2,342.03 576.28,342.03 576.28,343.61 576.7,343.61 		"/>
		<path class="st2" d="M576.52,346.44c0.13,0.19,0.31,0.33,0.52,0.43c0.21,0.1,0.45,0.15,0.7,0.15c0.23,0,0.45-0.05,0.65-0.14
			c0.2-0.09,0.38-0.22,0.52-0.39c0.1-0.12,0.18-0.26,0.22-0.42c0.02-0.08,0.04-0.17,0.05-0.26c0.01-0.09,0.02-0.19,0.02-0.3v-0.86
			h-2.92v0.74c0,0.29,0.02,0.5,0.06,0.64C576.37,346.18,576.43,346.32,576.52,346.44 M578.78,345.08v0.42
			c0,0.21-0.02,0.36-0.05,0.46c-0.03,0.1-0.08,0.19-0.15,0.27c-0.1,0.11-0.22,0.2-0.36,0.26c-0.14,0.06-0.3,0.09-0.47,0.09
			c-0.34,0-0.61-0.09-0.79-0.27c-0.18-0.17-0.28-0.43-0.28-0.75v-0.49H578.78z"/>
		<path class="st2" d="M576.51,349.57c0.19,0.15,0.48,0.23,0.85,0.23h1.84v-0.42h-1.77c-0.28,0-0.49-0.04-0.62-0.14
			c-0.12-0.09-0.18-0.22-0.18-0.4c0-0.11,0.03-0.2,0.08-0.28c0.05-0.08,0.12-0.15,0.22-0.19c0.03-0.01,0.05-0.02,0.07-0.03
			c0.03-0.01,0.05-0.01,0.08-0.02c0.06-0.01,0.16-0.01,0.29-0.01h1.83v-0.42h-1.84c-0.38,0-0.67,0.08-0.86,0.23
			c-0.19,0.16-0.29,0.41-0.29,0.74C576.22,349.17,576.32,349.41,576.51,349.57"/>
		<path class="st2" d="M578.36,353.02l-0.03,0.02v0.49l0.11-0.06c0.26-0.13,0.46-0.32,0.6-0.55c0.14-0.23,0.21-0.49,0.21-0.78
			c0-0.2-0.04-0.39-0.11-0.56c-0.07-0.17-0.18-0.33-0.31-0.46c-0.15-0.15-0.31-0.26-0.49-0.34c-0.18-0.08-0.38-0.11-0.58-0.11
			c-0.43,0-0.8,0.14-1.09,0.43c-0.29,0.28-0.44,0.64-0.44,1.06c0,0.27,0.07,0.53,0.2,0.75c0.14,0.22,0.33,0.4,0.57,0.53l0.11,0.06
			v-0.48l-0.03-0.02c-0.15-0.11-0.26-0.23-0.33-0.38c-0.07-0.14-0.11-0.3-0.11-0.48c0-0.29,0.1-0.53,0.32-0.73
			c0.21-0.2,0.48-0.3,0.79-0.3c0.3,0,0.55,0.1,0.76,0.31c0.22,0.2,0.32,0.44,0.32,0.73c0,0.18-0.04,0.34-0.12,0.49
			C578.64,352.77,578.52,352.9,578.36,353.02"/>
		<path class="st2" d="M576.72,356.84c0.14,0.13,0.3,0.22,0.47,0.29c0.17,0.06,0.36,0.1,0.56,0.1c0.21,0,0.4-0.04,0.58-0.11
			c0.18-0.07,0.35-0.19,0.49-0.33c0.14-0.15,0.25-0.31,0.32-0.48c0.07-0.17,0.11-0.36,0.11-0.56c0-0.2-0.04-0.38-0.11-0.56
			c-0.07-0.17-0.18-0.33-0.32-0.47c-0.14-0.15-0.31-0.26-0.49-0.34c-0.18-0.08-0.38-0.12-0.58-0.12c-0.43,0-0.8,0.14-1.09,0.43
			c-0.29,0.28-0.44,0.63-0.44,1.05c0,0.21,0.04,0.42,0.13,0.6C576.43,356.53,576.56,356.7,576.72,356.84 M576.64,355.76
			c0-0.3,0.1-0.55,0.32-0.75c0.22-0.21,0.48-0.31,0.8-0.31c0.16,0,0.31,0.04,0.47,0.11c0.15,0.07,0.28,0.17,0.38,0.29
			c0.08,0.09,0.14,0.19,0.18,0.3c0.04,0.11,0.06,0.22,0.06,0.34c0,0.29-0.1,0.54-0.32,0.75c-0.22,0.21-0.46,0.31-0.76,0.31
			c-0.32,0-0.59-0.1-0.8-0.3C576.74,356.29,576.64,356.05,576.64,355.76"/>
		<polygon class="st2" points="576.69,360.37 577.52,360.35 577.55,361.51 577.98,361.5 577.95,360.34 578.77,360.32 578.8,361.48 
			579.22,361.46 579.18,359.89 576.26,359.96 576.3,361.54 576.72,361.53 		"/>
		<polygon class="st2" points="579.58,364.1 577.38,364.54 579.33,362.76 579.25,362.33 576.38,362.86 576.45,363.27 578.66,362.83 
			576.7,364.61 576.78,365.05 579.65,364.51 		"/>
		<polygon class="st2" points="580.72,367.2 580.52,366.83 577.95,368.22 578.61,369.44 578.98,369.24 578.52,368.39 		"/>
		<path class="st2" d="M579.04,370.17l0.28,0.35l0.88-0.29l0.7,0.87l-0.47,0.8l0.28,0.35l1.56-2.71l-0.27-0.33L579.04,370.17z
			 M581.72,369.71l-0.6,1.01l-0.52-0.64L581.72,369.71z"/>
		<polygon class="st2" points="586.01,372.86 584.04,374.18 584.68,371.9 584.33,371.65 583.51,374.66 583.77,374.85 586.36,373.11 
					"/>
		<polygon class="st2" points="587.03,373.92 588.05,374.47 588.25,374.1 586.85,373.35 585.48,375.93 586.87,376.67 587.07,376.31 
			586.05,375.76 586.44,375.02 587.46,375.57 587.66,375.19 586.64,374.65 		"/>
		<path class="st2" d="M590.4,375.22c-0.06-0.09-0.13-0.17-0.22-0.23c-0.09-0.06-0.2-0.13-0.37-0.19l-0.75-0.31l-1.11,2.7l0.39,0.16
			l0.95-2.31l0.3,0.12c0.17,0.07,0.29,0.13,0.35,0.17c0.05,0.04,0.09,0.09,0.12,0.14c0.03,0.07,0.05,0.15,0.05,0.22
			c0,0.08-0.02,0.16-0.05,0.23c-0.05,0.13-0.14,0.22-0.26,0.26c-0.12,0.05-0.25,0.04-0.4-0.02l-0.36-0.15l0.28,1.72l0.46,0.19
			l-0.21-1.27c0.06,0.01,0.12,0.01,0.18,0.01c0.1-0.01,0.2-0.05,0.3-0.1c0.19-0.1,0.33-0.26,0.42-0.48c0.06-0.14,0.08-0.3,0.07-0.45
			C590.52,375.48,590.47,375.34,590.4,375.22"/>
		<path class="st2" d="M593.26,376.15c-0.1-0.12-0.22-0.22-0.37-0.3c-0.07-0.04-0.16-0.07-0.24-0.1c-0.09-0.03-0.19-0.05-0.3-0.07
			l-0.84-0.16l-0.56,2.87l0.72,0.14c0.24,0.05,0.43,0.07,0.57,0.07c0.02,0,0.05,0,0.07,0c0.15-0.01,0.3-0.05,0.43-0.11
			c0.21-0.1,0.38-0.24,0.52-0.43c0.14-0.19,0.23-0.41,0.28-0.66c0.04-0.23,0.04-0.45-0.01-0.66
			C593.49,376.51,593.39,376.32,593.26,376.15 M592.26,376.08c0.2,0.04,0.35,0.08,0.44,0.14c0.09,0.05,0.17,0.12,0.24,0.2
			c0.09,0.12,0.15,0.25,0.18,0.4c0.03,0.15,0.03,0.32,0,0.48c-0.07,0.33-0.2,0.58-0.41,0.72c-0.21,0.14-0.47,0.19-0.79,0.12
			l-0.48-0.09l0.4-2.06L592.26,376.08z"/>
		<path class="st2" d="M594.95,375.73l-0.36,3.11l0.43-0.11l0.1-0.92l1.08-0.28l0.53,0.76l0.44-0.11l-1.81-2.55L594.95,375.73z
			 M595.96,377.17l-0.79,0.2l0.12-1.17L595.96,377.17z"/>
		<path class="st2" d="M599.31,374.99c-0.16-0.15-0.35-0.26-0.56-0.32c-0.15-0.05-0.31-0.06-0.47-0.04
			c-0.08,0.01-0.17,0.03-0.26,0.05c-0.09,0.03-0.18,0.06-0.29,0.1l-0.79,0.34l1.15,2.69l0.68-0.29c0.26-0.11,0.45-0.21,0.57-0.3
			c0.12-0.09,0.22-0.2,0.3-0.33c0.12-0.19,0.18-0.41,0.19-0.65c0.01-0.23-0.04-0.47-0.14-0.7
			C599.6,375.32,599.47,375.14,599.31,374.99 M599.35,376.53c-0.09,0.24-0.29,0.42-0.59,0.55l-0.45,0.19l-0.82-1.93l0.39-0.17
			c0.19-0.08,0.34-0.13,0.44-0.14c0.11-0.01,0.21,0,0.31,0.03c0.14,0.05,0.27,0.12,0.38,0.23c0.11,0.11,0.2,0.24,0.27,0.4
			C599.42,376.01,599.44,376.29,599.35,376.53"/>
		<polygon class="st2" points="602.81,371.93 602.42,372.2 602.64,373.69 601.33,372.95 600.94,373.23 602.75,374.21 603.36,375.1 
			603.71,374.86 603.09,373.98 		"/>
		<polygon class="st2" points="606.56,371.81 605.93,371.25 606.7,370.39 606.38,370.11 605.62,370.97 605,370.43 605.77,369.56 
			605.45,369.28 604.41,370.46 606.59,372.4 607.64,371.22 607.33,370.94 		"/>
		<polygon class="st2" points="606.87,367.08 608.83,368.18 606.18,368.26 605.96,368.65 608.49,370.11 608.7,369.75 606.74,368.64 
			609.38,368.57 609.6,368.19 607.08,366.72 		"/>
		<polygon class="st2" points="610.41,364.47 609.59,364.3 609.81,363.17 609.4,363.09 609.18,364.22 608.37,364.06 608.59,362.93 
			608.18,362.85 607.87,364.4 610.74,364.96 611.04,363.41 610.64,363.33 		"/>
		<polygon class="st2" points="610.78,361.68 608.28,361.54 608.26,361.96 611.18,362.12 611.25,360.74 610.84,360.71 		"/>
		<polygon class="st2" points="608.31,357.55 608.31,357.97 611.23,357.97 611.23,357.55 609.97,357.55 609.97,356.4 611.23,356.4 
			611.23,355.98 608.31,355.98 608.31,356.4 609.55,356.4 609.55,357.55 		"/>
		<path class="st2" d="M610.79,352.48c-0.14-0.13-0.3-0.22-0.47-0.29c-0.35-0.13-0.79-0.13-1.15,0.02
			c-0.18,0.07-0.34,0.19-0.49,0.33c-0.14,0.14-0.25,0.31-0.32,0.48c-0.07,0.17-0.11,0.36-0.11,0.56c0,0.2,0.04,0.38,0.11,0.56
			c0.07,0.17,0.18,0.33,0.32,0.47c0.14,0.15,0.31,0.26,0.49,0.34c0.18,0.08,0.38,0.12,0.58,0.12c0.43,0,0.8-0.14,1.09-0.42
			c0.29-0.28,0.44-0.64,0.44-1.05c0-0.21-0.04-0.42-0.13-0.6C611.08,352.8,610.95,352.63,610.79,352.48 M609.76,354.63
			c-0.16,0-0.31-0.04-0.46-0.11c-0.15-0.07-0.28-0.17-0.38-0.29c-0.08-0.09-0.14-0.19-0.18-0.3c-0.04-0.11-0.06-0.22-0.06-0.34
			c0-0.29,0.1-0.54,0.32-0.75c0.22-0.21,0.46-0.31,0.76-0.31c0.32,0,0.59,0.1,0.8,0.3c0.22,0.2,0.32,0.44,0.32,0.74
			c0,0.3-0.1,0.55-0.32,0.75C610.34,354.53,610.08,354.63,609.76,354.63"/>
		<polygon class="st2" points="611.23,348.97 608.31,348.97 608.31,349.39 610.56,349.36 608.31,350.75 608.31,351.19 
			611.23,351.19 611.23,350.78 608.98,350.81 611.23,349.42 		"/>
		<path class="st2" d="M608.68,347.6c0.14,0.15,0.31,0.26,0.49,0.34c0.18,0.08,0.38,0.12,0.58,0.12c0.43,0,0.8-0.14,1.09-0.42
			c0.29-0.28,0.44-0.64,0.44-1.05c0-0.21-0.04-0.42-0.13-0.6c-0.08-0.19-0.21-0.35-0.37-0.5c-0.14-0.13-0.3-0.22-0.47-0.29
			c-0.35-0.13-0.79-0.13-1.15,0.02c-0.18,0.07-0.34,0.19-0.49,0.33c-0.14,0.14-0.25,0.31-0.32,0.48c-0.07,0.17-0.11,0.36-0.11,0.56
			c0,0.2,0.04,0.38,0.11,0.56C608.43,347.31,608.54,347.47,608.68,347.6 M609.76,347.62c-0.16,0-0.31-0.04-0.46-0.11
			c-0.15-0.07-0.28-0.17-0.38-0.29c-0.08-0.09-0.14-0.19-0.18-0.3c-0.04-0.11-0.06-0.22-0.06-0.34c0-0.29,0.1-0.54,0.32-0.75
			c0.22-0.21,0.46-0.31,0.76-0.31c0.32,0,0.59,0.1,0.8,0.3c0.22,0.2,0.32,0.44,0.32,0.74c0,0.3-0.1,0.55-0.32,0.75
			C610.34,347.52,610.08,347.62,609.76,347.62"/>
		<path class="st2" d="M611.23,343.8h-2.5v-0.32c0-0.19,0.01-0.32,0.03-0.39c0.02-0.07,0.05-0.12,0.09-0.16
			c0.06-0.06,0.12-0.1,0.19-0.13c0.07-0.03,0.15-0.04,0.23-0.04c0.14,0,0.25,0.04,0.34,0.14c0.09,0.1,0.13,0.22,0.13,0.37v0.39
			l1.49-0.91v-0.5l-1.09,0.67c-0.01-0.06-0.03-0.12-0.06-0.17c-0.05-0.09-0.12-0.17-0.2-0.24c-0.17-0.14-0.37-0.21-0.6-0.21
			c-0.16,0-0.31,0.04-0.45,0.1c-0.14,0.07-0.26,0.16-0.34,0.28c-0.06,0.09-0.11,0.19-0.13,0.29c-0.03,0.1-0.04,0.24-0.04,0.41v0.81
			h2.92V343.8z"/>
		<path class="st2" d="M584.78,345.89c0.03,0.65-0.22,1.13-0.55,1.48c-0.31,0.34-0.76,0.61-1.37,0.63c-0.66,0.04-1.12-0.2-1.48-0.53
			c-0.35-0.32-0.61-0.75-0.65-1.37c-0.04-0.63,0.23-1.14,0.53-1.47c0.33-0.35,0.75-0.6,1.38-0.63c0.66-0.04,1.15,0.22,1.49,0.52
			C584.46,344.84,584.76,345.28,584.78,345.89"/>
		<path class="st2" d="M592.74,342.78c0,0-0.81-0.26-0.9-0.29c0.3-0.27,0.5-0.63,0.59-1.03c0.12-0.46,0.07-1.03-0.13-1.53
			c-0.34-0.81-1.01-1.34-1.96-1.54c0.17-0.66,0.16-1.52-0.25-2.02c-0.23-0.27-0.56-0.4-0.95-0.37c-0.49,0.05-0.9,0.25-1.29,0.64
			c-0.26,0.26-0.45,0.51-0.6,0.79c-0.03,0.04-0.16,0.28-0.16,0.28s-0.34,0.16-0.41,0.19c-0.06,0.03-0.33,0.18-0.33,0.18
			s-0.1-0.21-0.17-0.3l-0.04-0.05c-0.3-0.38-0.66-0.7-1.02-0.91c-0.4-0.24-0.75-0.32-1.04-0.24c-0.35,0.08-0.5,0.36-0.61,0.65
			c-0.59-0.18-1.46-0.27-2.13-0.09l-0.04,0.01c0,0-0.01,0.07-0.02,0.08c-0.01,0.06-0.03,0.15,0.01,0.22
			c0.04,0.06,0.29,0.09,0.29,0.09c0.19,0.01,0.28,0.04,0.46,0.1c0,0,0.17,0.03,0.2,0.05c0.02,0.01,0.09,0.1,0.09,0.1
			c0.2,0.2,0.5,0.35,0.76,0.49c0,0,0.19,0.09,0.19,0.1c0,0,0.07,0.05,0.11,0.11c0.11,0.13,0.24,0.26,0.39,0.31
			c0.27,0.11,0.55,0.04,0.75-0.04c0.15,0.17,0.48,0.45,0.94,0.38c-0.06,0.25-0.06,0.54,0.02,0.87v0.03c0.01,0.09,0.01,0.17,0,0.26
			c0,0.07-0.01,0.14,0,0.22c-0.06,0.09-0.21,0.3-0.23,0.33c-0.06,0.08-0.14,0.19-0.14,0.28c0,0.12,0.09,0.25,0.19,0.31
			c0.05,0.03,0.11,0.04,0.16,0.05c0.06,0.01,0.12,0.03,0.16,0.07c0.04,0.03,0.06,0.23,0.06,0.26c-0.04,0.01-0.16,0.06-0.25,0.14
			c-0.08,0.06-0.13,0.15-0.15,0.18c-0.06,0.11-0.09,0.25-0.11,0.37c-0.09,0.37-0.14,0.91-0.11,1.33c0.02,0.27,0.1,0.45,0.2,0.65
			c0.01,0.03,0.03,0.06,0.05,0.08c0.02,0.02,0.04,0.05,0.04,0.07l0,0.02c0.01,0.03,0,0.1-0.01,0.16c0,0.04-0.01,0.07-0.01,0.11
			c-0.07,0.67-0.13,1.39-0.17,2.06c-0.07,0.05-0.13,0.09-0.2,0.14c-0.11,0.07-0.36,0.26-0.36,0.26s0.11,0.4,0.16,0.57
			c-0.06,0.06-0.4,0.44-0.4,0.44s0.27,0.4,0.39,0.58c0.18,0.27,0.59,0.87,0.59,0.87s0.17-0.01,0.24,0
			c-0.01,0.03-0.17,0.34-0.17,0.34l0.11,0.16c0,0,0.32,0.13,0.41,0.17c0,0.26,0.01,0.84,0.01,0.84s0.64-0.1,0.78-0.12l0.52,0.49
			l0.53-0.49l0.88,0c0,0,0.07-0.32,0.09-0.41c0.06-0.02,0.35,0.01,0.44-0.01c0.06-0.01,0.13-0.06,0.21-0.15
			c0.19-0.19,0.29-0.42,0.3-0.65c0-0.02,0-0.09,0-0.09l0.06,0.03c0,0,1.95,0.03,2.03-0.02c0.12-0.07,0.1-0.27,0.07-0.4
			c0,0-0.08-0.29-0.17-0.32c-0.12-0.03-0.46-0.1-0.51-0.11c-0.13-0.03-0.23-0.11-0.32-0.25c-0.18-0.24-0.19-0.51-0.19-1.01
			c0-0.34,0-0.7,0.01-1.06c0-0.37,0.01-1.19,0.01-1.23c0-0.08,0.01-0.15-0.01-0.22c-0.01-0.04-0.09-0.16-0.1-0.18
			c-0.14-0.2-0.29-0.32-0.43-0.36c-0.08-0.03-1.52-0.24-1.57-0.26c0-0.01,0.11-0.5,0.13-0.7l0.12-0.81l2.63,0.32l0.25,1.29
			l0.36,0.02l0.3-0.75c0,0,0.28,0.05,0.38,0C592.95,343.85,592.74,342.78,592.74,342.78 M589.41,338.58
			c1.19-0.06,2.07,0.47,2.52,1.21c0.24,0.38,0.4,0.93,0.29,1.5c-0.11,0.49-0.39,0.85-0.73,1.13c-0.12-0.04-0.23-0.08-0.36-0.1
			c0.2-0.34,0.42-0.67,0.48-1.17c0.06-0.54-0.11-0.95-0.37-1.25c-0.5-0.59-1.33-0.89-2.3-0.99c0.02-0.1,0.03-0.18,0.04-0.28
			C589.13,338.6,589.26,338.58,589.41,338.58 M589.54,340.43c-0.24-0.36-0.63-0.59-1.07-0.73c0.07-0.1,0.12-0.25,0.19-0.34
			c0.53,0.06,0.99,0.23,1.33,0.51c0.33,0.27,0.61,0.68,0.61,1.23c0,0.41-0.14,0.71-0.3,0.99c-0.19-0.06-0.38-0.12-0.56-0.17
			C589.86,341.35,589.77,340.78,589.54,340.43 M588.86,341.66c-0.16-0.05-0.3-0.1-0.45-0.16c-0.03-0.35-0.11-0.64-0.25-0.89
			c0.03-0.08,0.1-0.15,0.15-0.21C588.68,340.63,588.87,341.04,588.86,341.66 M588.79,337.43c0.39-0.03,0.43,0.5,0.36,0.89
			c-0.09,0.02-0.21,0.01-0.32,0.01c-0.05-0.3-0.29-0.39-0.54-0.48C588.38,337.66,588.52,337.45,588.79,337.43 M587.94,338.43
			c0.15,0.08,0.25,0.23,0.46,0.22c0.05-0.11-0.04-0.2-0.1-0.27c-0.08-0.06-0.17-0.12-0.25-0.17c0.04-0.08,0.09-0.13,0.13-0.21
			c0,0,0,0,0,0.01c0.2,0.08,0.42,0.23,0.46,0.48c0.02,0.21-0.1,0.38-0.33,0.36c-0.19-0.02-0.31-0.16-0.43-0.26
			C587.91,338.54,587.92,338.48,587.94,338.43 M587.56,339.27c0.07,0.02,0.12,0.06,0.21,0.09c0.07,0.02,0.22,0.05,0.24-0.02
			c0.03-0.06-0.1-0.13-0.15-0.17c-0.08-0.04-0.14-0.07-0.23-0.09c0.03-0.06,0.05-0.14,0.07-0.19c0.24,0.03,0.47,0.15,0.5,0.39
			c0.06,0.39-0.45,0.38-0.7,0.25C587.52,339.43,587.54,339.35,587.56,339.27 M587.37,340.1c0.11,0.02,0.26,0.09,0.39,0.06
			c0.15-0.02,0.08-0.11,0-0.17c-0.09-0.06-0.23-0.07-0.36-0.08c0.02-0.07,0.04-0.12,0.06-0.18c0.01-0.01,0.01-0.01,0.02-0.01
			c0.32-0.01,0.54,0.1,0.54,0.35c0,0.31-0.42,0.35-0.68,0.21C587.35,340.21,587.37,340.16,587.37,340.1 M587.3,340.51
			C587.3,340.51,587.31,340.5,587.3,340.51c0.15,0.11,0.37,0.14,0.61,0.14c0.13,0.21,0.24,0.45,0.26,0.78
			c-0.19-0.01-0.31,0.04-0.4,0.14C587.47,341.36,587.26,341.04,587.3,340.51 M584.45,338.14c-0.39,0.04-0.72-0.26-0.72-0.64
			c0-0.18,0.1-0.32,0.2-0.42c0.1-0.1,0.24-0.22,0.44-0.21c0.51,0.02,0.85,0.27,1.15,0.52c0.29,0.25,0.56,0.52,0.67,0.91
			c0.01,0.02,0.02,0.07,0.02,0.07s-0.25-0.19-0.35-0.27c-0.21-0.17-0.44-0.32-0.76-0.37C584.9,337.91,584.74,338.12,584.45,338.14
			 M585.23,338.21c-0.09-0.08-0.2-0.2-0.04-0.25c0.35,0.1,0.6,0.3,0.85,0.52C585.74,338.58,585.41,338.38,585.23,338.21
			 M585.46,341.18c0-0.03,0.05-0.12,0.09-0.16c0.09-0.14,0.21-0.31,0.28-0.43c0-0.18-0.01-0.37-0.01-0.55
			c0.12,0,0.22-0.01,0.32-0.01c0.1-0.01,0.2-0.03,0.29-0.04c0.11,0,0.27,0.08,0.37,0.13c0.12,0.06,0.24,0.11,0.34,0.15
			c-0.22,0.62,0.08,1.25,0.49,1.46c-0.1,0.43-0.29,0.76-0.54,1.02c-0.05-0.15-0.14-0.26-0.26-0.34c0-0.09,0-0.14,0-0.22
			c-0.23,0.02-0.48,0.06-0.63-0.05c-0.04-0.03-0.13-0.14-0.16-0.18c-0.03-0.08-0.05-0.2-0.08-0.31c-0.02-0.12-0.06-0.23-0.06-0.34
			C585.79,341.31,585.48,341.3,585.46,341.18 M585.72,342.1c0.16,0.05,0.23,0.17,0.37,0.22c0.07,0.02,0.15,0.02,0.24,0.04
			c0.31,0.06,0.58,0.32,0.57,0.7c0,0.05-0.08,0.29,0.01,0.32c0.07,0.02,0.13-0.08,0.16-0.15c0.18-0.35,0.37-0.64,0.57-0.97
			c0.03-0.06,0.06-0.13,0.09-0.2c0.03-0.08,0.05-0.15,0.08-0.23c0.07-0.08,0.18-0.16,0.24-0.21c0.26,0.03,0.48,0.11,0.63,0.24
			c-0.1,0.24-0.3,0.38-0.47,0.55c-0.27,0.07-0.32,0.37-0.4,0.67c-0.08,0.35-0.16,0.67-0.27,1.02c-0.07,0.24-0.14,0.51-0.47,0.47
			c-0.04-0.01-0.09-0.03-0.11-0.04c-0.14-0.06-0.25-0.15-0.36-0.24c-0.26-0.21-0.46-0.49-0.61-0.85c-0.02-0.05-0.05-0.17-0.08-0.2
			c-0.09-0.07-0.37,0.01-0.51-0.03C585.42,342.75,585.53,342.38,585.72,342.1 M588.34,344.07c-0.2-0.01-0.4,0-0.6-0.02
			c0.07-0.17,0.12-0.33,0.2-0.47h0.58C588.5,343.78,588.44,343.96,588.34,344.07 M588.35,344.56c0,0.09-0.06,0.25-0.09,0.27
			c-0.25,0.01-0.5,0-0.75,0c0-0.01,0.04-0.14,0.05-0.17c0.02-0.03,0.06-0.07,0.09-0.09C587.85,344.54,588.11,344.57,588.35,344.56
			 M585.7,344.56h0.39c0.13,0,0.26,0,0.37,0.02c0.05,0.01,0.12,0.07,0.15,0.09c0.05,0.04,0.11,0.16,0.11,0.16c-0.21,0-0.57,0-0.84,0
			c-0.08,0-0.18-0.08-0.21-0.17C585.67,344.62,585.68,344.59,585.7,344.56 M585.5,344.15c-0.13-0.1-0.08-0.36-0.07-0.58
			c0-0.01,0-0.02,0.01-0.03h0.38c0.09,0.22,0.18,0.42,0.3,0.6H585.5z M589.77,349.24c-0.02,0.11-0.08,0.2-0.1,0.31
			c-0.03-0.14-0.08-0.28-0.14-0.41c-0.05-0.11-0.12-0.22-0.14-0.34c-0.02-0.17-0.01-0.56-0.27-0.56c-0.33,0-0.65,0.1-0.98,0.02
			c-0.34-0.08-0.66-0.31-1.01-0.32c0.07-0.24,0.3-0.96,0.31-1c0.01-0.04,0.05-0.08,0.08-0.09c0.03-0.01,1.25-0.3,1.65-0.4
			c-0.12,0.62,0.1,1.18,0.41,1.7c0.08,0.13,0.15,0.23,0.16,0.37c0.01,0.1,0.02,0.2,0.02,0.29
			C589.79,348.97,589.8,349.11,589.77,349.24 M589.29,349.14c-0.27-0.11-0.58-0.22-0.56-0.58c0.1-0.1,0.35-0.05,0.39,0.05
			c0.04,0.09,0.01,0.22,0.04,0.31C589.2,349.02,589.28,349.05,589.29,349.14 M591.51,349.51c0.06,0,0.12,0.05,0.12,0.12
			c0,0.06-0.05,0.12-0.12,0.12h-1.37c-0.06,0-0.12-0.05-0.12-0.12c0-0.07,0.05-0.12,0.12-0.12H591.51z M588.65,345.47
			c0.03-0.01,0.08-0.09,0.12-0.13c0.11-0.13,0.23-0.28,0.34-0.4c0.35,0.04,0.65,0.1,1,0.13c0.15,0.1,0.34,0.21,0.35,0.39
			c0.01,0.11,0,0.34,0,0.53c0,0.54-0.01,1.08-0.01,1.62c0,0.39-0.02,0.8,0.08,1.09c0.05,0.17,0.14,0.31,0.24,0.41
			c0.08,0.08,0.26,0.21,0.26,0.21h-0.95c0,0,0.01-0.16,0.01-0.24c0-0.11,0-0.22-0.01-0.33c-0.02-0.18-0.02-0.37-0.07-0.53
			c-0.02-0.06-0.09-0.13-0.13-0.19c-0.24-0.34-0.48-0.85-0.35-1.46c0.02-0.03,0.03-0.08,0.04-0.11c0.01-0.05,0.03-0.09,0.03-0.12
			c0-0.07-0.05-0.16-0.13-0.18c-0.07-0.02-0.17,0.04-0.26,0.05c-0.63,0.15-1.28,0.31-1.88,0.46c-0.12,0.37-0.23,0.72-0.33,1.1
			c-0.04,0.12-0.1,0.24-0.08,0.38c0.04,0.06,0.13,0.04,0.19,0.05c0.52,0.07,0.84,0.36,1.38,0.38c-0.04,0.6,0.68,0.62,0.92,0.95
			c0.05,0.06,0.09,0.18,0.07,0.28c0,0.06-0.06,0.15-0.1,0.15c-0.08,0.01-0.19-0.22-0.27-0.32c-0.08-0.12-0.19-0.24-0.29-0.31
			c-0.5-0.33-1.44-0.14-2.08-0.06c-0.27,0.02-0.54,0.06-0.81,0.1c-0.14,0.01-0.31,0.06-0.42-0.01c-0.26-0.16-0.16-0.71-0.13-1.05
			c0.01-0.33,0.03-0.68,0.07-1.03c0-0.05-0.01-0.11,0.01-0.15c0.01-0.04,0.12-0.09,0.17-0.12c0.2-0.13,0.37-0.24,0.57-0.37
			c0.03-0.09,0.08-0.18,0.11-0.27c0.14,0.03,0.28,0.08,0.43,0.11c0.07-0.16,0.15-0.33,0.24-0.49c0.27,0,0.54,0.01,0.82,0.01
			c0.11-0.15,0.19-0.33,0.29-0.48c0.13,0.01,0.24-0.01,0.37-0.03C588.51,345.48,588.59,345.48,588.65,345.47 M592.63,343.61
			c0,0-0.04,0.05-0.06,0.05c-0.08,0.01-0.23-0.04-0.32-0.03c-0.09,0.21-0.16,0.4-0.25,0.61c-0.1-0.35-0.17-0.72-0.26-1.09
			c-0.85-0.12-1.8-0.24-2.71-0.37c-0.06,0-0.14-0.04-0.18-0.03c-0.14,0.03-0.17,0.36-0.2,0.49h-0.64c0.06-0.16,0.05-0.39,0.16-0.5
			c0.17,0,0.23-0.11,0.32-0.22c0.16-0.18,0.34-0.4,0.46-0.6c1.19,0.34,2.39,0.67,3.58,1.02c0.04,0.14,0.06,0.33,0.09,0.5
			C592.63,343.49,592.64,343.58,592.63,343.61"/>
		<path class="st2" d="M586.35,340.67c0,0.07-0.06,0.13-0.12,0.13c-0.07,0-0.12-0.06-0.12-0.13s0.06-0.13,0.12-0.13
			C586.29,340.54,586.35,340.6,586.35,340.67"/>
		<path class="st2" d="M602.89,357.44c0-0.47-0.35-0.86-0.8-0.92c-0.29-0.53-1.02-0.71-1.83-0.58c-0.67,0.11-1.22,0.34-1.74,0.6
			c-0.08,0.04-0.2,0.11-0.23,0.11c-0.05,0-0.18-0.08-0.26-0.11c-0.27-0.11-0.55-0.19-0.83-0.25c-0.77-0.18-1.81-0.21-2.62-0.06
			c-0.41,0.09-0.78,0.2-1.13,0.34c-0.33-0.14-0.69-0.25-1.07-0.36c0-0.29-0.12-0.52-0.29-0.67c-0.17-0.16-0.42-0.28-0.72-0.25
			c-0.45,0.04-0.73,0.36-0.83,0.78c-0.29,0.06-0.54,0.18-0.74,0.36c-0.19,0.17-0.35,0.4-0.42,0.69c-0.06,0.25-0.05,0.54-0.02,0.8
			c0.04,0.75,0.31,1.28,0.67,1.7c0.03,0.03,0.07,0.07,0.08,0.12c-0.3,0.72-0.58,1.49-0.58,2.48c0,0.48,0.02,0.96,0.11,1.4
			c0.07,0.3,0.16,0.61,0.26,0.89c0.03,0.07,0.11,0.23,0.11,0.29c0,0.03-0.06,0.11-0.09,0.17c-0.2,0.39-0.37,0.81-0.49,1.25
			c-0.45,0.1-0.78,0.4-0.79,0.9c0,0.52,0.35,0.83,0.77,0.92c0.21,0.49,0.56,0.87,1.21,0.91c0.21,0.01,0.43,0.06,0.67,0.02
			c0.73-0.06,1.3-0.35,1.74-0.72c0.06-0.04,0.16-0.16,0.2-0.16c0.02,0,0.1,0.04,0.14,0.06c0.71,0.3,1.56,0.53,2.61,0.49
			c1.04-0.03,1.9-0.29,2.64-0.67c0.19,0.18,0.4,0.33,0.62,0.48c0.04,0.49,0.3,0.81,0.7,0.9c0.44,0.12,0.82-0.13,0.98-0.36
			c0.04-0.04,0.05-0.11,0.09-0.13c0.05-0.02,0.13-0.03,0.17-0.03c0.23-0.01,0.38-0.04,0.52-0.11c0.57-0.25,0.87-0.85,0.86-1.7
			c-0.03-0.53-0.16-0.96-0.33-1.36c-0.15-0.33-0.32-0.69-0.47-1c-0.02-0.04-0.08-0.12-0.08-0.16c0-0.02,0.03-0.07,0.05-0.11
			c0.22-0.65,0.37-1.4,0.33-2.28c-0.04-0.88-0.24-1.59-0.52-2.25c0.35-0.4,0.56-0.91,0.66-1.54
			C602.58,358.26,602.89,357.88,602.89,357.44 M595.61,356.48c0.87-0.04,1.66,0.15,2.3,0.39c-0.17,0.1-0.32,0.19-0.48,0.29
			c-0.46,0.29-0.91,0.6-1.35,0.91c-0.66-0.5-1.36-0.94-2.17-1.3C594.4,356.58,594.98,356.49,595.61,356.48 M589.65,357.7
			c0-0.17,0-0.34,0.04-0.51c0.08-0.39,0.44-0.67,0.84-0.78c0,0,0,0.01,0.01,0.01c0.09,0.41,0.42,0.72,0.89,0.72
			c0.45,0,0.74-0.27,0.87-0.6c0.24,0.06,0.47,0.15,0.7,0.22c-1.18,0.61-2.1,1.48-2.74,2.63C589.91,359.03,589.65,358.4,589.65,357.7
			 M594.04,359.17c-0.04-0.02-0.13,0.05-0.17,0c-0.03-0.04,0.01-0.11-0.03-0.17c-0.04-0.04-0.16-0.11-0.21-0.15
			c-0.05-0.05-0.22-0.19-0.26-0.21c-0.08-0.04-0.2-0.01-0.29-0.03c-0.06-0.01-0.1-0.09-0.13-0.1c-0.1-0.02-0.24-0.04-0.3-0.05
			c-0.36-0.06-0.65-0.4-0.76-0.4c-0.07,0-0.33,0.34-0.38,0.43c-0.04,0.1-0.12,0.26-0.14,0.36c-0.01,0.07-0.01,0.16,0.02,0.2
			c0.06,0.08,0.16,0.17,0.15,0.16c0,0,0.08,0.13,0.09,0.14c0.02,0.04,0.05,0.16,0.07,0.19c0.03,0.05,0.16,0.06,0.2,0.09
			c0-0.08,0-0.17-0.01-0.24c0,0-0.04-0.12-0.04-0.13l-0.03-0.06c-0.07-0.11-0.08-0.25-0.05-0.27c0.02-0.01,0.03,0.01,0.12,0.04
			c0.12,0.04,0.07,0.12,0.1,0.22c0.05,0.16,0.1,0.34,0.1,0.54l0.08,0.37c0.05,0.06,0.1,0.12,0.11,0.12
			c0.16,0.03,0.01-0.02,0.13,0.08c0.05,0.04,0.07,0.14,0.15,0.2c0.05,0.03,0.11,0,0.16,0.02c0.05,0.03,0.06,0.11,0.11,0.15
			c0.06,0.04,0.13,0.03,0.2,0.05c0,0,0.01,0,0.01,0l-0.01,0.01c-1.05,1.11-2.05,2.27-2.84,3.65c-0.26-0.65-0.39-1.49-0.35-2.39
			c0.04-0.65,0.19-1.25,0.4-1.78c0.58-1.46,1.63-2.54,3.01-3.22c0.07-0.03,0.15-0.09,0.19-0.09c0.07,0,0.27,0.11,0.33,0.14
			c0.76,0.31,1.41,0.74,2.03,1.19c-0.22,0.18-0.87,0.69-0.87,0.69s-0.5,0.41-0.72,0.62c-0.22,0.2-0.39,0.4-0.39,0.4
			c-0.05-0.07-0.09-0.17-0.09-0.22c0-0.05,0.1-0.25,0.14-0.28c0.07-0.07,0.15-0.08,0.18-0.12l0,0c0.04-0.02,0.05-0.06,0.1-0.14
			L594.04,359.17z M592.03,368.44c-0.33,0.12-0.69,0.24-1.13,0.2c-0.07,0-0.14-0.02-0.21-0.03c-0.13-0.01-0.23-0.01-0.34-0.04
			c-0.29-0.08-0.47-0.28-0.61-0.55c0.43-0.11,0.75-0.45,0.73-0.94c-0.04-0.46-0.34-0.75-0.73-0.85c0.11-0.38,0.25-0.72,0.42-1.04
			c0.62,1.19,1.5,2.12,2.69,2.75C592.64,368.14,592.35,368.31,592.03,368.44 M594.41,360.08c-0.01,0.11-0.04,0.21-0.15,0.24
			c-0.06,0.01-0.13-0.01-0.2-0.06c0.12-0.12,0.69-0.68,0.71-0.7c0.54-0.48,0.88-0.73,1.31-1.08c1.83,1.44,3.39,3.19,4.68,5.2
			c0.12,0.2,0.28,0.43,0.39,0.65c0.05,0.08,0.13,0.19,0.13,0.23c0.01,0.03-0.05,0.13-0.07,0.2c-0.38,0.9-1,1.67-1.7,2.23
			c-0.79,0.64-1.71,1.08-2.93,1.26l-0.36,0.04c-1.71,0.11-2.96-0.42-3.93-1.12c-0.85-0.62-1.49-1.42-1.93-2.36
			c0.82-1.49,1.87-2.76,3.04-3.93c0,0,0.01,0.01,0.02,0.01c0.18,0.06,0.34,0.05,0.53,0.06c0.17,0.01,0.34,0.04,0.49,0.1
			c0.15,0.06,0.29,0.05,0.5,0.05c0,0.27,0.06,0.31,0.26,0.41c0.16,0.08,0.24,0.1,0.21,0.35c-0.01,0.13,0,0.15-0.06,0.24
			c-0.02,0.03-0.13,0.1-0.13,0.12c-0.03,0.08-0.02,0.31-0.03,0.36c0,0.05-0.03,0.23-0.03,0.32c0,0.11-0.02,0.24,0.02,0.33
			c0.02,0.05,0.09,0.16,0.18,0.22c0.04,0.03,0.07,0.05,0.05,0.04c0.08,0.11,0.18,0.1,0.25,0.16c0.02,0.01,0.1,0.16,0.08,0.15
			c0.02,0.03,0.04,0.05,0.06,0.07c0.11,0.12,0.23,0.17,0.26,0.37c0.09,0.44-0.03,0.93-0.01,1.38c0,0.14-0.02,0.29-0.06,0.38
			c-0.01,0.03,0.02,0.09,0,0.11c-0.02,0.03-0.09,0.03-0.11,0.06c-0.04,0.07-0.11,0.15-0.13,0.23c-0.01,0.04-0.02,0.13-0.03,0.2
			c-0.01,0.03-0.08,0.01-0.05,0.14c0.01,0.06,0.13,0.13,0.14,0.18c0.04,0.15-0.05,0.33,0,0.49c0.01,0.02,0.18,0.18,0.18,0.2
			c0.01,0.06-0.05,0.16-0.05,0.17c0.05,0.1,0.21,0.21,0.3,0.16l0.33-0.08c0.02-0.02,0.06-0.15,0.08-0.16
			c0.02-0.02,0.03-0.16,0.05-0.2c0.02-0.03,0.06-0.05,0.06-0.03c0.01,0,0.06-0.08,0.06-0.09c0.08-0.14,0.02-0.61,0.08-0.7
			c0.01-0.02-0.01-0.07,0-0.08c0.05-0.06,0.1-0.03,0.15-0.07c0.03-0.03,0.02-0.09,0.05-0.12c0.04-0.03,0.1-0.03,0.14-0.07
			c0.03-0.02,0.11-0.14,0.12-0.16c0.04-0.05,0.12-0.11,0.16-0.17c0.03-0.05,0.11-0.13,0.15-0.17c0.07-0.08,0.21-0.13,0.28-0.21
			c0.17-0.2,0.3-0.42,0.38-0.64c0.07-0.2,0-0.18,0.14-0.32c0.07-0.07,0.22-0.15,0.31-0.19c0.05-0.02,0.15-0.06,0.17-0.08
			c0.09-0.07,0.16-0.19,0.23-0.26c0.12-0.15,0.23-0.26,0.39-0.38c0.15-0.11,0.44-0.33,0.24-0.53c0.06-0.21-0.23-0.12-0.36-0.16
			c-0.21-0.07-0.23-0.21-0.36-0.34c-0.13-0.13-0.39-0.26-0.49-0.42c-0.03-0.05-0.03-0.15-0.05-0.18c-0.04-0.09-0.07-0.1-0.13-0.15
			c-0.13-0.12-0.08-0.17-0.29-0.2c-0.12-0.02-0.26,0.04-0.38,0.01c-0.12-0.03-0.1-0.05-0.17-0.09c-0.08-0.04,0,0.05-0.12-0.06
			c-0.03-0.03-0.15-0.16-0.17-0.17c-0.05-0.04-0.19-0.06-0.24-0.09c-0.02-0.01-0.02-0.09-0.03-0.09c-0.12-0.04-0.32,0.02-0.44,0.03
			c-0.14,0.01-0.29,0.03-0.43,0c-0.24-0.04-0.02-0.07-0.26-0.1c-0.07-0.01-0.38,0.06-0.42,0.02c-0.02-0.02,0.01-0.15,0-0.16
			c-0.01-0.02-0.09-0.15-0.1-0.16c-0.02-0.04-0.07-0.05-0.09-0.09c-0.05-0.12,0.06-0.13,0.06-0.17c0-0.12-0.04-0.12-0.06-0.19
			c-0.02-0.06,0.02-0.13,0-0.19c-0.01-0.03-0.09-0.11-0.11-0.15c-0.01-0.04-0.03-0.12-0.04-0.21c-0.01-0.11-0.28-0.05-0.36-0.11
			L594.41,360.08z M602.17,366.97c0.06,0.87-0.27,1.56-1.12,1.56c0-0.55-0.34-0.95-0.85-0.98c-0.48-0.03-0.77,0.24-0.92,0.56
			c-0.14-0.09-0.28-0.18-0.39-0.3c1.13-0.66,2.01-1.62,2.58-2.84C601.75,365.55,602.11,366.13,602.17,366.97 M601.66,361.76
			c0.08,0.83-0.01,1.71-0.23,2.39c-1.36-2.28-3.06-4.23-5.06-5.87c0.61-0.45,1.24-0.87,1.93-1.24c1.19,0.58,2.13,1.46,2.74,2.65
			C601.33,360.26,601.56,360.95,601.66,361.76 M601.34,359.54c-0.62-1.16-1.5-2.07-2.68-2.69c0.58-0.25,1.19-0.57,1.97-0.61
			c0.45-0.02,0.82,0.07,1.05,0.3c0,0.01,0,0.01,0.01,0.02c-0.38,0.12-0.65,0.47-0.65,0.89c0,0.47,0.34,0.85,0.79,0.92
			c0,0.01,0,0.02,0,0.02C601.74,358.83,601.58,359.24,601.34,359.54"/>
		<path class="st2" d="M611.78,330.98v31.09c0,0.03-0.04,3.46-2.28,7.31c-2.95,5.06-8.4,8.6-15.76,10.23
			c-7.36-1.63-12.81-5.16-15.76-10.23c-2.25-3.85-2.28-7.28-2.28-7.31v-31.09h18.04H611.78z M612.42,330.33h-18.69h-18.69v31.74
			c0,0,0,14.14,18.69,18.2c18.69-4.06,18.69-18.2,18.69-18.2V330.33z"/>
		<path class="st2" d="M579.62,334.91v27.12c0,0.06,0.02,0.36,0.1,0.83c0.01,0.06,0.02,0.13,0.03,0.2c0.19,1.06,0.66,2.81,1.81,4.66
			c2.35,3.79,6.44,6.43,12.17,7.86c5.73-1.42,9.83-4.06,12.18-7.86c1.78-2.87,1.93-5.49,1.94-5.7v-27.12H579.62z M580.27,362.01
			v-26.46h26.49l-4.27,4.31l-0.93,0.5l-1.14-4.2l-1.14,4.2l-2.02-1.09l1.09,2.02l-4.2,1.14l4.2,1.14l-0.56,1.03l-17.5,17.67
			C580.27,362.14,580.27,362.05,580.27,362.01 M600.66,342.42l0.98-0.98l3.62,0.98H600.66z M602.27,343.64l0.77,1.38l-1.25-1.25
			L602.27,343.64z M601.42,343.67l-0.98,3.62v-4.6L601.42,343.67z M601.62,340.59l1.38-0.76l-1.25,1.25L601.62,340.59z
			 M597.83,345.06l1.25-1.25l0.13,0.48L597.83,345.06z M599.19,343.44l-3.62-0.98h4.6L599.19,343.44z M598.56,341.23l-0.77-1.38
			l1.25,1.25L598.56,341.23z M599.41,341.21l0.98-3.62v4.6L599.41,341.21z M607.2,362.01c-0.01,0.22-0.18,2.68-1.84,5.37
			c-2.23,3.61-6.15,6.14-11.63,7.53c-5.48-1.39-9.39-3.92-11.62-7.53c-1.05-1.69-1.5-3.3-1.7-4.31l17.85-18.02l0.11-0.06l0.91-0.49
			l1.14,4.2l1.14-4.2l2.02,1.09l-1.09-2.02l4.2-1.14l-4.2-1.14l0.51-0.95l0.09-0.17l4.12-4.16V362.01z"/>
	</g>
</g>
</svg>
