<?xml version="1.0" encoding="utf-8"?>
<!-- Generator: Adobe Illustrator 24.2.3, SVG Export Plug-In . SVG Version: 6.00 Build 0)  -->
<svg version="1.1" xmlns="http://www.w3.org/2000/svg" xmlns:xlink="http://www.w3.org/1999/xlink" x="0px" y="0px"
	 viewBox="0 0 722.87 88.08" style="enable-background:new 0 0 722.87 88.08;" xml:space="preserve">
<style type="text/css">
	.st0{opacity:0.2;}
	.st1{clip-path:url(#SVGID_2_);fill:none;stroke:#A19FA0;stroke-miterlimit:10;}
	.st2{fill:#FFFFFF;}
	.st3{fill:none;}
	.st4{fill:#003354;}
	.st5{fill:#FFFFFF;stroke:#003354;stroke-width:0.75;stroke-miterlimit:10;}
	.st6{fill:#6BCABA;}
	.st7{fill:#FFFFFF;stroke:#003354;stroke-width:0.5;stroke-miterlimit:10;}
	.st8{fill:#FFF4FF;}
	.st9{clip-path:url(#SVGID_4_);}
	.st10{fill:#DBDBDB;}
	.st11{opacity:0.6;}
	.st12{fill:none;stroke:#FFFFFF;stroke-width:0.75;stroke-linecap:round;stroke-linejoin:round;stroke-miterlimit:10;}
	.st13{fill:none;stroke:#FFFFFF;stroke-width:0.5;stroke-miterlimit:10;}
	.st14{fill:none;stroke:#FFFFFF;stroke-width:0.75;stroke-miterlimit:10;}
	.st15{fill:none;stroke:#FFFFFF;stroke-linecap:round;stroke-linejoin:round;stroke-miterlimit:10;}
	.st16{clip-path:url(#SVGID_8_);fill:#FFFFFF;}
	.st17{opacity:0.9;clip-path:url(#SVGID_8_);}
	.st18{clip-path:url(#SVGID_12_);}
	.st19{fill:none;stroke:#FFFFFF;stroke-width:3;stroke-miterlimit:10;}
	.st20{fill:none;stroke:#6BCABA;stroke-width:3;stroke-miterlimit:10;}
	.st21{opacity:0.03;clip-path:url(#SVGID_14_);}
	.st22{clip-path:url(#SVGID_16_);}
	.st23{fill:#EAEAEA;stroke:#D6D6D6;stroke-miterlimit:10;}
	.st24{clip-path:url(#SVGID_18_);}
	.st25{clip-path:url(#SVGID_22_);fill:#FFFFFF;}
	.st26{opacity:0.9;clip-path:url(#SVGID_22_);}
	.st27{clip-path:url(#SVGID_26_);}
	.st28{opacity:0.03;clip-path:url(#SVGID_28_);}
	.st29{clip-path:url(#SVGID_30_);}
	.st30{opacity:0.03;clip-path:url(#SVGID_32_);}
	.st31{clip-path:url(#SVGID_34_);}
	.st32{fill:#DDDDDD;}
	.st33{clip-path:url(#SVGID_36_);}
	.st34{clip-path:url(#SVGID_40_);fill:#FFFFFF;}
	.st35{opacity:0.9;clip-path:url(#SVGID_40_);}
	.st36{clip-path:url(#SVGID_44_);}
	.st37{opacity:0.03;clip-path:url(#SVGID_46_);}
	.st38{clip-path:url(#SVGID_48_);}
	.st39{opacity:0.03;clip-path:url(#SVGID_50_);}
	.st40{clip-path:url(#SVGID_52_);}
	.st41{opacity:0.7;fill:none;stroke:#003354;stroke-width:0.75;stroke-miterlimit:10;}
	.st42{clip-path:url(#SVGID_54_);}
	.st43{clip-path:url(#SVGID_58_);fill:#FFFFFF;}
	.st44{opacity:0.9;clip-path:url(#SVGID_58_);}
	.st45{clip-path:url(#SVGID_62_);}
	.st46{opacity:0.6;fill:#DDDDDD;}
	.st47{fill:#003354;stroke:#003354;stroke-miterlimit:10;}
	.st48{fill:#FFFFFF;stroke:#003354;stroke-miterlimit:10;}
	.st49{fill:#EAEAEA;}
	.st50{fill:#FEF1C8;}
	.st51{fill:none;stroke:#6BCABA;stroke-miterlimit:10;}
	.st52{clip-path:url(#SVGID_64_);}
	.st53{clip-path:url(#SVGID_68_);fill:#FFFFFF;}
	.st54{opacity:0.9;clip-path:url(#SVGID_68_);}
	.st55{clip-path:url(#SVGID_72_);}
	.st56{clip-path:url(#SVGID_74_);fill:none;stroke:#A19FA0;stroke-miterlimit:10;}
	.st57{clip-path:url(#SVGID_76_);fill:none;stroke:#A19FA0;stroke-miterlimit:10;}
	.st58{clip-path:url(#SVGID_78_);}
	.st59{fill:#00557A;}
	.st60{fill:none;stroke:#003354;stroke-width:0.75;stroke-miterlimit:10;}
	.st61{fill:#FBFDFC;}
	.st62{clip-path:url(#SVGID_82_);fill:#FFFFFF;}
	.st63{opacity:0.9;clip-path:url(#SVGID_82_);}
	.st64{clip-path:url(#SVGID_86_);}
	.st65{clip-path:url(#SVGID_88_);}
	.st66{clip-path:url(#SVGID_90_);fill:none;stroke:#A19FA0;stroke-miterlimit:10;}
	.st67{fill:#EAEAEA;stroke:#003354;stroke-miterlimit:10;}
	.st68{fill:#FFFFFF;stroke:#EAEAEA;stroke-miterlimit:10;}
	.st69{clip-path:url(#SVGID_94_);fill:#FFFFFF;}
	.st70{opacity:0.9;clip-path:url(#SVGID_94_);}
	.st71{clip-path:url(#SVGID_98_);}
	.st72{clip-path:url(#SVGID_100_);fill:none;stroke:#A19FA0;stroke-miterlimit:10;}
	.st73{clip-path:url(#SVGID_102_);fill:none;stroke:#A19FA0;stroke-miterlimit:10;}
	.st74{clip-path:url(#SVGID_104_);fill:none;stroke:#A19FA0;stroke-miterlimit:10;}
	.st75{clip-path:url(#SVGID_106_);}
	.st76{fill:#FFFFFF;stroke:#003354;stroke-width:1.6901;stroke-miterlimit:10;}
	.st77{fill:none;stroke:#003354;stroke-miterlimit:10;}
	.st78{fill:#EAEAEA;stroke:#003354;stroke-width:0.5;stroke-miterlimit:10;}
	.st79{clip-path:url(#SVGID_110_);fill:#FFFFFF;}
	.st80{opacity:0.9;clip-path:url(#SVGID_110_);}
	.st81{clip-path:url(#SVGID_114_);}
	.st82{opacity:0.03;clip-path:url(#SVGID_116_);}
	.st83{clip-path:url(#SVGID_118_);}
	.st84{fill:#71C2B5;}
	.st85{fill:#898989;}
	.st86{fill:#123452;}
	.st87{fill:#71C1B4;}
	.st88{clip-path:url(#SVGID_120_);}
	.st89{clip-path:url(#SVGID_124_);fill:#FFFFFF;}
	.st90{opacity:0.9;clip-path:url(#SVGID_124_);}
	.st91{clip-path:url(#SVGID_128_);}
	.st92{opacity:0.03;clip-path:url(#SVGID_130_);}
	.st93{clip-path:url(#SVGID_132_);}
	.st94{clip-path:url(#SVGID_134_);}
	.st95{fill:none;stroke:#71C2B5;stroke-miterlimit:10;}
	.st96{clip-path:url(#SVGID_138_);fill:#FFFFFF;}
	.st97{opacity:0.9;clip-path:url(#SVGID_138_);}
	.st98{clip-path:url(#SVGID_142_);}
	.st99{opacity:0.03;clip-path:url(#SVGID_144_);}
	.st100{clip-path:url(#SVGID_146_);}
	.st101{clip-path:url(#SVGID_148_);fill:none;stroke:#A19FA0;stroke-miterlimit:10;}
	.st102{clip-path:url(#SVGID_150_);fill:none;stroke:#A19FA0;stroke-miterlimit:10;}
	.st103{opacity:0.03;clip-path:url(#SVGID_152_);}
	.st104{clip-path:url(#SVGID_154_);}
	.st105{clip-path:url(#SVGID_156_);}
	.st106{fill:none;stroke:#6BCABA;stroke-width:2;stroke-miterlimit:10;}
	.st107{clip-path:url(#SVGID_158_);fill:none;stroke:#A19FA0;stroke-miterlimit:10;}
	.st108{clip-path:url(#SVGID_160_);}
	.st109{clip-path:url(#SVGID_162_);}
	.st110{clip-path:url(#SVGID_164_);}
	.st111{clip-path:url(#SVGID_166_);}
	.st112{clip-path:url(#SVGID_168_);}
	.st113{clip-path:url(#SVGID_170_);}
	.st114{clip-path:url(#SVGID_172_);}
	.st115{clip-path:url(#SVGID_174_);}
	.st116{clip-path:url(#SVGID_176_);}
	.st117{clip-path:url(#SVGID_178_);}
	.st118{clip-path:url(#SVGID_180_);}
	.st119{clip-path:url(#SVGID_182_);}
	.st120{opacity:0.92;fill:#6BCABA;}
	.st121{fill:none;stroke:#FFFFFF;stroke-width:1.9746;stroke-miterlimit:10;}
	.st122{opacity:0.9;fill:#6BCABA;}
	.st123{clip-path:url(#SVGID_186_);fill:#FFFFFF;}
	.st124{opacity:0.9;clip-path:url(#SVGID_186_);}
	.st125{clip-path:url(#SVGID_190_);}
	.st126{opacity:0.5;}
	.st127{fill:#606060;}
	.st128{clip-path:url(#SVGID_192_);}
	.st129{clip-path:url(#SVGID_196_);fill:#FFFFFF;}
	.st130{opacity:0.9;clip-path:url(#SVGID_196_);}
	.st131{clip-path:url(#SVGID_200_);}
	.st132{opacity:0;clip-path:url(#SVGID_202_);fill:#FFFFFF;}
	.st133{clip-path:url(#SVGID_202_);}
	.st134{clip-path:url(#SVGID_206_);fill:none;stroke:#A19FA0;stroke-width:0.9937;stroke-miterlimit:10;}
	.st135{clip-path:url(#SVGID_208_);fill:none;stroke:#A19FA0;stroke-width:0.9937;stroke-miterlimit:10;}
	.st136{opacity:0.03;clip-path:url(#SVGID_210_);}
	.st137{clip-path:url(#SVGID_212_);}
	.st138{opacity:0.03;clip-path:url(#SVGID_214_);}
	.st139{clip-path:url(#SVGID_216_);}
	.st140{clip-path:url(#SVGID_218_);}
	.st141{clip-path:url(#SVGID_220_);fill:none;stroke:#A19FA0;stroke-miterlimit:10;}
	.st142{fill:#FFFFFF;stroke:#6BCABA;stroke-width:0.9715;stroke-miterlimit:10;}
	.st143{clip-path:url(#SVGID_222_);}
	.st144{clip-path:url(#SVGID_224_);}
	.st145{clip-path:url(#SVGID_226_);}
	.st146{clip-path:url(#SVGID_228_);}
	.st147{clip-path:url(#SVGID_230_);}
	.st148{clip-path:url(#SVGID_232_);}
	.st149{clip-path:url(#SVGID_234_);}
	.st150{clip-path:url(#SVGID_236_);}
	.st151{clip-path:url(#SVGID_238_);}
	.st152{clip-path:url(#SVGID_240_);}
	.st153{clip-path:url(#SVGID_242_);}
	.st154{clip-path:url(#SVGID_244_);}
	.st155{clip-path:url(#SVGID_246_);}
	.st156{clip-path:url(#SVGID_248_);}
	.st157{clip-path:url(#SVGID_250_);}
	.st158{clip-path:url(#SVGID_252_);}
	.st159{clip-path:url(#SVGID_254_);}
	.st160{clip-path:url(#SVGID_256_);}
	.st161{clip-path:url(#SVGID_258_);}
	.st162{clip-path:url(#SVGID_260_);}
	.st163{clip-path:url(#SVGID_262_);}
	.st164{clip-path:url(#SVGID_264_);}
	.st165{clip-path:url(#SVGID_266_);}
	.st166{clip-path:url(#SVGID_268_);}
	.st167{clip-path:url(#SVGID_270_);}
	.st168{clip-path:url(#SVGID_272_);}
	.st169{clip-path:url(#SVGID_274_);}
	.st170{clip-path:url(#SVGID_276_);}
	.st171{clip-path:url(#SVGID_280_);fill:#FFFFFF;}
	.st172{opacity:0.9;clip-path:url(#SVGID_280_);}
	.st173{clip-path:url(#SVGID_284_);}
	.st174{clip-path:url(#SVGID_286_);}
	.st175{clip-path:url(#SVGID_288_);fill:none;stroke:#A19FA0;stroke-width:1.0215;stroke-miterlimit:10;}
	.st176{fill:url(#SVGID_289_);}
	.st177{fill:#F0F3F4;}
	.st178{fill:#DCDCDC;}
	.st179{opacity:0.03;clip-path:url(#SVGID_291_);}
	.st180{clip-path:url(#SVGID_293_);}
	.st181{clip-path:url(#SVGID_295_);}
	.st182{opacity:0.55;}
	.st183{fill:none;stroke:#FFFFFF;stroke-width:2;stroke-miterlimit:10;}
	.st184{clip-path:url(#SVGID_299_);fill:#FFFFFF;}
	.st185{opacity:0.9;clip-path:url(#SVGID_299_);}
	.st186{clip-path:url(#SVGID_303_);}
	.st187{fill:none;stroke:#6BCABA;stroke-width:8;stroke-miterlimit:10;}
	.st188{fill:#123251;}
	.st189{clip-path:url(#SVGID_305_);}
	.st190{fill:none;stroke:#123452;stroke-width:4;stroke-miterlimit:10;}
	.st191{fill:none;stroke:#71C2B5;stroke-width:4;stroke-miterlimit:10;}
	.st192{clip-path:url(#SVGID_307_);}
	.st193{opacity:0.4;fill:#1D1D1B;}
	.st194{clip-path:url(#SVGID_309_);}
	.st195{clip-path:url(#SVGID_311_);}
</style>
<g id="TESIUAQ_TESIS">
</g>
<g id="TESIUAQ_RESULTADOS">
</g>
<g id="TESIUAQ_BÚSQUEDA">
</g>
<g id="TESIUAQ">
</g>
<g id="CUENTA">
</g>
<g id="RESULTADO">
</g>
<g id="BÚSQUEDA_AVANZADA">
</g>
<g id="BÚSQUEDA">
</g>
<g id="RECUPERACIÓN_DE_CONTRASEÑA">
</g>
<g id="INGRESA">
</g>
<g id="RECURSOS">
</g>
<g id="SERVICIOS">
</g>
<g id="CONÓCENOS">
</g>
<g id="INICIO">
	<g>
		<path class="st6" d="M120.75,74.58h-0.98V9.59h0.98V74.58z"/>
	</g>
	<g>
		<g>
			<path class="st4" d="M130.78,24.22c0,0.9-0.03,1.92,0.53,2.69c0.53,0.74,1.55,1.15,2.44,1.15c0.86,0,1.81-0.4,2.37-1.08
				c0.64-0.77,0.59-1.82,0.59-2.77v-7.2h1.34v7.57c0,1.31-0.1,2.35-1.06,3.35c-0.83,0.9-2.04,1.38-3.25,1.38
				c-1.14,0-2.31-0.43-3.12-1.24c-1.06-1.01-1.19-2.12-1.19-3.49v-7.57h1.34V24.22z"/>
			<polygon class="st4" points="140.53,16.51 149.96,26.38 149.96,17.02 151.3,17.02 151.3,29.65 141.88,19.8 141.88,29.11 
				140.53,29.11 			"/>
			<rect x="153.86" y="17.03" class="st4" width="1.35" height="12.08"/>
			<polygon class="st4" points="161.44,26.24 164.89,17.02 166.35,17.02 161.44,29.83 156.54,17.02 158,17.02 			"/>
			<polygon class="st4" points="167.67,17.02 173.93,17.02 173.93,18.28 169.01,18.28 169.01,21.86 173.79,21.86 173.79,23.12 
				169.01,23.12 169.01,27.86 173.93,27.86 173.93,29.11 167.67,29.11 			"/>
			<path class="st4" d="M177.58,29.11h-1.35V17.03h1.75c2.29,0,4.42,0.61,4.42,3.33c0,1.86-1.17,3.17-3.03,3.33l3.84,5.42h-1.65
				l-3.66-5.31h-0.33V29.11z M177.58,22.62h0.41c1.52,0,3.06-0.29,3.06-2.16c0-1.99-1.46-2.18-3.07-2.18h-0.4V22.62z"/>
			<path class="st4" d="M190.4,19.38c-0.48-0.83-1.06-1.32-2.08-1.32c-1.07,0-2,0.77-2,1.88c0,1.04,1.07,1.52,1.89,1.89l0.8,0.35
				c1.57,0.69,2.9,1.47,2.9,3.4c0,2.12-1.7,3.74-3.8,3.74c-1.94,0-3.38-1.25-3.76-3.13l1.31-0.37c0.18,1.24,1.12,2.25,2.42,2.25
				c1.3,0,2.48-0.99,2.48-2.36c0-1.41-1.11-1.89-2.23-2.4l-0.74-0.32c-1.41-0.64-2.63-1.36-2.63-3.09c0-1.88,1.59-3.08,3.38-3.08
				c1.35,0,2.48,0.69,3.12,1.87L190.4,19.38z"/>
			<rect x="193.92" y="17.03" class="st4" width="1.35" height="12.08"/>
			<path class="st4" d="M197.72,17.03h2.28c1.81,0,3.28,0.24,4.71,1.46c1.38,1.19,2,2.8,2,4.6c0,1.76-0.64,3.32-1.97,4.5
				c-1.44,1.28-2.89,1.52-4.78,1.52h-2.24V17.03z M200.04,27.86c1.47,0,2.71-0.21,3.81-1.25c0.99-0.93,1.51-2.19,1.51-3.54
				c0-1.38-0.53-2.71-1.57-3.62c-1.11-0.98-2.33-1.17-3.75-1.17h-0.98v9.58H200.04z"/>
			<path class="st4" d="M210.4,25.68l-1.46,3.43h-1.47l5.58-12.66l5.43,12.66h-1.49l-1.43-3.43H210.4z M213.01,19.59l-2.07,4.84
				h4.09L213.01,19.59z"/>
			<path class="st4" d="M219.8,17.03h2.28c1.81,0,3.28,0.24,4.71,1.46c1.38,1.19,2,2.8,2,4.6c0,1.76-0.64,3.32-1.97,4.5
				c-1.44,1.28-2.89,1.52-4.78,1.52h-2.24V17.03z M222.12,27.86c1.47,0,2.71-0.21,3.81-1.25c0.99-0.93,1.51-2.19,1.51-3.54
				c0-1.38-0.53-2.71-1.57-3.62c-1.11-0.98-2.32-1.17-3.75-1.17h-0.97v9.58H222.12z"/>
			<path class="st4" d="M237.42,25.68l-1.46,3.43h-1.47l5.58-12.66l5.43,12.66H244l-1.43-3.43H237.42z M240.03,19.59l-2.07,4.84
				h4.09L240.03,19.59z"/>
			<path class="st4" d="M248.13,24.22c0,0.9-0.03,1.92,0.53,2.69c0.53,0.74,1.55,1.15,2.44,1.15c0.87,0,1.81-0.4,2.37-1.08
				c0.64-0.77,0.59-1.82,0.59-2.77v-7.2h1.35v7.57c0,1.31-0.1,2.35-1.06,3.35c-0.83,0.9-2.03,1.38-3.25,1.38
				c-1.14,0-2.31-0.43-3.12-1.24c-1.06-1.01-1.19-2.12-1.19-3.49v-7.57h1.35V24.22z"/>
			<polygon class="st4" points="261,29.11 259.66,29.11 259.66,18.28 256.74,18.28 256.74,17.03 263.95,17.03 263.95,18.28 
				261,18.28 			"/>
			<path class="st4" d="M277.32,23.08c0,3.48-2.85,6.23-6.3,6.23s-6.3-2.75-6.3-6.23c0-3.46,2.85-6.27,6.3-6.27
				S277.32,19.62,277.32,23.08 M266.07,23.07c0,2.72,2.21,5,4.95,5c2.74,0,4.95-2.28,4.95-5c0-2.74-2.18-5-4.95-5
				S266.07,20.33,266.07,23.07 M273.3,13.64l-2.45,2.47l-0.8-0.45l1.91-2.63L273.3,13.64z"/>
			<polygon class="st4" points="279.24,16.51 288.66,26.38 288.66,17.02 290.01,17.02 290.01,29.65 280.58,19.8 280.58,29.11 
				279.24,29.11 			"/>
			<path class="st4" d="M304.52,23.08c0,3.48-2.85,6.24-6.3,6.24s-6.3-2.76-6.3-6.24c0-3.46,2.85-6.26,6.3-6.26
				S304.52,19.62,304.52,23.08 M293.27,23.07c0,2.72,2.21,5,4.95,5c2.74,0,4.95-2.28,4.95-5c0-2.74-2.18-5-4.95-5
				C295.45,18.07,293.27,20.32,293.27,23.07"/>
			<polygon class="st4" points="307.92,16.34 312.31,26.48 316.72,16.34 319.17,29.11 317.79,29.11 316.24,20.94 316.21,20.94 
				312.31,29.6 308.44,20.94 308.41,20.94 306.85,29.11 305.47,29.11 			"/>
			<path class="st4" d="M322.53,25.68l-1.46,3.43h-1.47l5.58-12.66l5.43,12.66h-1.49l-1.43-3.43H322.53z M325.14,19.59l-2.07,4.84
				h4.09L325.14,19.59z"/>
			<path class="st4" d="M336.87,17.03h2.28c1.81,0,3.28,0.24,4.71,1.46c1.38,1.19,2.01,2.8,2.01,4.6c0,1.76-0.64,3.32-1.97,4.5
				c-1.44,1.28-2.89,1.52-4.78,1.52h-2.24V17.03z M339.19,27.86c1.48,0,2.71-0.21,3.81-1.25c1-0.93,1.51-2.19,1.51-3.54
				c0-1.38-0.53-2.71-1.57-3.62c-1.11-0.98-2.32-1.17-3.75-1.17h-0.97v9.58H339.19z"/>
			<polygon class="st4" points="347.74,17.02 354.01,17.02 354.01,18.28 349.09,18.28 349.09,21.86 353.86,21.86 353.86,23.12 
				349.09,23.12 349.09,27.86 354.01,27.86 354.01,29.11 347.74,29.11 			"/>
			<path class="st4" d="M370.57,28.13c-0.99,0.76-2.42,1.19-3.64,1.19c-3.45,0-6.3-2.76-6.3-6.24c0-3.46,2.85-6.26,6.3-6.26
				c3.5,0,6.3,2.84,6.3,6.3c0,1.68-0.61,3.05-1.75,4.26l1.81,1.85h-1.72L370.57,28.13z M370.55,26.42c0.9-0.95,1.33-2.05,1.33-3.35
				c0-2.75-2.18-5-4.95-5c-2.77,0-4.95,2.26-4.95,5c0,2.72,2.21,5,4.95,5c0.9,0,1.95-0.33,2.69-0.9l-2.92-2.93h1.77L370.55,26.42z"
				/>
			<path class="st4" d="M376.38,24.22c0,0.9-0.03,1.92,0.53,2.69c0.53,0.74,1.55,1.15,2.44,1.15c0.87,0,1.81-0.4,2.37-1.08
				c0.64-0.77,0.59-1.82,0.59-2.77v-7.2h1.35v7.57c0,1.31-0.1,2.35-1.06,3.35c-0.83,0.9-2.03,1.38-3.25,1.38
				c-1.14,0-2.31-0.43-3.12-1.24c-1.06-1.01-1.19-2.12-1.19-3.49v-7.57h1.35V24.22z"/>
			<polygon class="st4" points="386.05,17.02 392.31,17.02 392.31,18.28 387.39,18.28 387.39,21.86 392.17,21.86 392.17,23.12 
				387.39,23.12 387.39,27.86 392.31,27.86 392.31,29.11 386.05,29.11 			"/>
			<path class="st4" d="M395.96,29.11h-1.35V17.03h1.75c2.29,0,4.42,0.61,4.42,3.33c0,1.86-1.17,3.17-3.03,3.33l3.85,5.42h-1.65
				l-3.65-5.31h-0.34V29.11z M395.96,22.62h0.41c1.52,0,3.06-0.29,3.06-2.16c0-1.99-1.46-2.18-3.07-2.18h-0.4V22.62z"/>
			<path class="st4" d="M403.3,17.02h6.27v1.25h-4.92v3.59h4.78v1.25h-4.78v4.74h4.92v1.25h-6.27V17.02z M408.64,13.64l-2.45,2.47
				l-0.8-0.45l1.91-2.63L408.64,13.64z"/>
			<polygon class="st4" points="415.07,29.11 413.72,29.11 413.72,18.28 410.8,18.28 410.8,17.03 418.02,17.03 418.02,18.28 
				415.07,18.28 			"/>
			<path class="st4" d="M419.93,25.68l-1.46,3.43H417l5.58-12.66l5.43,12.66h-1.49l-1.43-3.43H419.93z M422.54,19.59l-2.07,4.84
				h4.09L422.54,19.59z"/>
			<path class="st4" d="M430.67,29.11h-1.35V17.03h1.75c2.29,0,4.42,0.61,4.42,3.33c0,1.86-1.17,3.17-3.03,3.33l3.84,5.42h-1.65
				l-3.65-5.31h-0.34V29.11z M430.67,22.62h0.42c1.52,0,3.06-0.29,3.06-2.16c0-1.99-1.46-2.18-3.07-2.18h-0.4V22.62z"/>
			<path class="st4" d="M450,23.08c0,3.48-2.85,6.24-6.3,6.24c-3.45,0-6.3-2.76-6.3-6.24c0-3.46,2.85-6.26,6.3-6.26
				C447.15,16.82,450,19.62,450,23.08 M438.75,23.07c0,2.72,2.21,5,4.95,5c2.74,0,4.95-2.28,4.95-5c0-2.74-2.18-5-4.95-5
				C440.93,18.07,438.75,20.32,438.75,23.07"/>
		</g>
		<g>
			<path class="st6" d="M135.88,40.28c-0.46-0.62-1.05-1.02-1.86-1.02c-0.77,0-1.51,0.59-1.51,1.4c0,2.09,4.91,1.22,4.91,5.37
				c0,2.48-1.54,4.24-4.08,4.24c-1.71,0-2.96-0.99-3.81-2.42l1.56-1.53c0.33,0.95,1.2,1.81,2.24,1.81c0.99,0,1.59-0.84,1.59-1.79
				c0-1.28-1.18-1.64-2.15-2.02c-1.59-0.66-2.76-1.46-2.76-3.39c0-2.05,1.53-3.71,3.62-3.71c1.1,0,2.63,0.54,3.39,1.38L135.88,40.28
				z"/>
			<path class="st6" d="M141.1,39.66v2.73h3.85v2.1h-3.85v3.35h3.99v2.1h-6.41V37.55h6.41v2.1H141.1z"/>
			<path class="st6" d="M154.99,40.84c-0.67-0.82-1.69-1.31-2.73-1.31c-2.32,0-3.65,2.14-3.65,4.27c0,2.09,1.38,4.17,3.63,4.17
				c1.04,0,2.07-0.54,2.74-1.31v2.88c-0.9,0.43-1.81,0.74-2.81,0.74c-3.48,0-6.06-3.01-6.06-6.43c0-3.52,2.48-6.62,6.11-6.62
				c0.97,0,1.92,0.26,2.76,0.72V40.84z"/>
			<path class="st6" d="M164.96,49.94h-2.93l-3.01-5H159v5h-2.42V37.55h3.27c2.45,0,4.14,1.08,4.14,3.73c0,1.58-0.87,3.16-2.53,3.43
				L164.96,49.94z M159,43.25h0.31c1.33,0,2.27-0.39,2.27-1.91c0-1.53-0.97-1.82-2.25-1.82H159V43.25z"/>
			<path class="st6" d="M168.17,39.66v2.73h3.85v2.1h-3.85v3.35h3.99v2.1h-6.41V37.55h6.41v2.1H168.17z"/>
			<path class="st6" d="M177.8,49.94h-2.42V39.66h-2.5v-2.1h7.41v2.1h-2.5V49.94z"/>
			<path class="st6" d="M182.4,47.33l-1.02,2.61h-2.55l4.83-12.72h1.87l4.7,12.72h-2.58l-0.95-2.61H182.4z M184.49,40.86h-0.03
				l-1.36,4.5h2.94L184.49,40.86z"/>
			<path class="st6" d="M199.36,49.94h-2.93l-3.01-5h-0.03v5h-2.42V37.55h3.27c2.45,0,4.14,1.08,4.14,3.73
				c0,1.58-0.87,3.16-2.53,3.43L199.36,49.94z M193.4,43.25h0.31c1.33,0,2.27-0.39,2.27-1.91c0-1.53-0.97-1.82-2.25-1.82h-0.33
				V43.25z"/>
			<path class="st6" d="M203.42,34.5l-2.48,2.47l-1.17-0.72l1.97-2.76L203.42,34.5z M202.57,49.94h-2.42V37.55h2.42V49.94z"/>
			<path class="st6" d="M206.86,47.33l-1.02,2.61h-2.55l4.83-12.72h1.87l4.7,12.72h-2.58l-0.95-2.61H206.86z M208.94,40.86h-0.03
				l-1.36,4.5h2.94L208.94,40.86z"/>
			<path class="st6" d="M220.18,37.55h3.45c3.58,0,5.98,2.68,5.98,6.21c0,3.48-2.46,6.18-6,6.18h-3.44V37.55z M222.6,47.84h0.39
				c2.97,0,4.12-1.64,4.12-4.09c0-2.7-1.38-4.09-4.12-4.09h-0.39V47.84z"/>
			<path class="st6" d="M233.22,39.66v2.73h3.85v2.1h-3.85v3.35h3.99v2.1h-6.41V37.55h6.41v2.1H233.22z"/>
			<path class="st6" d="M248.02,45.9h0.03l2.76-8.35h2.6l-4.82,12.72h-1.41l-4.73-12.72h2.6L248.02,45.9z"/>
			<path class="st6" d="M256.49,49.94h-2.42V37.55h2.42V49.94z"/>
			<path class="st6" d="M258.25,37.22h1.74l6.52,8.66h0.03v-8.33h2.42v12.64h-1.74l-6.52-8.66h-0.03v8.41h-2.42V37.22z"/>
			<path class="st6" d="M279,40.84c-0.67-0.82-1.69-1.31-2.73-1.31c-2.32,0-3.65,2.14-3.65,4.27c0,2.09,1.38,4.17,3.63,4.17
				c1.04,0,2.07-0.54,2.74-1.31v2.88c-0.9,0.43-1.81,0.74-2.81,0.74c-3.48,0-6.06-3.01-6.06-6.43c0-3.52,2.48-6.62,6.11-6.62
				c0.97,0,1.92,0.26,2.76,0.72V40.84z"/>
			<path class="st6" d="M280.53,37.55h2.42v6.94c0,1.53,0.13,3.68,2.19,3.68s2.19-2.15,2.19-3.68v-6.94h2.42v7.41
				c0,3.02-1.28,5.31-4.6,5.31c-3.32,0-4.6-2.28-4.6-5.31V37.55z"/>
			<path class="st6" d="M293.86,47.84h3.42v2.1h-5.83V37.55h2.42V47.84z"/>
			<path class="st6" d="M300.58,47.33l-1.02,2.61h-2.55l4.83-12.72h1.87l4.7,12.72h-2.58l-0.95-2.61H300.58z M302.67,40.86h-0.03
				l-1.36,4.5h2.94L302.67,40.86z"/>
			<path class="st6" d="M317.44,40.84c-0.67-0.82-1.69-1.31-2.73-1.31c-2.32,0-3.65,2.14-3.65,4.27c0,2.09,1.38,4.17,3.63,4.17
				c1.04,0,2.07-0.54,2.74-1.31v2.88c-0.9,0.43-1.81,0.74-2.81,0.74c-3.48,0-6.06-3.01-6.06-6.43c0-3.52,2.48-6.62,6.11-6.62
				c0.97,0,1.92,0.26,2.76,0.72V40.84z"/>
			<path class="st6" d="M321.45,49.94h-2.42V37.55h2.42V49.94z"/>
			<path class="st6" d="M328.75,50.27c-3.78,0-6.13-2.89-6.13-6.54c0-3.68,2.43-6.51,6.13-6.51c3.7,0,6.13,2.83,6.13,6.51
				C334.88,47.38,332.53,50.27,328.75,50.27z M328.75,39.61c-2.28,0-3.63,2.02-3.63,4.03c0,1.91,0.95,4.26,3.63,4.26
				s3.63-2.35,3.63-4.26C332.38,41.63,331.03,39.61,328.75,39.61z M331.07,34.5l-2.48,2.47l-1.17-0.72l1.97-2.76L331.07,34.5z"/>
			<path class="st6" d="M336.06,37.22h1.74l6.52,8.66h0.03v-8.33h2.42v12.64h-1.74l-6.52-8.66h-0.03v8.41h-2.42V37.22z"/>
			<path class="st6" d="M352.13,37.55h2.81l2.17,4.31l2.37-4.31h2.83l-3.91,6.71v5.69h-2.42v-5.69L352.13,37.55z"/>
			<path class="st6" d="M373.51,40.28c-0.46-0.62-1.05-1.02-1.86-1.02c-0.77,0-1.51,0.59-1.51,1.4c0,2.09,4.91,1.22,4.91,5.37
				c0,2.48-1.54,4.24-4.08,4.24c-1.71,0-2.96-0.99-3.81-2.42l1.56-1.53c0.33,0.95,1.2,1.81,2.24,1.81c0.99,0,1.59-0.84,1.59-1.79
				c0-1.28-1.18-1.64-2.15-2.02c-1.59-0.66-2.76-1.46-2.76-3.39c0-2.05,1.53-3.71,3.62-3.71c1.1,0,2.63,0.54,3.39,1.38L373.51,40.28
				z"/>
			<path class="st6" d="M378.74,39.66v2.73h3.85v2.1h-3.85v3.35h3.99v2.1h-6.41V37.55h6.41v2.1H378.74z"/>
			<path class="st6" d="M392.73,49.94h-2.93l-3.01-5h-0.03v5h-2.42V37.55h3.27c2.45,0,4.14,1.08,4.14,3.73
				c0,1.58-0.87,3.16-2.53,3.43L392.73,49.94z M386.76,43.25h0.31c1.33,0,2.27-0.39,2.27-1.91c0-1.53-0.97-1.82-2.25-1.82h-0.33
				V43.25z"/>
			<path class="st6" d="M397.97,45.9H398l2.76-8.35h2.6l-4.82,12.72h-1.41l-4.73-12.72h2.6L397.97,45.9z"/>
			<path class="st6" d="M406.43,49.94h-2.42V37.55h2.42V49.94z"/>
			<path class="st6" d="M416.47,40.84c-0.67-0.82-1.69-1.31-2.73-1.31c-2.32,0-3.65,2.14-3.65,4.27c0,2.09,1.38,4.17,3.63,4.17
				c1.04,0,2.07-0.54,2.74-1.31v2.88c-0.9,0.43-1.81,0.74-2.81,0.74c-3.48,0-6.06-3.01-6.06-6.43c0-3.52,2.48-6.62,6.11-6.62
				c0.97,0,1.92,0.26,2.76,0.72V40.84z"/>
			<path class="st6" d="M420.48,49.94h-2.42V37.55h2.42V49.94z"/>
			<path class="st6" d="M427.78,50.27c-3.78,0-6.13-2.89-6.13-6.54c0-3.68,2.43-6.51,6.13-6.51c3.7,0,6.13,2.83,6.13,6.51
				C433.91,47.38,431.56,50.27,427.78,50.27z M427.78,39.61c-2.28,0-3.63,2.02-3.63,4.03c0,1.91,0.95,4.26,3.63,4.26
				s3.63-2.35,3.63-4.26C431.41,41.63,430.07,39.61,427.78,39.61z"/>
			<path class="st6" d="M440.93,40.28c-0.46-0.62-1.05-1.02-1.86-1.02c-0.77,0-1.51,0.59-1.51,1.4c0,2.09,4.91,1.22,4.91,5.37
				c0,2.48-1.54,4.24-4.08,4.24c-1.71,0-2.96-0.99-3.81-2.42l1.56-1.53c0.33,0.95,1.2,1.81,2.24,1.81c0.99,0,1.59-0.84,1.59-1.79
				c0-1.28-1.18-1.64-2.15-2.02c-1.59-0.66-2.76-1.46-2.76-3.39c0-2.05,1.53-3.71,3.62-3.71c1.1,0,2.63,0.54,3.39,1.38L440.93,40.28
				z"/>
			<path class="st6" d="M448.42,37.55h2.42v6.94c0,1.53,0.13,3.68,2.19,3.68s2.19-2.15,2.19-3.68v-6.94h2.42v7.41
				c0,3.02-1.28,5.31-4.6,5.31c-3.32,0-4.6-2.28-4.6-5.31V37.55z"/>
			<path class="st6" d="M459.34,37.22h1.74l6.52,8.66h0.03v-8.33h2.42v12.64h-1.74l-6.52-8.66h-0.03v8.41h-2.42V37.22z"/>
			<path class="st6" d="M474.22,49.94h-2.42V37.55h2.42V49.94z"/>
			<path class="st6" d="M480.44,45.9h0.03l2.76-8.35h2.6l-4.82,12.72h-1.41l-4.73-12.72h2.6L480.44,45.9z"/>
			<path class="st6" d="M488.9,39.66v2.73h3.85v2.1h-3.85v3.35h3.99v2.1h-6.41V37.55h6.41v2.1H488.9z"/>
			<path class="st6" d="M502.89,49.94h-2.93l-3.01-5h-0.03v5h-2.42V37.55h3.27c2.45,0,4.14,1.08,4.14,3.73
				c0,1.58-0.87,3.16-2.53,3.43L502.89,49.94z M496.92,43.25h0.31c1.33,0,2.27-0.39,2.27-1.91c0-1.53-0.97-1.82-2.25-1.82h-0.33
				V43.25z"/>
			<path class="st6" d="M509.51,40.28c-0.46-0.62-1.05-1.02-1.86-1.02c-0.77,0-1.51,0.59-1.51,1.4c0,2.09,4.91,1.22,4.91,5.37
				c0,2.48-1.54,4.24-4.08,4.24c-1.71,0-2.96-0.99-3.81-2.42l1.56-1.53c0.33,0.95,1.2,1.81,2.24,1.81c0.99,0,1.59-0.84,1.59-1.79
				c0-1.28-1.18-1.64-2.15-2.02c-1.59-0.66-2.76-1.46-2.76-3.39c0-2.05,1.53-3.71,3.62-3.71c1.1,0,2.63,0.54,3.39,1.38L509.51,40.28
				z"/>
			<path class="st6" d="M514.74,49.94h-2.42V37.55h2.42V49.94z"/>
			<path class="st6" d="M520.52,49.94h-2.42V39.66h-2.5v-2.1h7.41v2.1h-2.5V49.94z"/>
			<path class="st6" d="M525.12,47.33l-1.02,2.61h-2.55l4.83-12.72h1.87l4.7,12.72h-2.58l-0.95-2.61H525.12z M527.21,40.86h-0.03
				l-1.36,4.5h2.94L527.21,40.86z"/>
			<path class="st6" d="M542.08,49.94h-2.93l-3.01-5h-0.03v5h-2.42V37.55h3.27c2.45,0,4.14,1.08,4.14,3.73
				c0,1.58-0.87,3.16-2.53,3.43L542.08,49.94z M536.12,43.25h0.31c1.33,0,2.27-0.39,2.27-1.91c0-1.53-0.97-1.82-2.25-1.82h-0.33
				V43.25z"/>
			<path class="st6" d="M545.29,49.94h-2.42V37.55h2.42V49.94z"/>
			<path class="st6" d="M552.58,50.27c-3.78,0-6.13-2.89-6.13-6.54c0-3.68,2.43-6.51,6.13-6.51c3.7,0,6.13,2.83,6.13,6.51
				C558.71,47.38,556.36,50.27,552.58,50.27z M552.58,39.61c-2.28,0-3.63,2.02-3.63,4.03c0,1.91,0.95,4.26,3.63,4.26
				s3.63-2.35,3.63-4.26C556.22,41.63,554.87,39.61,552.58,39.61z"/>
			<path class="st6" d="M565.73,40.28c-0.46-0.62-1.05-1.02-1.86-1.02c-0.77,0-1.51,0.59-1.51,1.4c0,2.09,4.91,1.22,4.91,5.37
				c0,2.48-1.54,4.24-4.08,4.24c-1.71,0-2.96-0.99-3.81-2.42l1.56-1.53c0.33,0.95,1.2,1.81,2.24,1.81c0.99,0,1.59-0.84,1.59-1.79
				c0-1.28-1.18-1.64-2.15-2.02c-1.59-0.66-2.76-1.46-2.76-3.39c0-2.05,1.53-3.71,3.62-3.71c1.1,0,2.63,0.54,3.39,1.38L565.73,40.28
				z"/>
		</g>
		<g>
			<path class="st4" d="M130.18,57.34h2.5c3.7,0,6.77,1.95,6.77,5.97c0,4.11-3.01,6.1-6.82,6.1h-2.45V57.34z M131.68,68.04h0.53
				c3.07,0,5.73-1.15,5.73-4.66c0-3.52-2.66-4.66-5.73-4.66h-0.53V68.04z"/>
			<path class="st4" d="M142.4,69.41h-1.5V57.34h1.5V69.41z"/>
			<path class="st4" d="M152.17,69.41h-1.82l-3.55-5.11h-0.62v5.11h-1.5V57.34h1.82c1.07,0,2.23,0.02,3.19,0.56
				c1.01,0.59,1.58,1.73,1.58,2.88c0,1.73-1.15,3.17-2.9,3.38L152.17,69.41z M146.16,63.06h0.48c1.54,0,3.2-0.29,3.2-2.21
				c0-1.89-1.79-2.16-3.28-2.16h-0.4V63.06z"/>
			<path class="st4" d="M153.35,57.34h6.48v1.38h-4.98v3.38h4.83v1.38h-4.83v4.56h4.98v1.38h-6.48V57.34z"/>
			<path class="st4" d="M170.47,59.65c-0.86-0.77-2.05-1.18-3.19-1.18c-2.71,0-4.77,2.26-4.77,4.93c0,2.64,2.05,4.9,4.74,4.9
				c1.18,0,2.32-0.45,3.22-1.25v1.78c-0.93,0.54-2.11,0.85-3.17,0.85c-3.44,0-6.29-2.74-6.29-6.23c0-3.57,2.87-6.35,6.42-6.35
				c1.06,0,2.13,0.26,3.04,0.82V59.65z"/>
			<path class="st4" d="M181.05,59.65c-0.86-0.77-2.05-1.18-3.19-1.18c-2.71,0-4.77,2.26-4.77,4.93c0,2.64,2.05,4.9,4.74,4.9
				c1.18,0,2.32-0.45,3.22-1.25v1.78c-0.93,0.54-2.11,0.85-3.17,0.85c-3.44,0-6.29-2.74-6.29-6.23c0-3.57,2.87-6.35,6.42-6.35
				c1.06,0,2.13,0.26,3.04,0.82V59.65z"/>
			<path class="st4" d="M184.29,69.41h-1.5V57.34h1.5V69.41z"/>
			<path class="st4" d="M198.34,63.38c0,3.59-2.83,6.29-6.32,6.29c-3.49,0-6.32-2.71-6.32-6.29c0-3.46,2.87-6.29,6.32-6.29
				C195.48,57.09,198.34,59.92,198.34,63.38z M196.84,63.38c0-2.66-1.98-4.88-4.82-4.88c-2.83,0-4.82,2.23-4.82,4.88
				c0,2.75,2.21,4.88,4.82,4.88C194.63,68.26,196.84,66.13,196.84,63.38z M194.16,54.19l-2.62,2.38l-0.7-0.43l2-2.66L194.16,54.19z"
				/>
			<path class="st4" d="M199.65,56.77l9.06,9.49v-8.92h1.5v12.56l-9.06-9.49v9h-1.5V56.77z"/>
			<path class="st4" d="M227.97,63.33v0.48c0,3.31-2.34,5.86-5.71,5.86s-6.1-2.91-6.1-6.26c0-3.47,2.79-6.32,6.26-6.32
				c1.87,0,3.73,0.85,4.91,2.34l-1.06,1.01c-0.86-1.18-2.32-1.97-3.79-1.97c-2.71,0-4.82,2.19-4.82,4.9c0,2.53,2.08,4.93,4.69,4.93
				c1.87,0,3.89-1.62,3.95-3.59h-3.12v-1.38H227.97z"/>
			<path class="st4" d="M229.46,57.34h6.48v1.38h-4.98v3.38h4.83v1.38h-4.83v4.56h4.98v1.38h-6.48V57.34z"/>
			<path class="st4" d="M237.65,56.77l9.06,9.49v-8.92h1.5v12.56l-9.06-9.49v9h-1.5V56.77z"/>
			<path class="st4" d="M250.35,57.34h6.48v1.38h-4.98v3.38h4.83v1.38h-4.83v4.56h4.98v1.38h-6.48V57.34z"/>
			<path class="st4" d="M266.2,69.41h-1.82l-3.55-5.11h-0.62v5.11h-1.5V57.34h1.82c1.07,0,2.23,0.02,3.19,0.56
				c1.01,0.59,1.58,1.73,1.58,2.88c0,1.73-1.15,3.17-2.9,3.38L266.2,69.41z M260.19,63.06h0.48c1.54,0,3.2-0.29,3.2-2.21
				c0-1.89-1.79-2.16-3.28-2.16h-0.4V63.06z"/>
			<path class="st4" d="M269.09,66.39l-1.38,3.03h-1.62l5.76-12.58l5.76,12.58H276l-1.38-3.03H269.09z M271.86,60.13l-2.15,4.88H274
				L271.86,60.13z"/>
			<path class="st4" d="M280.13,68.04h3.67v1.38h-5.17V57.34h1.5V68.04z"/>
			<path class="st4" d="M289.28,57.34h2.5c3.7,0,6.77,1.95,6.77,5.97c0,4.11-3.01,6.1-6.82,6.1h-2.45V57.34z M290.78,68.04h0.53
				c3.07,0,5.73-1.15,5.73-4.66c0-3.52-2.66-4.66-5.73-4.66h-0.53V68.04z"/>
			<path class="st4" d="M300.05,57.34h6.48v1.38h-4.98v3.38h4.83v1.38h-4.83v4.56h4.98v1.38h-6.48V57.34z"/>
			<path class="st4" d="M312.88,57.34h1.47c2.27,0,4.42,0.59,4.42,3.31c0,0.88-0.48,1.9-1.3,2.29v0.03
				c1.42,0.26,2.42,1.65,2.42,3.06c0,2.42-2.06,3.38-4.19,3.38h-2.82V57.34z M314.38,62.69h0.38c1.42,0,2.59-0.29,2.59-2.02
				c0-1.7-1.15-1.98-2.56-1.98h-0.42V62.69z M314.38,68.07h1.15c1.39,0,2.85-0.42,2.85-2.13c0-1.7-1.73-2.05-3.07-2.05h-0.93V68.07z
				"/>
			<path class="st4" d="M323.02,69.41h-1.5V57.34h1.5V69.41z"/>
			<path class="st4" d="M325.15,57.34h1.47c2.27,0,4.42,0.59,4.42,3.31c0,0.88-0.48,1.9-1.3,2.29v0.03
				c1.42,0.26,2.42,1.65,2.42,3.06c0,2.42-2.06,3.38-4.19,3.38h-2.82V57.34z M326.66,62.69h0.38c1.42,0,2.59-0.29,2.59-2.02
				c0-1.7-1.15-1.98-2.56-1.98h-0.42V62.69z M326.66,68.07h1.15c1.39,0,2.85-0.42,2.85-2.13c0-1.7-1.73-2.05-3.07-2.05h-0.93V68.07z
				"/>
			<path class="st4" d="M335.34,68.04h3.67v1.38h-5.17V57.34h1.5V68.04z"/>
			<path class="st4" d="M341.46,69.41h-1.5V57.34h1.5V69.41z"/>
			<path class="st4" d="M355.51,63.38c0,3.59-2.83,6.29-6.32,6.29c-3.49,0-6.32-2.71-6.32-6.29c0-3.46,2.87-6.29,6.32-6.29
				C352.64,57.09,355.51,59.92,355.51,63.38z M354,63.38c0-2.66-1.98-4.88-4.82-4.88c-2.83,0-4.82,2.23-4.82,4.88
				c0,2.75,2.21,4.88,4.82,4.88C351.8,68.26,354,66.13,354,63.38z"/>
			<path class="st4" d="M360.21,69.41h-1.5V58.72h-2.86v-1.38h7.23v1.38h-2.87V69.41z"/>
			<path class="st4" d="M364.26,57.34h6.48v1.38h-4.98v3.38h4.83v1.38h-4.83v4.56h4.98v1.38h-6.48V57.34z"/>
			<path class="st4" d="M381.38,59.65c-0.86-0.77-2.05-1.18-3.19-1.18c-2.71,0-4.77,2.26-4.77,4.93c0,2.64,2.05,4.9,4.74,4.9
				c1.18,0,2.32-0.45,3.22-1.25v1.78c-0.93,0.54-2.11,0.85-3.17,0.85c-3.44,0-6.29-2.74-6.29-6.23c0-3.57,2.87-6.35,6.42-6.35
				c1.06,0,2.13,0.26,3.04,0.82V59.65z"/>
			<path class="st4" d="M384.88,66.39l-1.38,3.03h-1.62l5.76-12.58l5.76,12.58h-1.62l-1.38-3.03H384.88z M387.65,60.13l-2.15,4.88
				h4.29L387.65,60.13z"/>
			<path class="st4" d="M399.78,59.63c-0.45-0.75-1.02-1.14-1.94-1.14c-0.96,0-2.02,0.66-2.02,1.71c0,0.94,0.93,1.44,1.68,1.73
				l0.86,0.34c1.71,0.67,2.99,1.62,2.99,3.63c0,2.19-1.7,3.76-3.86,3.76c-1.95,0-3.47-1.44-3.73-3.38l1.52-0.32
				c-0.02,1.33,1.04,2.29,2.34,2.29c1.3,0,2.23-1.09,2.23-2.35c0-1.3-1.04-1.86-2.08-2.29l-0.83-0.35
				c-1.38-0.59-2.62-1.38-2.62-3.06c0-1.95,1.73-3.12,3.55-3.12c1.34,0,2.45,0.66,3.11,1.82L399.78,59.63z"/>
			<path class="st4" d="M406.38,57.34h1.73l2.96,5.15l2.96-5.15h1.73l-3.94,6.82v5.25h-1.5v-5.25L406.38,57.34z"/>
			<path class="st4" d="M426.78,59.63c-0.45-0.75-1.02-1.14-1.94-1.14c-0.96,0-2.02,0.66-2.02,1.71c0,0.94,0.93,1.44,1.68,1.73
				l0.86,0.34c1.71,0.67,2.99,1.62,2.99,3.63c0,2.19-1.7,3.76-3.86,3.76c-1.95,0-3.47-1.44-3.73-3.38l1.52-0.32
				c-0.02,1.33,1.04,2.29,2.34,2.29c1.3,0,2.23-1.09,2.23-2.35c0-1.3-1.04-1.86-2.08-2.29l-0.83-0.35
				c-1.38-0.59-2.62-1.38-2.62-3.06c0-1.95,1.73-3.12,3.55-3.12c1.34,0,2.45,0.66,3.11,1.82L426.78,59.63z"/>
			<path class="st4" d="M430.01,57.34h6.48v1.38h-4.98v3.38h4.83v1.38h-4.83v4.56h4.98v1.38h-6.48V57.34z"/>
			<path class="st4" d="M445.86,69.41h-1.82l-3.55-5.11h-0.62v5.11h-1.5V57.34h1.82c1.07,0,2.23,0.02,3.19,0.56
				c1.01,0.59,1.58,1.73,1.58,2.88c0,1.73-1.15,3.17-2.9,3.38L445.86,69.41z M439.85,63.06h0.48c1.54,0,3.2-0.29,3.2-2.21
				c0-1.89-1.79-2.16-3.28-2.16h-0.4V63.06z"/>
			<path class="st4" d="M451.02,66.28l3.59-8.93h1.65l-5.23,12.71l-5.25-12.71h1.65L451.02,66.28z"/>
			<path class="st4" d="M458.73,69.41h-1.5V57.34h1.5V69.41z"/>
			<path class="st4" d="M469.78,59.65c-0.86-0.77-2.05-1.18-3.19-1.18c-2.71,0-4.77,2.26-4.77,4.93c0,2.64,2.05,4.9,4.74,4.9
				c1.18,0,2.32-0.45,3.22-1.25v1.78c-0.93,0.54-2.11,0.85-3.17,0.85c-3.44,0-6.29-2.74-6.29-6.23c0-3.57,2.87-6.35,6.42-6.35
				c1.06,0,2.13,0.26,3.04,0.82V59.65z"/>
			<path class="st4" d="M473.02,69.41h-1.5V57.34h1.5V69.41z"/>
			<path class="st4" d="M487.07,63.38c0,3.59-2.83,6.29-6.32,6.29c-3.49,0-6.32-2.71-6.32-6.29c0-3.46,2.87-6.29,6.32-6.29
				C484.21,57.09,487.07,59.92,487.07,63.38z M485.57,63.38c0-2.66-1.98-4.88-4.82-4.88c-2.83,0-4.82,2.23-4.82,4.88
				c0,2.75,2.21,4.88,4.82,4.88C483.36,68.26,485.57,66.13,485.57,63.38z"/>
			<path class="st4" d="M493.89,59.63c-0.45-0.75-1.02-1.14-1.94-1.14c-0.96,0-2.02,0.66-2.02,1.71c0,0.94,0.93,1.44,1.68,1.73
				l0.86,0.34c1.71,0.67,2.99,1.62,2.99,3.63c0,2.19-1.7,3.76-3.86,3.76c-1.95,0-3.47-1.44-3.73-3.38l1.52-0.32
				c-0.02,1.33,1.04,2.29,2.34,2.29c1.3,0,2.23-1.09,2.23-2.35c0-1.3-1.04-1.86-2.08-2.29l-0.83-0.35
				c-1.38-0.59-2.62-1.38-2.62-3.06c0-1.95,1.73-3.12,3.55-3.12c1.34,0,2.45,0.66,3.11,1.82L493.89,59.63z"/>
			<path class="st4" d="M501.61,57.34h2.5c3.7,0,6.77,1.95,6.77,5.97c0,4.11-3.01,6.1-6.82,6.1h-2.45V57.34z M503.12,68.04h0.53
				c3.07,0,5.73-1.15,5.73-4.66c0-3.52-2.66-4.66-5.73-4.66h-0.53V68.04z"/>
			<path class="st4" d="M513.84,69.41h-1.5V57.34h1.5V69.41z"/>
			<path class="st4" d="M527.09,63.33v0.48c0,3.31-2.34,5.86-5.71,5.86s-6.1-2.91-6.1-6.26c0-3.47,2.79-6.32,6.26-6.32
				c1.87,0,3.73,0.85,4.91,2.34l-1.06,1.01c-0.86-1.18-2.32-1.97-3.79-1.97c-2.71,0-4.82,2.19-4.82,4.9c0,2.53,2.08,4.93,4.69,4.93
				c1.87,0,3.89-1.62,3.95-3.59h-3.12v-1.38H527.09z"/>
			<path class="st4" d="M530.03,69.41h-1.5V57.34h1.5V69.41z"/>
			<path class="st4" d="M535.53,69.41h-1.5V58.72h-2.86v-1.38h7.23v1.38h-2.87V69.41z"/>
			<path class="st4" d="M540.01,66.39l-1.38,3.03h-1.62l5.76-12.58l5.76,12.58h-1.62l-1.38-3.03H540.01z M542.78,60.13l-2.15,4.88
				h4.29L542.78,60.13z"/>
			<path class="st4" d="M551.05,68.04h3.67v1.38h-5.17V57.34h1.5V68.04z"/>
			<path class="st4" d="M555.71,57.34h6.48v1.38h-4.98v3.38h4.83v1.38h-4.83v4.56h4.98v1.38h-6.48V57.34z"/>
			<path class="st4" d="M569.41,59.63c-0.45-0.75-1.02-1.14-1.94-1.14c-0.96,0-2.02,0.66-2.02,1.71c0,0.94,0.93,1.44,1.68,1.73
				l0.86,0.34c1.71,0.67,2.99,1.62,2.99,3.63c0,2.19-1.7,3.76-3.86,3.76c-1.95,0-3.47-1.44-3.73-3.38l1.52-0.32
				c-0.02,1.33,1.04,2.29,2.34,2.29c1.3,0,2.23-1.09,2.23-2.35c0-1.3-1.04-1.86-2.08-2.29l-0.83-0.35
				c-1.38-0.59-2.62-1.38-2.62-3.06c0-1.95,1.73-3.12,3.55-3.12c1.34,0,2.45,0.66,3.11,1.82L569.41,59.63z"/>
			<path class="st4" d="M577.13,57.34h2.5c3.7,0,6.77,1.95,6.77,5.97c0,4.11-3.01,6.1-6.82,6.1h-2.45V57.34z M578.64,68.04h0.53
				c3.07,0,5.73-1.15,5.73-4.66c0-3.52-2.66-4.66-5.73-4.66h-0.53V68.04z"/>
			<path class="st4" d="M587.9,57.34h6.48v1.38h-4.98v3.38h4.83v1.38h-4.83v4.56h4.98v1.38h-6.48V57.34z"/>
			<path class="st4" d="M602.32,69.41h-1.5V57.34h1.5V69.41z"/>
			<path class="st4" d="M604.43,56.77l9.06,9.49v-8.92h1.5v12.56l-9.06-9.49v9h-1.5V56.77z"/>
			<path class="st4" d="M618.62,58.72v3.39h4.19v1.38h-4.19v5.92h-1.5V57.34h5.84v1.38H618.62z"/>
			<path class="st4" d="M636.51,63.38c0,3.59-2.83,6.29-6.32,6.29c-3.49,0-6.32-2.71-6.32-6.29c0-3.46,2.87-6.29,6.32-6.29
				C633.65,57.09,636.51,59.92,636.51,63.38z M635.01,63.38c0-2.66-1.98-4.88-4.82-4.88c-2.83,0-4.82,2.23-4.82,4.88
				c0,2.75,2.21,4.88,4.82,4.88C632.8,68.26,635.01,66.13,635.01,63.38z"/>
			<path class="st4" d="M645.47,69.41h-1.82l-3.55-5.11h-0.62v5.11h-1.5V57.34h1.82c1.07,0,2.23,0.02,3.19,0.56
				c1.01,0.59,1.58,1.73,1.58,2.88c0,1.73-1.15,3.17-2.9,3.38L645.47,69.41z M639.47,63.06h0.48c1.54,0,3.2-0.29,3.2-2.21
				c0-1.89-1.79-2.16-3.28-2.16h-0.4V63.06z"/>
			<path class="st4" d="M648.7,61.44h-0.03l-1.41,7.97h-1.55l2.46-12.58l4.15,9.51l4.15-9.51l2.46,12.58h-1.55l-1.41-7.97h-0.03
				l-3.62,8.23L648.7,61.44z"/>
			<path class="st4" d="M661.98,66.39l-1.38,3.03h-1.62l5.76-12.58l5.76,12.58h-1.62l-1.38-3.03H661.98z M664.75,60.13l-2.15,4.88
				h4.29L664.75,60.13z"/>
			<path class="st4" d="M680.3,59.65c-0.86-0.77-2.05-1.18-3.19-1.18c-2.71,0-4.77,2.26-4.77,4.93c0,2.64,2.05,4.9,4.74,4.9
				c1.18,0,2.32-0.45,3.22-1.25v1.78c-0.93,0.54-2.11,0.85-3.17,0.85c-3.44,0-6.29-2.74-6.29-6.23c0-3.57,2.87-6.35,6.42-6.35
				c1.06,0,2.13,0.26,3.04,0.82V59.65z"/>
			<path class="st4" d="M683.55,69.41h-1.5V57.34h1.5V69.41z"/>
			<path class="st4" d="M697.6,63.38c0,3.59-2.83,6.29-6.32,6.29s-6.32-2.71-6.32-6.29c0-3.46,2.86-6.29,6.32-6.29
				C694.73,57.09,697.6,59.92,697.6,63.38z M696.09,63.38c0-2.66-1.98-4.88-4.82-4.88s-4.82,2.23-4.82,4.88
				c0,2.75,2.21,4.88,4.82,4.88C693.89,68.26,696.09,66.13,696.09,63.38z M693.42,54.19l-2.62,2.38l-0.7-0.43l2-2.66L693.42,54.19z"
				/>
			<path class="st4" d="M698.91,56.77l9.06,9.49v-8.92h1.5v12.56l-9.06-9.49v9h-1.5V56.77z"/>
		</g>
	</g>
	<g>
		<path class="st4" d="M55.13,64.34c0,1.34-1.05,2.39-2.42,2.39c-1.35,0-2.43-1.05-2.43-2.39c0-1.31,1.08-2.36,2.43-2.36
			C54.08,61.98,55.13,63.03,55.13,64.34 M50.88,64.34c0,1.05,0.78,1.89,1.84,1.89c1.04,0,1.8-0.84,1.8-1.87
			c0-1.05-0.76-1.9-1.81-1.9C51.66,62.46,50.88,63.31,50.88,64.34 M52.34,65.58h-0.55v-2.36c0.22-0.04,0.52-0.07,0.91-0.07
			c0.45,0,0.65,0.07,0.82,0.17c0.13,0.1,0.23,0.29,0.23,0.52c0,0.26-0.2,0.46-0.49,0.55v0.03c0.23,0.09,0.36,0.26,0.43,0.58
			c0.07,0.36,0.12,0.5,0.17,0.59h-0.59c-0.07-0.09-0.12-0.3-0.19-0.58c-0.04-0.26-0.19-0.37-0.49-0.37h-0.26V65.58z M52.35,64.24
			h0.26c0.3,0,0.55-0.1,0.55-0.35c0-0.22-0.16-0.36-0.5-0.36c-0.14,0-0.24,0.01-0.3,0.03V64.24z"/>
		<path class="st4" d="M20.36,19.91v1.34c0,0.19,0.03,0.33,0.17,0.33c0.13,0,0.17-0.14,0.17-0.33v-1.34h0.29v1.34
			c0,0.49-0.22,0.62-0.45,0.62c-0.23,0-0.45-0.1-0.45-0.62v-1.34H20.36z"/>
		<polygon class="st4" points="21.55,19.91 21.89,21.22 21.9,21.22 21.9,19.91 22.16,19.91 22.16,21.83 21.83,21.83 21.48,20.48 
			21.48,20.48 21.48,21.83 21.22,21.83 21.22,19.91 		"/>
		<rect x="22.43" y="19.91" class="st4" width="0.29" height="1.92"/>
		<polygon class="st4" points="23.2,19.91 23.4,21.33 23.41,21.33 23.62,19.91 23.91,19.91 23.59,21.83 23.22,21.83 22.9,19.91 		
			"/>
		<polygon class="st4" points="24.87,19.91 24.87,20.22 24.37,20.22 24.37,20.67 24.84,20.67 24.84,20.99 24.37,20.99 24.37,21.51 
			24.89,21.51 24.89,21.83 24.08,21.83 24.08,19.91 		"/>
		<path class="st4" d="M25.07,19.91h0.53c0.23,0,0.38,0.17,0.38,0.49c0,0.26-0.08,0.43-0.24,0.47v0c0.19,0.04,0.23,0.18,0.23,0.59
			c0,0.2,0.01,0.31,0.06,0.34v0.02h-0.31c-0.03-0.05-0.03-0.13-0.04-0.2l-0.01-0.37c0-0.15-0.05-0.24-0.17-0.24h-0.15v0.81h-0.29
			V19.91z M25.36,20.74h0.12c0.14,0,0.22-0.08,0.22-0.29c0-0.18-0.07-0.27-0.2-0.27h-0.13V20.74z"/>
		<path class="st4" d="M26.45,21.23v0.06c0,0.18,0.04,0.3,0.19,0.3c0.09,0,0.17-0.08,0.17-0.24c0-0.18-0.07-0.24-0.26-0.33
			c-0.25-0.12-0.37-0.26-0.37-0.58c0-0.37,0.17-0.56,0.44-0.56c0.25,0,0.44,0.15,0.44,0.51v0.05h-0.27c0-0.18-0.05-0.28-0.16-0.28
			c-0.13,0-0.16,0.11-0.16,0.22c0,0.12,0.03,0.19,0.15,0.26l0.22,0.13c0.21,0.13,0.27,0.27,0.27,0.51c0,0.41-0.18,0.59-0.49,0.59
			c-0.32,0-0.45-0.2-0.45-0.56v-0.08H26.45z"/>
		<rect x="27.32" y="19.91" class="st4" width="0.29" height="1.92"/>
		<path class="st4" d="M27.89,19.91h0.47c0.4,0,0.47,0.37,0.47,0.93c0,0.68-0.11,0.99-0.49,0.99h-0.45V19.91z M28.18,21.54h0.13
			c0.2,0,0.24-0.17,0.24-0.69c0-0.44-0.03-0.66-0.24-0.66h-0.12V21.54z"/>
		<path class="st4" d="M29.27,19.91h0.35L30,21.83h-0.3l-0.07-0.41h-0.38l-0.07,0.41h-0.3L29.27,19.91z M29.31,21.1h0.28l-0.14-0.86
			h0L29.31,21.1z"/>
		<path class="st4" d="M30.15,19.91h0.47c0.4,0,0.47,0.37,0.47,0.93c0,0.68-0.11,0.99-0.49,0.99h-0.45V19.91z M30.44,21.54h0.13
			c0.2,0,0.24-0.17,0.24-0.69c0-0.44-0.03-0.66-0.24-0.66h-0.12V21.54z"/>
		<path class="st4" d="M32.06,19.91h0.35l0.38,1.92h-0.3l-0.07-0.41h-0.38l-0.07,0.41h-0.3L32.06,19.91z M32.1,21.1h0.28l-0.14-0.86
			h0L32.1,21.1z"/>
		<path class="st4" d="M33.2,19.91v1.34c0,0.19,0.03,0.33,0.17,0.33c0.13,0,0.17-0.14,0.17-0.33v-1.34h0.29v1.34
			c0,0.49-0.22,0.62-0.45,0.62c-0.23,0-0.45-0.1-0.45-0.62v-1.34H33.2z"/>
		<polygon class="st4" points="34.89,19.91 34.89,20.22 34.58,20.22 34.58,21.83 34.29,21.83 34.29,20.22 33.98,20.22 33.98,19.91 
					"/>
		<path class="st4" d="M35.5,19.87c0.43,0,0.48,0.41,0.48,1c0,0.58-0.05,1-0.48,1c-0.43,0-0.48-0.41-0.48-1
			C35.02,20.28,35.07,19.87,35.5,19.87 M35.5,21.58c0.17,0,0.2-0.2,0.2-0.71c0-0.51-0.03-0.71-0.2-0.71c-0.17,0-0.2,0.2-0.2,0.71
			C35.31,21.38,35.33,21.58,35.5,21.58"/>
		<polygon class="st4" points="36.52,19.91 36.87,21.22 36.87,21.22 36.87,19.91 37.13,19.91 37.13,21.83 36.81,21.83 36.46,20.48 
			36.46,20.48 36.46,21.83 36.19,21.83 36.19,19.91 		"/>
		<path class="st4" d="M37.82,19.87c0.43,0,0.48,0.41,0.48,1c0,0.58-0.05,1-0.48,1c-0.43,0-0.48-0.41-0.48-1
			C37.34,20.28,37.4,19.87,37.82,19.87 M37.82,21.58c0.17,0,0.2-0.2,0.2-0.71c0-0.51-0.03-0.71-0.2-0.71c-0.17,0-0.2,0.2-0.2,0.71
			C37.63,21.38,37.66,21.58,37.82,21.58"/>
		<polygon class="st4" points="38.52,19.91 38.95,19.91 39.15,21.26 39.15,21.26 39.36,19.91 39.78,19.91 39.78,21.83 39.52,21.83 
			39.52,20.29 39.51,20.29 39.26,21.83 39.04,21.83 38.79,20.29 38.78,20.29 38.78,21.83 38.52,21.83 		"/>
		<path class="st4" d="M40.3,19.91h0.35l0.38,1.92h-0.3l-0.07-0.41h-0.38l-0.07,0.41h-0.3L40.3,19.91z M40.34,21.1h0.28l-0.14-0.86
			h0L40.34,21.1z"/>
		<path class="st4" d="M41.65,19.91h0.47c0.4,0,0.47,0.37,0.47,0.93c0,0.68-0.11,0.99-0.49,0.99h-0.45V19.91z M41.94,21.54h0.13
			c0.2,0,0.24-0.17,0.24-0.69c0-0.44-0.03-0.66-0.25-0.66h-0.12V21.54z"/>
		<polygon class="st4" points="43.59,19.91 43.59,20.22 43.08,20.22 43.08,20.67 43.56,20.67 43.56,20.99 43.08,20.99 43.08,21.51 
			43.61,21.51 43.61,21.83 42.79,21.83 42.79,19.91 		"/>
		<path class="st4" d="M45.07,22.06l-0.17-0.24c-0.02,0.01-0.06,0.02-0.09,0.03c-0.03,0.01-0.06,0.01-0.1,0.01
			c-0.43,0-0.48-0.41-0.48-1c0-0.58,0.05-1,0.48-1c0.43,0,0.48,0.41,0.48,1c0,0.33-0.02,0.6-0.11,0.78l0.15,0.21L45.07,22.06z
			 M44.71,21.58c0.17,0,0.2-0.2,0.2-0.71c0-0.51-0.03-0.71-0.2-0.71c-0.17,0-0.2,0.2-0.2,0.71C44.52,21.38,44.54,21.58,44.71,21.58"
			/>
		<path class="st4" d="M45.69,19.91v1.34c0,0.19,0.03,0.33,0.17,0.33c0.13,0,0.17-0.14,0.17-0.33v-1.34h0.29v1.34
			c0,0.49-0.22,0.62-0.45,0.62c-0.23,0-0.45-0.1-0.45-0.62v-1.34H45.69z"/>
		<polygon class="st4" points="47.33,19.91 47.33,20.22 46.82,20.22 46.82,20.67 47.3,20.67 47.3,20.99 46.82,20.99 46.82,21.51 
			47.34,21.51 47.34,21.83 46.53,21.83 46.53,19.91 		"/>
		<path class="st4" d="M47.55,19.91h0.53c0.23,0,0.38,0.17,0.38,0.49c0,0.26-0.08,0.43-0.24,0.47v0c0.19,0.04,0.22,0.18,0.23,0.59
			c0,0.2,0.01,0.31,0.06,0.34v0.02H48.2c-0.03-0.05-0.03-0.13-0.04-0.2l-0.01-0.37c-0.01-0.15-0.05-0.24-0.17-0.24h-0.15v0.81h-0.29
			V19.91z M47.83,20.74h0.12c0.14,0,0.22-0.08,0.22-0.29c0-0.18-0.07-0.27-0.2-0.27h-0.14V20.74z"/>
		<polygon class="st4" points="49.48,19.91 49.48,20.22 48.98,20.22 48.98,20.67 49.45,20.67 49.45,20.99 48.98,20.99 48.98,21.51 
			49.5,21.51 49.5,21.83 48.69,21.83 48.69,19.91 		"/>
		<polygon class="st4" points="50.54,19.91 50.54,20.22 50.23,20.22 50.23,21.83 49.94,21.83 49.94,20.22 49.63,20.22 49.63,19.91 
					"/>
		<path class="st4" d="M50.87,19.91h0.35l0.38,1.92h-0.3l-0.07-0.41h-0.38l-0.07,0.41h-0.3L50.87,19.91z M50.9,21.1h0.28l-0.14-0.86
			h0L50.9,21.1z"/>
		<path class="st4" d="M51.73,19.91h0.53c0.23,0,0.38,0.17,0.38,0.49c0,0.26-0.08,0.43-0.24,0.47v0c0.19,0.04,0.23,0.18,0.23,0.59
			c0,0.2,0.01,0.31,0.06,0.34v0.02h-0.31c-0.03-0.05-0.03-0.13-0.04-0.2l-0.01-0.37c0-0.15-0.06-0.24-0.17-0.24h-0.15v0.81h-0.29
			V19.91z M52.02,20.74h0.12c0.14,0,0.22-0.08,0.22-0.29c0-0.18-0.07-0.27-0.2-0.27h-0.13V20.74z"/>
		<path class="st4" d="M53.28,19.87c0.43,0,0.48,0.41,0.48,1c0,0.58-0.05,1-0.48,1c-0.43,0-0.48-0.41-0.48-1
			C52.8,20.28,52.86,19.87,53.28,19.87 M53.28,21.58c0.17,0,0.2-0.2,0.2-0.71c0-0.51-0.03-0.71-0.2-0.71c-0.17,0-0.2,0.2-0.2,0.71
			C53.09,21.38,53.12,21.58,53.28,21.58"/>
		<polygon class="st4" points="20.48,30.03 21.28,30.03 21.28,31.15 21.69,31.15 21.69,30.03 22.49,30.03 22.49,31.15 22.9,31.15 
			22.9,29.62 20.07,29.62 20.07,31.15 20.48,31.15 		"/>
		<path class="st4" d="M20.31,33.89c0.13,0.18,0.3,0.32,0.5,0.42c0.2,0.1,0.43,0.15,0.68,0.15c0.22,0,0.43-0.05,0.63-0.13
			c0.2-0.09,0.36-0.21,0.5-0.37c0.1-0.12,0.17-0.25,0.22-0.4c0.02-0.08,0.04-0.16,0.05-0.25C22.89,33.2,22.9,33.1,22.9,33v-0.83
			h-2.83v0.71c0,0.28,0.02,0.48,0.05,0.62C20.16,33.64,20.22,33.77,20.31,33.89 M22.5,32.57v0.41c0,0.2-0.02,0.35-0.05,0.45
			c-0.03,0.1-0.08,0.18-0.15,0.26c-0.09,0.11-0.21,0.19-0.35,0.25c-0.14,0.06-0.29,0.09-0.46,0.09c-0.33,0-0.59-0.09-0.76-0.26
			c-0.18-0.17-0.27-0.41-0.27-0.73v-0.47H22.5z"/>
		<path class="st4" d="M20.3,36.91c0.18,0.15,0.46,0.22,0.82,0.22h1.78v-0.4h-1.71c-0.27,0-0.47-0.04-0.6-0.13
			c-0.12-0.08-0.18-0.21-0.18-0.39c0-0.1,0.03-0.19,0.08-0.27c0.05-0.08,0.12-0.14,0.21-0.18c0.03-0.01,0.05-0.02,0.07-0.03
			c0.02-0.01,0.05-0.01,0.08-0.02C20.9,35.7,21,35.7,21.13,35.7h1.77v-0.41h-1.78c-0.37,0-0.65,0.08-0.83,0.23
			c-0.18,0.15-0.28,0.39-0.28,0.71C20.01,36.53,20.11,36.76,20.3,36.91"/>
		<path class="st4" d="M22.09,40.25l-0.03,0.02v0.47l0.1-0.05c0.25-0.13,0.45-0.31,0.58-0.53c0.13-0.22,0.2-0.47,0.2-0.75
			c0-0.19-0.03-0.38-0.1-0.54c-0.07-0.17-0.17-0.32-0.3-0.45c-0.14-0.14-0.3-0.25-0.48-0.33c-0.18-0.07-0.37-0.11-0.56-0.11
			c-0.42,0-0.77,0.14-1.05,0.41c-0.28,0.27-0.43,0.62-0.43,1.03c0,0.27,0.07,0.51,0.2,0.73c0.13,0.22,0.32,0.39,0.56,0.52l0.11,0.06
			v-0.47l-0.03-0.02c-0.14-0.1-0.25-0.23-0.32-0.36c-0.07-0.14-0.11-0.29-0.11-0.46c0-0.28,0.1-0.51,0.31-0.71
			c0.21-0.19,0.46-0.29,0.77-0.29c0.29,0,0.53,0.1,0.74,0.3c0.21,0.2,0.31,0.43,0.31,0.71c0,0.17-0.04,0.33-0.11,0.47
			C22.36,40.01,22.24,40.14,22.09,40.25"/>
		<path class="st4" d="M20.5,43.95c0.14,0.12,0.29,0.22,0.46,0.28c0.17,0.06,0.35,0.09,0.55,0.09c0.2,0,0.39-0.04,0.56-0.11
			c0.18-0.07,0.33-0.18,0.47-0.32c0.14-0.14,0.24-0.3,0.31-0.46c0.07-0.17,0.1-0.35,0.1-0.54c0-0.19-0.03-0.37-0.1-0.54
			c-0.07-0.17-0.17-0.32-0.3-0.45c-0.14-0.14-0.3-0.25-0.48-0.33c-0.18-0.08-0.37-0.11-0.56-0.11c-0.42,0-0.77,0.14-1.05,0.41
			c-0.28,0.27-0.43,0.61-0.43,1.01c0,0.21,0.04,0.4,0.12,0.58C20.22,43.65,20.34,43.81,20.5,43.95 M20.42,42.9
			c0-0.29,0.1-0.53,0.31-0.73c0.21-0.2,0.46-0.3,0.77-0.3c0.15,0,0.3,0.03,0.45,0.1c0.15,0.07,0.27,0.16,0.37,0.28
			c0.08,0.09,0.14,0.19,0.17,0.29c0.04,0.1,0.06,0.22,0.06,0.33c0,0.28-0.1,0.52-0.31,0.72c-0.21,0.2-0.45,0.3-0.74,0.3
			c-0.31,0-0.57-0.1-0.78-0.29C20.52,43.42,20.42,43.18,20.42,42.9"/>
		<polygon class="st4" points="20.47,47.37 21.28,47.34 21.3,48.46 21.71,48.45 21.69,47.34 22.48,47.31 22.51,48.43 22.92,48.42 
			22.88,46.9 20.05,46.97 20.09,48.49 20.5,48.48 		"/>
		<polygon class="st4" points="23.26,50.97 21.13,51.4 23.02,49.67 22.94,49.26 20.17,49.78 20.24,50.17 22.38,49.75 20.48,51.47 
			20.56,51.89 23.34,51.37 		"/>
		<polygon class="st4" points="24.37,53.97 24.18,53.61 21.69,54.96 22.33,56.14 22.69,55.95 22.24,55.12 		"/>
		<path class="st4" d="M22.74,56.84l0.27,0.34l0.85-0.28l0.68,0.84l-0.45,0.78l0.27,0.34l1.51-2.62l-0.26-0.32L22.74,56.84z
			 M25.34,56.4l-0.58,0.98l-0.5-0.62L25.34,56.4z"/>
		<polygon class="st4" points="29.48,59.45 27.58,60.73 28.2,58.52 27.86,58.28 27.07,61.19 27.32,61.37 29.82,59.69 		"/>
		<polygon class="st4" points="30.47,60.48 31.46,61 31.65,60.64 30.3,59.93 28.97,62.42 30.32,63.14 30.51,62.78 29.52,62.25 
			29.9,61.54 30.89,62.07 31.08,61.7 30.1,61.18 		"/>
		<path class="st4" d="M33.73,61.73c-0.06-0.09-0.13-0.17-0.21-0.23c-0.08-0.06-0.2-0.12-0.36-0.19l-0.73-0.3l-1.07,2.61l0.37,0.15
			l0.92-2.24l0.29,0.12c0.17,0.07,0.28,0.12,0.34,0.17c0.05,0.04,0.09,0.09,0.11,0.14c0.03,0.07,0.05,0.14,0.05,0.22
			c0,0.07-0.02,0.15-0.05,0.23c-0.05,0.12-0.13,0.21-0.25,0.25c-0.12,0.05-0.24,0.04-0.38-0.02l-0.35-0.14l0.27,1.66l0.44,0.18
			l-0.2-1.23c0.06,0.01,0.12,0.01,0.17,0.01c0.09-0.01,0.19-0.04,0.29-0.1c0.18-0.1,0.32-0.25,0.41-0.46
			c0.06-0.14,0.08-0.29,0.07-0.44C33.85,61.99,33.81,61.85,33.73,61.73"/>
		<path class="st4" d="M36.5,62.63c-0.1-0.12-0.22-0.22-0.35-0.29c-0.07-0.04-0.15-0.07-0.24-0.1c-0.08-0.03-0.18-0.05-0.29-0.07
			l-0.81-0.16l-0.54,2.77l0.7,0.14c0.23,0.05,0.41,0.07,0.55,0.07c0.02,0,0.04,0,0.07,0c0.14-0.01,0.29-0.04,0.42-0.1
			c0.2-0.09,0.37-0.23,0.51-0.41c0.13-0.18,0.23-0.4,0.27-0.64c0.04-0.22,0.04-0.43-0.01-0.64C36.72,62.98,36.63,62.79,36.5,62.63
			 M35.53,62.57c0.19,0.04,0.34,0.08,0.43,0.13c0.09,0.05,0.17,0.11,0.23,0.2c0.09,0.11,0.15,0.24,0.18,0.39
			c0.03,0.15,0.03,0.3,0,0.47c-0.06,0.32-0.2,0.56-0.4,0.7c-0.2,0.14-0.46,0.18-0.77,0.12l-0.46-0.09l0.39-1.99L35.53,62.57z"/>
		<path class="st4" d="M38.13,62.22l-0.35,3.01l0.42-0.11l0.1-0.89l1.05-0.27l0.52,0.74l0.42-0.11l-1.76-2.47L38.13,62.22z
			 M39.11,63.62l-0.77,0.2l0.12-1.13L39.11,63.62z"/>
		<path class="st4" d="M42.35,61.51c-0.16-0.15-0.34-0.25-0.54-0.31c-0.15-0.05-0.3-0.06-0.45-0.04c-0.08,0.01-0.16,0.03-0.25,0.05
			c-0.08,0.03-0.18,0.06-0.28,0.1l-0.76,0.33l1.11,2.6l0.65-0.28c0.26-0.11,0.43-0.2,0.55-0.29c0.11-0.09,0.21-0.2,0.29-0.32
			c0.11-0.19,0.18-0.4,0.19-0.63c0.01-0.23-0.04-0.45-0.13-0.68C42.63,61.83,42.51,61.65,42.35,61.51 M42.39,62.99
			c-0.09,0.23-0.28,0.41-0.57,0.53l-0.43,0.18l-0.8-1.86l0.38-0.16c0.18-0.08,0.33-0.12,0.43-0.13c0.1-0.01,0.2,0,0.3,0.03
			c0.13,0.04,0.26,0.12,0.37,0.22c0.11,0.1,0.2,0.24,0.26,0.39C42.46,62.5,42.48,62.76,42.39,62.99"/>
		<polygon class="st4" points="45.74,58.55 45.36,58.81 45.58,60.25 44.31,59.54 43.93,59.8 45.68,60.76 46.28,61.62 46.61,61.39 
			46.01,60.53 		"/>
		<polygon class="st4" points="49.37,58.43 48.76,57.89 49.5,57.06 49.2,56.79 48.45,57.62 47.86,57.09 48.6,56.26 48.29,55.99 
			47.28,57.13 49.4,59 50.41,57.86 50.11,57.59 		"/>
		<polygon class="st4" points="49.66,53.86 51.56,54.92 49,55 48.79,55.37 51.24,56.78 51.44,56.44 49.54,55.37 52.1,55.29 
			52.31,54.93 49.87,53.51 		"/>
		<polygon class="st4" points="53.09,51.33 52.3,51.17 52.52,50.07 52.11,49.99 51.9,51.09 51.12,50.94 51.33,49.84 50.93,49.76 
			50.64,51.26 53.41,51.8 53.71,50.31 53.31,50.23 		"/>
		<polygon class="st4" points="53.45,48.63 51.04,48.5 51.01,48.9 53.83,49.06 53.91,47.72 53.5,47.7 		"/>
		<polygon class="st4" points="51.06,44.64 51.06,45.05 53.89,45.05 53.89,44.64 52.66,44.64 52.66,43.52 53.89,43.52 53.89,43.11 
			51.06,43.11 51.06,43.52 52.26,43.52 52.26,44.64 		"/>
		<path class="st4" d="M53.46,39.73c-0.14-0.12-0.29-0.22-0.46-0.28c-0.33-0.12-0.76-0.13-1.11,0.02c-0.18,0.07-0.33,0.18-0.47,0.32
			c-0.14,0.14-0.24,0.3-0.31,0.46c-0.07,0.17-0.1,0.35-0.1,0.54c0,0.19,0.04,0.37,0.1,0.54c0.07,0.17,0.17,0.32,0.31,0.45
			c0.14,0.14,0.3,0.25,0.48,0.33c0.18,0.07,0.37,0.11,0.56,0.11c0.42,0,0.77-0.14,1.05-0.41c0.28-0.27,0.43-0.61,0.43-1.01
			c0-0.21-0.04-0.4-0.12-0.58C53.73,40.04,53.62,39.88,53.46,39.73 M52.46,41.81c-0.15,0-0.3-0.04-0.45-0.1
			c-0.15-0.07-0.27-0.16-0.37-0.28c-0.08-0.09-0.13-0.19-0.17-0.29c-0.04-0.1-0.06-0.22-0.06-0.33c0-0.28,0.1-0.52,0.31-0.72
			c0.21-0.2,0.45-0.3,0.74-0.3c0.31,0,0.57,0.1,0.78,0.29c0.21,0.2,0.31,0.43,0.31,0.71c0,0.29-0.1,0.53-0.31,0.73
			C53.02,41.71,52.77,41.81,52.46,41.81"/>
		<polygon class="st4" points="53.89,36.34 51.06,36.34 51.06,36.74 53.23,36.71 51.06,38.06 51.06,38.49 53.89,38.49 53.89,38.08 
			51.71,38.11 53.89,36.77 		"/>
		<path class="st4" d="M51.42,35.01c0.14,0.14,0.3,0.25,0.48,0.33c0.18,0.07,0.37,0.11,0.56,0.11c0.42,0,0.77-0.14,1.05-0.41
			c0.28-0.27,0.43-0.61,0.43-1.01c0-0.21-0.04-0.4-0.12-0.58c-0.08-0.18-0.2-0.34-0.36-0.48c-0.14-0.12-0.29-0.22-0.46-0.28
			c-0.33-0.12-0.76-0.13-1.11,0.02c-0.18,0.07-0.33,0.18-0.47,0.32c-0.14,0.14-0.24,0.3-0.31,0.46c-0.07,0.17-0.1,0.35-0.1,0.54
			c0,0.19,0.04,0.37,0.1,0.54C51.18,34.73,51.28,34.88,51.42,35.01 M52.46,35.03c-0.15,0-0.3-0.04-0.45-0.1
			c-0.15-0.07-0.27-0.16-0.37-0.28c-0.08-0.09-0.13-0.19-0.17-0.29c-0.04-0.1-0.06-0.22-0.06-0.33c0-0.28,0.1-0.52,0.31-0.72
			c0.21-0.2,0.45-0.3,0.74-0.3c0.31,0,0.57,0.1,0.78,0.29c0.21,0.2,0.31,0.43,0.31,0.71c0,0.29-0.1,0.53-0.31,0.73
			C53.02,34.94,52.77,35.03,52.46,35.03"/>
		<path class="st4" d="M53.89,31.34h-2.42v-0.31c0-0.18,0.01-0.3,0.03-0.38c0.02-0.06,0.05-0.12,0.09-0.16
			c0.05-0.06,0.11-0.1,0.18-0.13c0.07-0.03,0.14-0.04,0.23-0.04c0.14,0,0.25,0.04,0.33,0.14c0.09,0.09,0.13,0.21,0.13,0.36v0.38
			l1.44-0.88v-0.48l-1.06,0.65c-0.01-0.06-0.03-0.11-0.06-0.16c-0.05-0.08-0.11-0.16-0.2-0.23c-0.16-0.13-0.36-0.2-0.58-0.2
			c-0.15,0-0.3,0.03-0.43,0.1c-0.14,0.07-0.25,0.16-0.33,0.27c-0.06,0.09-0.11,0.18-0.13,0.28c-0.03,0.1-0.04,0.23-0.04,0.4v0.79
			h2.83V31.34z"/>
		<path class="st4" d="M28.3,33.36c0.03,0.62-0.21,1.1-0.53,1.43c-0.3,0.33-0.74,0.59-1.32,0.61c-0.64,0.04-1.09-0.2-1.44-0.51
			c-0.34-0.31-0.59-0.72-0.63-1.32c-0.04-0.61,0.22-1.1,0.51-1.42c0.32-0.34,0.72-0.58,1.33-0.61c0.64-0.04,1.12,0.21,1.44,0.51
			C27.99,32.34,28.27,32.76,28.3,33.36"/>
		<path class="st4" d="M36,30.35c0,0-0.79-0.26-0.87-0.28c0.29-0.27,0.49-0.61,0.57-1c0.11-0.45,0.07-1-0.13-1.48
			c-0.33-0.79-0.98-1.3-1.9-1.49c0.17-0.64,0.16-1.47-0.24-1.95c-0.22-0.27-0.54-0.39-0.92-0.35c-0.47,0.05-0.87,0.24-1.24,0.61
			c-0.25,0.25-0.43,0.49-0.58,0.76c-0.03,0.04-0.16,0.27-0.16,0.27s-0.33,0.15-0.39,0.19c-0.06,0.03-0.32,0.18-0.32,0.18
			s-0.1-0.2-0.16-0.29l-0.04-0.05c-0.29-0.37-0.63-0.67-0.99-0.88c-0.39-0.24-0.72-0.31-1.01-0.24c-0.34,0.08-0.49,0.34-0.59,0.63
			c-0.57-0.17-1.41-0.26-2.06-0.09l-0.04,0.01c0,0-0.01,0.07-0.02,0.08c-0.01,0.06-0.03,0.14,0.01,0.22
			c0.04,0.06,0.28,0.09,0.28,0.09c0.18,0.01,0.27,0.04,0.45,0.09c0,0,0.16,0.03,0.19,0.05c0.02,0.01,0.09,0.1,0.09,0.1
			c0.19,0.2,0.48,0.34,0.73,0.47c0,0,0.18,0.09,0.19,0.1c0,0,0.07,0.05,0.11,0.11c0.11,0.12,0.23,0.25,0.38,0.3
			c0.26,0.11,0.53,0.04,0.72-0.04c0.15,0.17,0.46,0.44,0.91,0.37c-0.06,0.24-0.06,0.53,0.02,0.84v0.03c0.01,0.09,0.01,0.17,0,0.26
			c0,0.07-0.01,0.14,0,0.21c-0.05,0.09-0.21,0.29-0.22,0.31c-0.06,0.08-0.13,0.18-0.13,0.27c0,0.12,0.09,0.24,0.18,0.3
			c0.05,0.03,0.1,0.04,0.16,0.05c0.06,0.01,0.12,0.03,0.15,0.06c0.04,0.03,0.06,0.22,0.06,0.25c-0.04,0.01-0.15,0.06-0.24,0.13
			c-0.08,0.06-0.13,0.15-0.14,0.18c-0.06,0.1-0.09,0.24-0.11,0.36c-0.09,0.36-0.13,0.88-0.11,1.29c0.02,0.26,0.09,0.44,0.2,0.63
			c0.01,0.03,0.03,0.05,0.05,0.08c0.02,0.02,0.04,0.05,0.04,0.06l0,0.02c0.01,0.03,0,0.09-0.01,0.15c0,0.04-0.01,0.07-0.01,0.1
			c-0.06,0.65-0.13,1.34-0.17,1.99c-0.06,0.05-0.13,0.09-0.19,0.13c-0.11,0.07-0.35,0.26-0.35,0.26s0.1,0.39,0.15,0.55
			c-0.06,0.06-0.39,0.42-0.39,0.42s0.26,0.38,0.37,0.56c0.18,0.26,0.57,0.84,0.57,0.84s0.17-0.01,0.23,0
			c-0.01,0.03-0.17,0.33-0.17,0.33l0.11,0.16c0,0,0.31,0.12,0.39,0.16c0,0.25,0.01,0.81,0.01,0.81s0.62-0.09,0.75-0.12l0.51,0.47
			l0.51-0.47l0.85,0c0,0,0.07-0.31,0.09-0.39c0.06-0.02,0.34,0.01,0.42-0.01c0.06-0.01,0.12-0.06,0.2-0.14
			c0.18-0.19,0.28-0.4,0.29-0.63c0-0.02,0-0.09,0-0.09l0.06,0.03c0,0,1.89,0.03,1.97-0.02c0.12-0.07,0.1-0.26,0.07-0.39
			c0,0-0.08-0.28-0.17-0.3c-0.12-0.03-0.44-0.09-0.49-0.1c-0.12-0.03-0.23-0.11-0.31-0.24c-0.18-0.23-0.18-0.49-0.18-0.97
			c0-0.33,0-0.67,0.01-1.03c0-0.36,0.01-1.15,0.01-1.19c0-0.08,0.01-0.15-0.01-0.21c-0.01-0.04-0.09-0.15-0.1-0.17
			c-0.13-0.19-0.28-0.31-0.41-0.34c-0.08-0.03-1.47-0.24-1.51-0.25c0-0.01,0.1-0.48,0.13-0.68l0.12-0.78l2.55,0.31l0.25,1.25
			l0.35,0.02l0.29-0.72c0,0,0.27,0.05,0.37,0C36.2,31.39,36,30.35,36,30.35 M32.78,26.28c1.15-0.06,2,0.46,2.43,1.17
			c0.23,0.37,0.39,0.9,0.28,1.45c-0.11,0.48-0.37,0.82-0.7,1.09c-0.11-0.04-0.23-0.08-0.35-0.1c0.19-0.33,0.41-0.64,0.46-1.13
			c0.06-0.52-0.11-0.92-0.36-1.21c-0.48-0.57-1.29-0.86-2.23-0.96c0.02-0.1,0.03-0.17,0.04-0.27
			C32.51,26.31,32.63,26.29,32.78,26.28 M32.9,28.07c-0.23-0.34-0.61-0.57-1.04-0.7c0.06-0.09,0.11-0.25,0.19-0.33
			c0.51,0.06,0.95,0.22,1.29,0.5c0.32,0.26,0.59,0.66,0.59,1.19c0,0.4-0.14,0.69-0.29,0.96c-0.18-0.05-0.36-0.11-0.54-0.16
			C33.21,28.97,33.12,28.41,32.9,28.07 M32.24,29.26c-0.15-0.05-0.29-0.1-0.43-0.15c-0.03-0.34-0.11-0.62-0.25-0.86
			c0.03-0.08,0.1-0.15,0.14-0.21C32.07,28.26,32.25,28.67,32.24,29.26 M32.17,25.17c0.38-0.03,0.42,0.49,0.34,0.86
			c-0.09,0.02-0.21,0.01-0.31,0.01c-0.05-0.29-0.28-0.38-0.52-0.46C31.78,25.4,31.92,25.19,32.17,25.17 M31.35,26.14
			c0.14,0.08,0.24,0.23,0.44,0.21c0.05-0.11-0.04-0.19-0.1-0.26c-0.08-0.06-0.16-0.12-0.24-0.16c0.04-0.07,0.08-0.12,0.12-0.2
			c0,0,0,0,0,0.01c0.19,0.08,0.41,0.23,0.44,0.47c0.02,0.21-0.1,0.36-0.32,0.34c-0.18-0.02-0.3-0.15-0.41-0.25
			C31.33,26.25,31.34,26.19,31.35,26.14 M30.98,26.95c0.07,0.02,0.12,0.05,0.21,0.08c0.07,0.02,0.21,0.04,0.23-0.02
			c0.03-0.06-0.1-0.13-0.14-0.17c-0.08-0.04-0.14-0.07-0.22-0.09c0.03-0.06,0.04-0.14,0.07-0.18c0.23,0.03,0.45,0.15,0.48,0.38
			c0.06,0.38-0.43,0.37-0.67,0.24C30.95,27.1,30.97,27.03,30.98,26.95 M30.8,27.75c0.11,0.02,0.25,0.08,0.38,0.06
			c0.15-0.02,0.08-0.11,0-0.16c-0.08-0.06-0.22-0.07-0.35-0.08c0.01-0.07,0.04-0.11,0.06-0.17c0.01-0.01,0.01-0.01,0.02-0.01
			c0.31-0.01,0.53,0.1,0.53,0.33c0,0.3-0.41,0.34-0.66,0.2C30.78,27.86,30.8,27.81,30.8,27.75 M30.74,28.15
			C30.74,28.15,30.74,28.14,30.74,28.15c0.14,0.11,0.36,0.14,0.59,0.14c0.13,0.2,0.23,0.43,0.25,0.75c-0.18-0.01-0.3,0.04-0.39,0.14
			C30.9,28.97,30.69,28.67,30.74,28.15 M27.98,25.86c-0.37,0.03-0.7-0.25-0.7-0.62c0-0.17,0.09-0.31,0.19-0.41
			c0.1-0.1,0.24-0.21,0.43-0.2c0.5,0.02,0.82,0.26,1.11,0.5c0.28,0.25,0.54,0.51,0.65,0.88c0.01,0.02,0.02,0.07,0.02,0.07
			s-0.24-0.19-0.34-0.26c-0.21-0.16-0.43-0.31-0.74-0.36C28.41,25.64,28.26,25.84,27.98,25.86 M28.73,25.93
			c-0.09-0.08-0.19-0.2-0.04-0.24c0.34,0.09,0.58,0.29,0.82,0.5C29.23,26.28,28.91,26.1,28.73,25.93 M28.96,28.8
			c0-0.03,0.05-0.12,0.08-0.15c0.08-0.13,0.2-0.3,0.27-0.41c0-0.18-0.01-0.36-0.01-0.54c0.12,0,0.22-0.01,0.31-0.01
			c0.1-0.01,0.2-0.03,0.28-0.04c0.11,0,0.26,0.08,0.36,0.12c0.12,0.06,0.23,0.1,0.33,0.14c-0.21,0.6,0.08,1.21,0.47,1.41
			c-0.1,0.41-0.28,0.73-0.52,0.99c-0.05-0.14-0.14-0.26-0.25-0.33c0-0.08,0-0.14,0-0.21c-0.22,0.02-0.47,0.06-0.61-0.05
			c-0.03-0.02-0.12-0.13-0.15-0.17c-0.03-0.07-0.05-0.19-0.08-0.3c-0.02-0.11-0.05-0.22-0.05-0.33
			C29.27,28.92,28.97,28.92,28.96,28.8 M29.21,29.69c0.16,0.05,0.23,0.17,0.36,0.22c0.07,0.02,0.15,0.02,0.24,0.04
			c0.3,0.05,0.56,0.31,0.55,0.68c0,0.05-0.08,0.28,0.01,0.31c0.07,0.02,0.12-0.08,0.15-0.14c0.18-0.33,0.36-0.62,0.55-0.94
			c0.03-0.06,0.06-0.13,0.09-0.19c0.03-0.08,0.05-0.15,0.08-0.22c0.06-0.08,0.18-0.15,0.24-0.21c0.25,0.03,0.47,0.1,0.61,0.23
			c-0.1,0.24-0.29,0.37-0.46,0.53c-0.26,0.07-0.31,0.36-0.39,0.65c-0.08,0.34-0.15,0.65-0.26,0.98c-0.07,0.24-0.14,0.49-0.46,0.46
			c-0.04-0.01-0.09-0.03-0.11-0.04c-0.13-0.05-0.24-0.14-0.35-0.23c-0.25-0.21-0.44-0.47-0.59-0.82c-0.02-0.05-0.05-0.17-0.08-0.2
			c-0.09-0.07-0.36,0.01-0.49-0.03C28.92,30.32,29.02,29.96,29.21,29.69 M31.74,31.59c-0.19-0.01-0.39,0-0.58-0.02
			c0.06-0.16,0.11-0.32,0.2-0.45h0.56C31.89,31.32,31.84,31.49,31.74,31.59 M31.75,32.07c0,0.09-0.06,0.25-0.09,0.26
			c-0.24,0.01-0.49,0-0.72,0c0-0.01,0.03-0.14,0.05-0.16c0.02-0.03,0.05-0.07,0.08-0.09C31.27,32.05,31.52,32.08,31.75,32.07
			 M29.19,32.07h0.38c0.13,0,0.25,0,0.36,0.02c0.05,0.01,0.11,0.07,0.15,0.09c0.04,0.04,0.11,0.15,0.11,0.15c-0.21,0-0.56,0-0.81,0
			c-0.07,0-0.18-0.08-0.2-0.16C29.16,32.13,29.16,32.1,29.19,32.07 M29,31.67c-0.13-0.1-0.08-0.35-0.07-0.56
			c0-0.01,0-0.02,0.01-0.02h0.36c0.09,0.21,0.17,0.4,0.29,0.58H29z M33.12,36.6c-0.02,0.1-0.08,0.19-0.1,0.3
			c-0.03-0.14-0.08-0.27-0.14-0.4c-0.05-0.11-0.12-0.21-0.13-0.32c-0.02-0.17-0.01-0.54-0.26-0.54c-0.32,0-0.63,0.09-0.95,0.02
			c-0.33-0.08-0.64-0.3-0.98-0.31c0.07-0.23,0.29-0.93,0.3-0.97c0.01-0.04,0.05-0.08,0.08-0.09c0.03-0.01,1.2-0.29,1.6-0.38
			c-0.12,0.6,0.1,1.14,0.4,1.65c0.07,0.12,0.14,0.22,0.16,0.36c0.01,0.09,0.02,0.19,0.02,0.28C33.14,36.33,33.16,36.47,33.12,36.6
			 M32.66,36.5c-0.26-0.11-0.56-0.21-0.54-0.56c0.09-0.1,0.34-0.05,0.38,0.04c0.04,0.09,0.01,0.21,0.04,0.3
			C32.57,36.39,32.65,36.41,32.66,36.5 M34.81,36.86c0.06,0,0.11,0.05,0.11,0.11c0,0.06-0.05,0.11-0.11,0.11h-1.32
			c-0.06,0-0.11-0.05-0.11-0.11c0-0.06,0.05-0.11,0.11-0.11H34.81z M32.04,32.95c0.03-0.01,0.08-0.09,0.11-0.12
			c0.11-0.13,0.22-0.27,0.33-0.39c0.34,0.04,0.63,0.1,0.97,0.13c0.14,0.1,0.33,0.2,0.34,0.38c0.01,0.11,0,0.33,0,0.51
			c0,0.52-0.01,1.04-0.01,1.57c0,0.38-0.02,0.78,0.07,1.05c0.04,0.16,0.13,0.3,0.23,0.4c0.08,0.08,0.25,0.2,0.25,0.2h-0.92
			c0,0,0.01-0.15,0.01-0.23c0-0.1,0-0.21-0.01-0.31c-0.02-0.17-0.02-0.36-0.07-0.51c-0.02-0.06-0.09-0.12-0.13-0.19
			c-0.23-0.33-0.47-0.82-0.33-1.41c0.02-0.03,0.02-0.08,0.04-0.11c0.01-0.05,0.03-0.08,0.03-0.11c0-0.07-0.05-0.16-0.12-0.18
			c-0.07-0.02-0.17,0.04-0.25,0.05c-0.61,0.14-1.23,0.3-1.82,0.44c-0.12,0.35-0.22,0.7-0.32,1.06c-0.04,0.12-0.1,0.23-0.07,0.37
			c0.04,0.06,0.13,0.04,0.19,0.05c0.5,0.07,0.82,0.34,1.34,0.37c-0.04,0.58,0.66,0.6,0.89,0.92c0.05,0.06,0.08,0.17,0.07,0.27
			c0,0.06-0.05,0.14-0.1,0.14c-0.08,0.01-0.19-0.21-0.26-0.31c-0.07-0.12-0.18-0.23-0.28-0.3c-0.49-0.32-1.39-0.13-2.01-0.06
			c-0.26,0.02-0.53,0.06-0.79,0.1c-0.14,0.01-0.3,0.06-0.41-0.01c-0.25-0.16-0.16-0.69-0.12-1.02c0.01-0.32,0.03-0.66,0.07-0.99
			c0-0.05-0.01-0.11,0.01-0.14c0.01-0.04,0.11-0.09,0.17-0.12c0.2-0.12,0.36-0.24,0.55-0.36c0.03-0.09,0.07-0.18,0.11-0.26
			c0.14,0.03,0.27,0.07,0.42,0.1c0.07-0.15,0.14-0.32,0.23-0.47c0.26,0,0.52,0.01,0.79,0.01c0.11-0.14,0.18-0.32,0.28-0.46
			c0.13,0.01,0.23-0.01,0.36-0.03C31.91,32.96,31.98,32.96,32.04,32.95 M35.89,31.15c0,0-0.03,0.05-0.06,0.05
			c-0.07,0.01-0.22-0.03-0.31-0.03c-0.09,0.21-0.15,0.38-0.24,0.59c-0.1-0.34-0.17-0.7-0.25-1.06c-0.82-0.11-1.74-0.23-2.63-0.35
			c-0.06,0-0.13-0.04-0.17-0.03c-0.13,0.03-0.16,0.34-0.19,0.47h-0.62c0.06-0.15,0.05-0.37,0.16-0.48c0.16,0,0.22-0.11,0.3-0.21
			c0.15-0.17,0.33-0.39,0.44-0.58c1.15,0.33,2.31,0.65,3.46,0.99c0.04,0.14,0.06,0.32,0.09,0.49C35.89,31.04,35.9,31.12,35.89,31.15
			"/>
		<path class="st4" d="M29.81,28.3c0,0.07-0.05,0.13-0.12,0.13c-0.07,0-0.12-0.06-0.12-0.13c0-0.07,0.05-0.13,0.12-0.13
			C29.76,28.18,29.81,28.23,29.81,28.3"/>
		<path class="st4" d="M45.81,44.53c0-0.45-0.34-0.83-0.77-0.89c-0.28-0.51-0.99-0.69-1.77-0.56c-0.65,0.11-1.18,0.33-1.68,0.58
			c-0.07,0.04-0.19,0.11-0.23,0.11c-0.05,0-0.18-0.08-0.25-0.11c-0.27-0.1-0.53-0.18-0.81-0.25c-0.74-0.17-1.75-0.21-2.54-0.05
			c-0.4,0.09-0.75,0.19-1.09,0.33c-0.32-0.13-0.67-0.24-1.04-0.34c0-0.28-0.12-0.5-0.28-0.65c-0.16-0.15-0.4-0.27-0.7-0.25
			c-0.43,0.04-0.71,0.35-0.81,0.76c-0.28,0.06-0.52,0.17-0.72,0.35c-0.18,0.16-0.34,0.39-0.4,0.67c-0.05,0.24-0.05,0.52-0.02,0.77
			c0.04,0.73,0.3,1.23,0.65,1.65c0.03,0.03,0.07,0.07,0.08,0.11c-0.29,0.69-0.56,1.44-0.56,2.4c0,0.47,0.02,0.93,0.11,1.35
			c0.07,0.29,0.15,0.59,0.25,0.86c0.03,0.06,0.11,0.22,0.11,0.28c0,0.03-0.06,0.1-0.09,0.16c-0.19,0.38-0.36,0.79-0.47,1.21
			c-0.44,0.1-0.75,0.38-0.76,0.88c0,0.5,0.34,0.8,0.74,0.89c0.2,0.48,0.55,0.84,1.17,0.88c0.2,0.01,0.41,0.06,0.64,0.02
			c0.7-0.06,1.26-0.34,1.68-0.69c0.06-0.04,0.15-0.15,0.19-0.15c0.02,0,0.1,0.04,0.14,0.06c0.69,0.29,1.51,0.52,2.52,0.47
			c1.01-0.03,1.83-0.28,2.56-0.65c0.18,0.17,0.39,0.32,0.6,0.47c0.04,0.47,0.29,0.78,0.68,0.87c0.43,0.11,0.79-0.12,0.95-0.35
			c0.04-0.04,0.05-0.1,0.09-0.12c0.05-0.02,0.13-0.03,0.17-0.03c0.22-0.01,0.37-0.04,0.51-0.1c0.55-0.24,0.84-0.83,0.83-1.64
			c-0.03-0.52-0.16-0.93-0.32-1.31c-0.14-0.32-0.31-0.66-0.46-0.97c-0.02-0.04-0.07-0.11-0.07-0.15c0-0.02,0.03-0.07,0.05-0.11
			c0.22-0.62,0.36-1.35,0.32-2.21c-0.04-0.85-0.23-1.54-0.51-2.18c0.34-0.38,0.54-0.88,0.64-1.49
			C45.51,45.32,45.81,44.96,45.81,44.53 M38.77,43.6c0.84-0.04,1.61,0.15,2.22,0.38c-0.16,0.1-0.31,0.18-0.46,0.28
			c-0.45,0.28-0.88,0.58-1.31,0.88c-0.64-0.48-1.32-0.91-2.1-1.26C37.6,43.7,38.17,43.61,38.77,43.6 M33.01,44.78
			c0-0.16,0-0.33,0.04-0.49c0.08-0.38,0.43-0.65,0.82-0.75c0,0,0,0.01,0.01,0.01c0.09,0.4,0.41,0.69,0.86,0.7
			c0.43,0,0.71-0.26,0.84-0.58c0.23,0.06,0.45,0.14,0.67,0.21c-1.14,0.59-2.03,1.43-2.65,2.54C33.26,46.07,33.01,45.46,33.01,44.78
			 M37.25,46.2c-0.04-0.02-0.12,0.05-0.16,0c-0.03-0.04,0.01-0.11-0.03-0.16c-0.04-0.04-0.16-0.11-0.21-0.15
			c-0.05-0.04-0.21-0.18-0.25-0.2c-0.08-0.04-0.2-0.01-0.28-0.03c-0.05-0.01-0.09-0.09-0.13-0.09c-0.09-0.02-0.23-0.04-0.29-0.04
			c-0.35-0.06-0.63-0.39-0.74-0.39c-0.06,0-0.32,0.32-0.36,0.42c-0.04,0.09-0.11,0.25-0.13,0.35c-0.01,0.07-0.01,0.16,0.02,0.2
			c0.06,0.08,0.15,0.16,0.15,0.16c0,0,0.07,0.12,0.08,0.14c0.02,0.04,0.05,0.15,0.07,0.18c0.03,0.04,0.16,0.06,0.2,0.08
			c0-0.08,0-0.17-0.01-0.23c0,0-0.04-0.12-0.03-0.13l-0.03-0.06c-0.06-0.11-0.08-0.25-0.05-0.26c0.02-0.01,0.03,0.01,0.11,0.04
			c0.12,0.04,0.07,0.11,0.1,0.21c0.05,0.16,0.1,0.33,0.1,0.52l0.08,0.36c0.05,0.06,0.1,0.11,0.11,0.12
			c0.15,0.03,0.01-0.02,0.13,0.08c0.04,0.04,0.07,0.14,0.15,0.2c0.05,0.03,0.11,0,0.16,0.02c0.05,0.03,0.05,0.11,0.11,0.14
			c0.06,0.04,0.12,0.03,0.19,0.05c0,0,0.01,0,0.01,0l-0.01,0.01c-1.02,1.07-1.98,2.2-2.74,3.53c-0.26-0.63-0.38-1.44-0.34-2.31
			c0.04-0.63,0.18-1.21,0.39-1.72c0.56-1.41,1.57-2.46,2.91-3.11c0.07-0.03,0.15-0.08,0.18-0.08c0.07,0,0.26,0.11,0.32,0.14
			c0.73,0.3,1.37,0.72,1.97,1.15C38.75,45.51,38.12,46,38.12,46s-0.48,0.4-0.7,0.6c-0.21,0.2-0.37,0.38-0.37,0.38
			c-0.05-0.07-0.09-0.16-0.09-0.21c0-0.05,0.1-0.24,0.14-0.27c0.07-0.07,0.15-0.08,0.18-0.12l0,0c0.04-0.02,0.05-0.06,0.1-0.13
			L37.25,46.2z M35.31,55.18c-0.32,0.12-0.67,0.23-1.09,0.2c-0.07,0-0.13-0.02-0.2-0.03c-0.13-0.01-0.23-0.01-0.33-0.04
			c-0.28-0.07-0.46-0.27-0.59-0.54c0.42-0.11,0.72-0.43,0.7-0.91c-0.04-0.44-0.33-0.72-0.71-0.82c0.11-0.36,0.24-0.7,0.4-1.01
			c0.6,1.15,1.45,2.05,2.6,2.66C35.9,54.88,35.62,55.05,35.31,55.18 M37.61,47.09c-0.01,0.11-0.04,0.21-0.15,0.23
			c-0.06,0.01-0.13-0.01-0.19-0.06c0.12-0.12,0.67-0.66,0.69-0.67c0.52-0.47,0.85-0.71,1.27-1.04c1.77,1.39,3.28,3.09,4.52,5.03
			c0.12,0.2,0.27,0.41,0.38,0.63c0.05,0.08,0.12,0.18,0.12,0.22c0.01,0.03-0.04,0.12-0.07,0.19c-0.37,0.87-0.96,1.61-1.65,2.16
			c-0.76,0.62-1.65,1.05-2.83,1.22l-0.35,0.04c-1.65,0.11-2.87-0.41-3.8-1.09c-0.82-0.6-1.44-1.37-1.86-2.29
			c0.79-1.45,1.81-2.67,2.94-3.8c0,0,0.01,0.01,0.02,0.01c0.17,0.06,0.33,0.05,0.51,0.05c0.17,0.01,0.33,0.04,0.47,0.1
			c0.14,0.05,0.28,0.04,0.48,0.04c0,0.26,0.06,0.3,0.25,0.4c0.16,0.08,0.23,0.1,0.2,0.34c-0.01,0.12,0,0.14-0.06,0.23
			c-0.02,0.03-0.12,0.1-0.13,0.12c-0.03,0.08-0.02,0.3-0.03,0.35c0,0.05-0.02,0.22-0.02,0.31c0,0.1-0.02,0.24,0.02,0.32
			c0.02,0.04,0.09,0.15,0.17,0.22c0.04,0.03,0.07,0.05,0.05,0.04c0.08,0.11,0.17,0.1,0.24,0.16c0.02,0.01,0.1,0.15,0.08,0.14
			c0.02,0.02,0.04,0.05,0.06,0.07c0.11,0.12,0.22,0.17,0.26,0.36c0.08,0.43-0.03,0.9-0.01,1.33c0,0.14-0.02,0.28-0.06,0.37
			c-0.01,0.03,0.02,0.08,0,0.11c-0.02,0.03-0.09,0.03-0.11,0.06c-0.04,0.07-0.1,0.15-0.12,0.22c-0.01,0.04-0.02,0.13-0.03,0.19
			c-0.01,0.03-0.07,0.01-0.05,0.14c0.01,0.06,0.13,0.12,0.14,0.18c0.04,0.15-0.05,0.32,0,0.47c0.01,0.02,0.17,0.17,0.18,0.19
			c0.01,0.06-0.05,0.15-0.04,0.17c0.05,0.09,0.21,0.2,0.29,0.16l0.32-0.08c0.02-0.02,0.06-0.14,0.08-0.16
			c0.02-0.02,0.03-0.15,0.05-0.2c0.02-0.03,0.06-0.05,0.05-0.03c0.01,0,0.06-0.08,0.06-0.09c0.08-0.14,0.02-0.59,0.08-0.68
			c0.01-0.02-0.01-0.06,0-0.08c0.05-0.06,0.1-0.03,0.14-0.07c0.03-0.03,0.01-0.09,0.04-0.11c0.04-0.03,0.1-0.03,0.14-0.07
			c0.03-0.02,0.11-0.14,0.12-0.16c0.03-0.04,0.12-0.11,0.16-0.16c0.03-0.05,0.11-0.12,0.14-0.16c0.07-0.08,0.2-0.13,0.27-0.2
			c0.17-0.19,0.29-0.41,0.36-0.62c0.07-0.2,0-0.17,0.14-0.31c0.07-0.07,0.21-0.14,0.3-0.18c0.05-0.02,0.14-0.06,0.17-0.08
			c0.09-0.07,0.16-0.18,0.22-0.26c0.12-0.14,0.22-0.26,0.37-0.37c0.15-0.11,0.43-0.32,0.24-0.51c0.05-0.2-0.22-0.12-0.35-0.16
			c-0.21-0.07-0.22-0.2-0.35-0.33c-0.13-0.12-0.38-0.25-0.47-0.4c-0.03-0.04-0.03-0.14-0.05-0.18c-0.04-0.09-0.07-0.1-0.12-0.15
			c-0.12-0.11-0.08-0.16-0.28-0.19c-0.12-0.02-0.25,0.04-0.37,0.01c-0.12-0.02-0.09-0.05-0.17-0.09c-0.08-0.04,0,0.05-0.11-0.06
			c-0.03-0.03-0.14-0.15-0.16-0.17c-0.05-0.04-0.18-0.06-0.23-0.08c-0.02-0.01-0.02-0.08-0.03-0.09c-0.11-0.04-0.31,0.02-0.43,0.03
			c-0.14,0.01-0.28,0.03-0.42,0c-0.24-0.04-0.02-0.06-0.25-0.1c-0.06-0.01-0.37,0.06-0.41,0.02c-0.02-0.02,0.01-0.14,0-0.16
			c-0.01-0.02-0.09-0.14-0.1-0.15c-0.02-0.04-0.07-0.04-0.09-0.09c-0.05-0.11,0.06-0.12,0.06-0.16c0-0.12-0.04-0.11-0.06-0.18
			c-0.02-0.05,0.02-0.13,0-0.18c-0.01-0.03-0.09-0.1-0.1-0.14c-0.01-0.03-0.02-0.12-0.04-0.2c-0.01-0.1-0.27-0.05-0.35-0.1
			L37.61,47.09z M45.12,53.75c0.06,0.84-0.26,1.51-1.09,1.51c0-0.53-0.33-0.92-0.82-0.95c-0.46-0.03-0.74,0.23-0.89,0.54
			c-0.14-0.09-0.27-0.17-0.38-0.29c1.1-0.64,1.94-1.57,2.5-2.75C44.72,52.37,45.06,52.94,45.12,53.75 M44.62,48.7
			c0.08,0.8-0.01,1.66-0.23,2.31c-1.31-2.21-2.96-4.09-4.9-5.68c0.59-0.44,1.2-0.84,1.87-1.2c1.15,0.56,2.06,1.41,2.65,2.56
			C44.31,47.26,44.53,47.92,44.62,48.7 M44.32,46.56c-0.6-1.12-1.45-2-2.59-2.6c0.56-0.24,1.15-0.55,1.9-0.59
			c0.44-0.02,0.79,0.06,1.01,0.29c0,0.01,0,0.01,0.01,0.02c-0.36,0.11-0.63,0.45-0.63,0.86c0,0.45,0.33,0.82,0.77,0.89
			c0,0.01,0,0.02,0,0.02C44.7,45.88,44.55,46.27,44.32,46.56"/>
		<path class="st4" d="M54.42,18.93v30.08c0,0.03-0.04,3.35-2.21,7.08c-2.86,4.9-8.13,8.32-15.25,9.89
			c-7.12-1.58-12.39-5-15.25-9.89c-2.17-3.73-2.21-7.04-2.21-7.07V18.93h17.46H54.42z M55.04,18.31H36.96H18.88v30.71
			c0,0,0,13.68,18.08,17.61c18.08-3.93,18.08-17.61,18.08-17.61V18.31z"/>
		<path class="st4" d="M23.3,22.73v26.24c0,0.06,0.02,0.35,0.09,0.8c0.01,0.06,0.02,0.12,0.03,0.19c0.18,1.03,0.64,2.72,1.75,4.51
			c2.27,3.67,6.23,6.22,11.78,7.6c5.55-1.38,9.51-3.93,11.78-7.6c1.72-2.78,1.87-5.31,1.88-5.51V22.73H23.3z M23.93,48.95v-25.6
			h25.63l-4.13,4.17l-0.9,0.49l-1.1-4.06l-1.1,4.06l-1.96-1.06l1.06,1.96l-4.07,1.1l4.07,1.1l-0.54,1L23.95,49.21
			C23.94,49.07,23.93,48.99,23.93,48.95 M43.66,30l0.95-0.95l3.5,0.95H43.66z M45.21,31.18l0.74,1.34l-1.21-1.21L45.21,31.18z
			 M44.39,31.21l-0.95,3.5v-4.45L44.39,31.21z M44.59,28.23l1.33-0.74l-1.21,1.21L44.59,28.23z M40.92,32.55l1.21-1.21l0.13,0.47
			L40.92,32.55z M42.23,30.99l-3.5-0.95h4.45L42.23,30.99z M41.63,28.85l-0.74-1.34l1.21,1.21L41.63,28.85z M42.45,28.83l0.95-3.5
			v4.45L42.45,28.83z M49.99,48.95c-0.01,0.22-0.17,2.59-1.78,5.2c-2.16,3.49-5.95,5.94-11.25,7.28c-5.3-1.34-9.08-3.79-11.25-7.28
			c-1.02-1.64-1.46-3.19-1.64-4.17l17.26-17.43l0.11-0.05l0.88-0.47l1.1,4.07l1.1-4.07l1.96,1.06l-1.06-1.96l4.07-1.1l-4.07-1.1
			l0.5-0.92l0.09-0.17l3.98-4.02V48.95z"/>
	</g>
	<g>
		<g>
			<g>
				<path class="st4" d="M100.98,25.89c0,1.93-0.73,3.86-2.2,5.34c-1.44,1.44-3.31,2.18-5.2,2.21h-0.3
					c-1.88-0.03-3.75-0.77-5.19-2.21c-2.16-2.17-2.74-5.32-1.72-8.01c0.37-0.96,0.94-1.88,1.72-2.66c2.95-2.95,7.73-2.95,10.68,0
					c0.78,0.78,1.36,1.7,1.72,2.66C100.82,24.07,100.98,24.99,100.98,25.89z"/>
			</g>
		</g>
		<g>
			<g>
				<path class="st4" d="M78.33,48.45c0,0.01,0.01,0.02,0.01,0.03v0.02c-0.04,1.88-0.77,3.75-2.21,5.19
					c-2.17,2.17-5.32,2.74-8.01,1.72c-0.97-0.37-1.88-0.94-2.66-1.72c-2.95-2.95-2.95-7.73,0-10.68c0.78-0.78,1.69-1.36,2.66-1.72
					c2.69-1.01,5.83-0.44,8,1.71c0.01,0,0.01,0.01,0.02,0.02c0.78,0.78,1.36,1.69,1.72,2.66c0.31,0.81,0.47,1.67,0.49,2.53
					c0,0.01,0,0.02-0.01,0.02V48.45z"/>
			</g>
		</g>
		<g>
			<g>
				<path class="st3" d="M85.89,48.51L85.89,48.51c0.01,0.86,0.17,1.71,0.48,2.53c0.37,0.96,0.92,1.85,1.68,2.62
					c0.01,0.01,0.02,0.02,0.02,0.02c0.01,0.01,0.01,0.01,0.02,0.02c0.09,0.09,0.18,0.17,0.27,0.25c0.05,0.05,0.09,0.09,0.14,0.13
					c0.01,0.01,0.02,0.02,0.03,0.02c0.12,0.12,0.26,0.22,0.4,0.32c0.1,0.08,0.2,0.16,0.3,0.22c0.01,0,0.01,0,0.01,0
					c0.02,0.02,0.04,0.02,0.07,0.04c0.02,0.01,0.03,0.02,0.06,0.03c0.12,0.08,0.23,0.15,0.36,0.22c0.05,0.02,0.09,0.06,0.15,0.08
					c0.14,0.08,0.29,0.14,0.43,0.21c0.01,0,0.01,0.01,0.02,0.01c0.07,0.03,0.14,0.07,0.2,0.1c0.07,0.02,0.13,0.05,0.2,0.07
					c0,0,0.01,0.01,0.02,0.01c0.07,0.02,0.13,0.05,0.21,0.07c0.01,0,0.01,0.01,0.02,0.01c0.07,0.03,0.16,0.06,0.24,0.08
					c0.03,0.01,0.07,0.02,0.11,0.02c0.1,0.03,0.19,0.05,0.29,0.07c0.1,0.02,0.19,0.06,0.29,0.07c0.08,0.02,0.16,0.02,0.24,0.04
					c0.04,0.01,0.09,0.01,0.13,0.02c0.12,0.02,0.22,0.04,0.33,0.05c0.12,0.02,0.22,0.02,0.34,0.02c0.11,0.01,0.22,0.02,0.33,0.02
					h0.23c0.01,0,0.01,0,0.02,0h0.05c0.01,0,0.01,0,0.01,0c0.15-0.01,0.31-0.02,0.46-0.03c0.04,0,0.08,0,0.12-0.01
					c0.03,0,0.07,0,0.1-0.01h0.01c0.05,0,0.11-0.02,0.17-0.02c0.02,0,0.04-0.01,0.07-0.01c0.13-0.02,0.27-0.03,0.4-0.06
					c0.01-0.01,0.03-0.01,0.04-0.01c0.01-0.01,0.02-0.01,0.03-0.01c0.04-0.01,0.07-0.02,0.11-0.02c0.02-0.01,0.04-0.01,0.06-0.02
					c0.01,0,0.02-0.01,0.03-0.01c0.01,0,0.02-0.01,0.02-0.01c0.12-0.02,0.23-0.06,0.35-0.09c0.02,0,0.03,0,0.05-0.01
					c0.08-0.02,0.17-0.06,0.25-0.08c0.02-0.01,0.04-0.02,0.06-0.02c0.02,0,0.04-0.01,0.06-0.02c0.07-0.02,0.13-0.05,0.21-0.07
					c0.12-0.05,0.26-0.11,0.38-0.17c0.02,0,0.03-0.01,0.04-0.02c0.02-0.02,0.05-0.02,0.07-0.03c0.07-0.03,0.14-0.07,0.21-0.1
					c0.02-0.01,0.02-0.02,0.04-0.02c0.11-0.05,0.21-0.12,0.31-0.17c0.04-0.02,0.07-0.04,0.12-0.07c0.07-0.04,0.14-0.07,0.21-0.12
					c0.01-0.01,0.02-0.02,0.03-0.02c0.04-0.02,0.08-0.05,0.12-0.08c0.05-0.03,0.1-0.07,0.15-0.11c0.05-0.04,0.1-0.07,0.16-0.12
					c0.05-0.04,0.11-0.08,0.17-0.12l0.02-0.02c0.02-0.01,0.04-0.02,0.06-0.04c0.01-0.02,0.02-0.02,0.02-0.02
					c0.16-0.14,0.32-0.28,0.48-0.44c0.1-0.1,0.18-0.19,0.27-0.29c0,0,0,0,0-0.01c0.09-0.09,0.17-0.19,0.26-0.29
					c0.04-0.06,0.08-0.12,0.12-0.17c0.12-0.16,0.23-0.31,0.33-0.47c0.01-0.01,0.01-0.02,0.02-0.02c0.02-0.02,0.03-0.06,0.05-0.08
					c0.02-0.03,0.04-0.07,0.06-0.1c0.09-0.14,0.17-0.29,0.25-0.44c0.01-0.01,0.01-0.02,0.02-0.02v-0.01c0-0.01,0-0.01,0.01-0.01
					c0.02-0.05,0.04-0.09,0.07-0.14c0.05-0.12,0.11-0.24,0.16-0.37c0.03-0.06,0.06-0.12,0.08-0.18c0.01-0.02,0.02-0.04,0.02-0.06
					v-0.01c0.02-0.05,0.03-0.1,0.05-0.15c0.05-0.14,0.1-0.27,0.14-0.42c0.02-0.06,0.03-0.11,0.04-0.17v-0.01
					c0.02-0.05,0.03-0.09,0.03-0.14c0.01-0.02,0.01-0.03,0.02-0.05c0.02-0.09,0.04-0.18,0.07-0.27v-0.01
					c0.03-0.18,0.06-0.35,0.07-0.53c0.01-0.02,0.01-0.03,0.01-0.05c0.01-0.05,0.02-0.1,0.02-0.15c0.01-0.03,0.01-0.07,0.01-0.12
					c0.01-0.07,0.01-0.16,0.02-0.23v-0.01c0.01-0.07,0.02-0.14,0.02-0.22c0-0.01-0.01-0.02-0.01-0.02c0-0.01,0-0.01,0-0.02
					c0-0.01,0.01-0.02,0.01-0.04c0-0.02-0.01-0.05-0.01-0.07c0-0.02,0.01-0.05,0.01-0.08c0-0.01,0-0.01-0.01-0.02
					c0.01-0.01,0-0.02,0.01-0.02v-0.02c-0.01-0.06-0.01-0.12-0.02-0.18v-0.03c-0.01-0.09-0.01-0.18-0.02-0.27
					c0-0.07-0.01-0.13-0.02-0.2v-0.01c-0.01-0.05-0.02-0.1-0.02-0.15l-0.05-0.35c-0.01-0.07-0.02-0.13-0.03-0.2
					c-0.01-0.01-0.01-0.01-0.01-0.01c0-0.02-0.01-0.05-0.02-0.07c-0.15-0.68-0.39-1.35-0.73-1.97c-0.08-0.16-0.17-0.31-0.27-0.46
					v-0.01c-0.1-0.15-0.2-0.29-0.31-0.44c0,0,0,0,0-0.01c-0.07-0.09-0.15-0.18-0.23-0.27c-0.02-0.03-0.05-0.07-0.07-0.1
					c-0.01-0.02-0.02-0.02-0.03-0.04h-0.01v-0.01c-0.12-0.13-0.24-0.27-0.37-0.4l-0.01-0.01C98.75,43,98.75,43,98.75,42.99
					c-0.07-0.07-0.16-0.15-0.24-0.22c-0.07-0.07-0.16-0.14-0.23-0.21c-0.03-0.02-0.04-0.03-0.07-0.05c-0.12-0.11-0.26-0.2-0.39-0.3
					c-0.08-0.05-0.15-0.11-0.23-0.16c-0.12-0.08-0.24-0.16-0.37-0.22c-0.1-0.06-0.19-0.12-0.29-0.17c-0.12-0.06-0.23-0.12-0.35-0.17
					c-0.12-0.05-0.23-0.11-0.35-0.15c-0.04-0.02-0.07-0.04-0.12-0.06c-0.09-0.03-0.19-0.06-0.28-0.09
					c-0.07-0.02-0.14-0.05-0.22-0.07c-0.17-0.06-0.34-0.1-0.52-0.14c-0.05-0.01-0.09-0.02-0.14-0.03c-0.2-0.04-0.41-0.07-0.62-0.09
					c-0.02-0.01-0.03-0.01-0.06-0.02c-0.23-0.02-0.47-0.04-0.7-0.04h-0.32c-0.27,0.01-0.55,0.02-0.81,0.06
					c-0.16,0.02-0.32,0.05-0.48,0.08c-0.23,0.04-0.45,0.11-0.68,0.17c-0.12,0.04-0.25,0.08-0.37,0.12
					c-0.21,0.08-0.43,0.15-0.64,0.25c-0.14,0.06-0.27,0.12-0.41,0.2c-0.03,0.01-0.04,0.02-0.06,0.03c-0.19,0.11-0.38,0.22-0.57,0.34
					c-0.1,0.07-0.2,0.15-0.3,0.22c-0.1,0.07-0.2,0.14-0.29,0.22l-0.57,0.5c0,0.01,0,0.01,0,0.01c-0.36,0.36-0.67,0.74-0.95,1.15
					c-0.72,1.07-1.12,2.28-1.23,3.51c-0.02,0.18-0.02,0.36-0.03,0.53v0.08c0.01,0.01,0,0.02,0,0.02v0.04
					c0.01,0.04,0.01,0.08,0.01,0.12C85.88,48.49,85.88,48.49,85.89,48.51L85.89,48.51z"/>
			</g>
		</g>
		<g>
			<g>
				<g>
					<path class="st6" d="M82.59,66.59h0.32c0.86-0.02,1.7-0.17,2.52-0.48c0.97-0.37,1.88-0.95,2.66-1.73
						c1.44-1.44,3.31-2.17,5.19-2.2c0.02-0.01,0.02,0,0.03,0h0.24c0.01,0,0.03-0.01,0.03,0c1.88,0.03,3.75,0.77,5.19,2.21
						c0.77,0.77,1.69,1.35,2.66,1.71c0.83,0.32,1.71,0.48,2.59,0.49h0.17c1.9-0.02,3.8-0.76,5.25-2.21c1.44-1.44,2.17-3.3,2.21-5.19
						v-0.02c-0.01-0.08-0.01-0.17,0-0.25v-0.02c-0.03-1.88-0.77-3.75-2.21-5.19c-1.44-1.44-2.17-3.31-2.21-5.19v-0.3
						c0.02-0.86,0.18-1.71,0.49-2.53c0.37-0.97,0.94-1.88,1.72-2.66c2.95-2.95,2.95-7.73,0-10.68c-0.78-0.78-1.7-1.36-2.66-1.72
						c-2.69-1.02-5.85-0.44-8.01,1.72c-1.44,1.44-3.31,2.18-5.2,2.21h-0.3c-1.88-0.03-3.75-0.77-5.19-2.21
						c-1.44-1.44-3.31-2.17-5.19-2.21h-0.05c-0.07,0-0.15,0-0.22,0.01c-0.01-0.01-0.02,0-0.02-0.01c-0.86,0.02-1.71,0.18-2.53,0.49
						c-0.96,0.37-1.88,0.94-2.66,1.72c-1.45,1.45-2.19,3.35-2.21,5.25v0.17c0.02,1.9,0.75,3.78,2.19,5.24
						c0.01,0,0.01,0.01,0.02,0.02c0.78,0.78,1.36,1.69,1.72,2.66c0.31,0.81,0.47,1.67,0.49,2.53c0,0.01,0,0.02-0.01,0.02v0.22
						c0,0.01,0.01,0.02,0.01,0.03v0.02c-0.04,1.88-0.77,3.75-2.21,5.19c-1.44,1.43-2.17,3.3-2.21,5.18c0,0,0,0,0,0.01
						c0.01,0.1,0.01,0.2,0,0.3c0,0.01,0,0.02,0,0.02c0.04,1.88,0.78,3.74,2.21,5.18C78.85,65.81,80.71,66.55,82.59,66.59z
						 M85.88,48.36v-0.04c0-0.01,0.01-0.02,0-0.02v-0.08c0.01-0.17,0.02-0.35,0.03-0.53c0.11-1.23,0.52-2.44,1.23-3.51
						c0.27-0.41,0.59-0.79,0.95-1.15c0,0,0,0,0-0.01l0.57-0.5c0.09-0.08,0.19-0.15,0.29-0.22c0.1-0.07,0.2-0.15,0.3-0.22
						c0.18-0.12,0.37-0.23,0.57-0.34c0.02-0.01,0.03-0.02,0.06-0.03c0.13-0.07,0.27-0.14,0.41-0.2c0.21-0.1,0.42-0.18,0.64-0.25
						c-0.21,0.08-0.43,0.15-0.63,0.25c0.54-0.26,1.11-0.44,1.69-0.55c-0.23,0.05-0.46,0.11-0.68,0.18c0.23-0.07,0.45-0.13,0.68-0.17
						c0.16-0.03,0.32-0.06,0.48-0.08c0.27-0.03,0.54-0.05,0.81-0.06h0.32c0.23,0,0.47,0.02,0.7,0.04c0.02,0.01,0.04,0.01,0.06,0.02
						c0.21,0.02,0.42,0.05,0.62,0.09C95,40.98,95.05,40.99,95.1,41c0.17,0.04,0.35,0.08,0.52,0.14c0.07,0.02,0.14,0.04,0.22,0.07
						c0.09,0.03,0.19,0.06,0.28,0.09c0.04,0.02,0.07,0.04,0.12,0.06c0.12,0.04,0.23,0.1,0.35,0.15s0.23,0.11,0.35,0.17
						c0.1,0.05,0.19,0.11,0.29,0.17c0.12,0.07,0.25,0.14,0.37,0.22c0.08,0.05,0.15,0.11,0.23,0.16c0.13,0.1,0.27,0.19,0.39,0.3
						c0.02,0.02,0.04,0.03,0.07,0.05c0.07,0.07,0.16,0.13,0.23,0.21c0.08,0.07,0.17,0.14,0.24,0.22c0,0.01,0.01,0.02,0.02,0.02
						l0.01,0.01c0.13,0.13,0.26,0.27,0.37,0.4v0.01h0.01c0.02,0.02,0.02,0.02,0.03,0.04c0.02,0.03,0.06,0.07,0.07,0.1
						c0.08,0.09,0.16,0.18,0.23,0.27c0,0.01,0,0.01,0,0.01c0.11,0.15,0.21,0.29,0.31,0.44v0.01c0.09,0.15,0.18,0.3,0.27,0.46
						c0.34,0.62,0.58,1.29,0.73,1.97c0.01,0.02,0.02,0.05,0.02,0.07c0,0,0,0,0.01,0.01c0.02,0.07,0.02,0.13,0.03,0.2l0.05,0.35
						c0.01,0.05,0.02,0.1,0.02,0.15v0.01c0.01,0.07,0.02,0.13,0.02,0.2c0.01,0.09,0.01,0.18,0.02,0.27v0.03
						c0.01,0.06,0.01,0.12,0.02,0.18v0.02c-0.01,0.01,0,0.02-0.01,0.02c0.01,0.01,0.01,0.01,0.01,0.02c0,0.03-0.01,0.06-0.01,0.08
						c0,0.02,0.01,0.05,0.01,0.07c0,0.02-0.01,0.03-0.01,0.04c0,0.01,0,0.01,0,0.02c0,0,0.01,0.01,0.01,0.02
						c0,0.07-0.01,0.14-0.02,0.22v0.01c-0.01,0.07-0.01,0.16-0.02,0.23c0,0.04,0,0.08-0.01,0.12c0,0.05-0.01,0.1-0.02,0.15
						c0,0.02,0,0.03-0.01,0.05c-0.02,0.18-0.04,0.35-0.07,0.53v0.01c-0.02,0.09-0.05,0.18-0.07,0.27c-0.01,0.02-0.01,0.03-0.02,0.05
						c-0.01,0.05-0.02,0.09-0.03,0.14v0.01c-0.02,0.06-0.02,0.11-0.04,0.17c-0.04,0.14-0.09,0.27-0.14,0.42
						c-0.02,0.05-0.03,0.1-0.05,0.15v0.01c-0.01,0.02-0.02,0.04-0.02,0.06c-0.03,0.06-0.05,0.12-0.08,0.18
						c-0.05,0.12-0.11,0.25-0.16,0.37c-0.02,0.05-0.04,0.09-0.07,0.14c-0.01,0-0.01,0-0.01,0.01v0.01
						c-0.01,0.01-0.01,0.02-0.02,0.02c-0.07,0.15-0.16,0.3-0.25,0.44c-0.02,0.03-0.04,0.07-0.06,0.1c-0.02,0.02-0.03,0.06-0.05,0.08
						c-0.01,0.01-0.01,0.02-0.02,0.02c-0.1,0.16-0.22,0.31-0.33,0.47c-0.04,0.05-0.08,0.11-0.12,0.17c-0.08,0.1-0.17,0.2-0.26,0.29
						c0,0.01,0,0.01,0,0.01c-0.09,0.1-0.17,0.19-0.27,0.29c-0.16,0.16-0.32,0.3-0.48,0.44c-0.01,0.01-0.02,0.01-0.02,0.02
						c-0.02,0.02-0.04,0.03-0.06,0.04l-0.02,0.02c-0.06,0.04-0.12,0.08-0.17,0.12c-0.06,0.04-0.11,0.07-0.16,0.12
						c-0.05,0.04-0.1,0.07-0.15,0.11c-0.04,0.03-0.08,0.06-0.12,0.08c-0.01,0.01-0.02,0.02-0.03,0.02
						c-0.07,0.05-0.14,0.08-0.21,0.12c-0.04,0.02-0.07,0.04-0.12,0.07c-0.1,0.06-0.2,0.12-0.31,0.17c-0.02,0.01-0.02,0.02-0.04,0.02
						c-0.07,0.03-0.14,0.07-0.21,0.1c-0.03,0.01-0.05,0.02-0.07,0.03c-0.02,0.01-0.02,0.02-0.04,0.02
						c-0.12,0.06-0.26,0.12-0.38,0.17c-0.07,0.02-0.14,0.05-0.21,0.07c-0.02,0.01-0.03,0.02-0.06,0.02
						c-0.02,0.01-0.04,0.02-0.06,0.02c-0.08,0.02-0.17,0.06-0.25,0.08c-0.02,0.01-0.03,0.01-0.05,0.01
						c-0.12,0.03-0.22,0.07-0.35,0.09c-0.01,0-0.02,0.01-0.02,0.01c-0.02,0-0.02,0.01-0.03,0.01c-0.02,0.01-0.03,0.01-0.06,0.02
						c-0.03,0.01-0.07,0.02-0.11,0.02c-0.01,0-0.03,0-0.03,0.01c-0.02,0-0.03,0-0.04,0.01c-0.13,0.02-0.27,0.04-0.4,0.06
						c-0.03,0-0.04,0.01-0.07,0.01c-0.06,0.01-0.12,0.02-0.17,0.02h-0.01c-0.03,0.01-0.07,0.01-0.1,0.01
						c-0.03,0.01-0.07,0.01-0.12,0.01c-0.15,0.02-0.31,0.02-0.46,0.03c0,0,0,0-0.01,0h-0.05c-0.01,0-0.01,0-0.02,0h-0.23
						c-0.11-0.01-0.22-0.02-0.33-0.02c-0.12-0.01-0.22-0.01-0.34-0.02c-0.11-0.01-0.22-0.03-0.33-0.05
						c-0.04-0.01-0.09-0.01-0.13-0.02c-0.08-0.02-0.16-0.02-0.24-0.04c-0.1-0.02-0.19-0.05-0.29-0.07c-0.1-0.02-0.19-0.04-0.29-0.07
						c-0.03,0-0.07-0.02-0.11-0.02c-0.08-0.02-0.17-0.05-0.24-0.08c-0.01,0-0.01-0.01-0.02-0.01c-0.07-0.02-0.14-0.05-0.21-0.07
						c-0.01,0-0.02-0.01-0.02-0.01c-0.07-0.02-0.13-0.04-0.2-0.07c-0.06-0.03-0.13-0.07-0.2-0.1c-0.01,0-0.01-0.01-0.02-0.01
						c-0.14-0.07-0.29-0.12-0.43-0.21c-0.06-0.02-0.1-0.06-0.15-0.08c-0.12-0.07-0.24-0.13-0.36-0.22
						c-0.03-0.01-0.04-0.02-0.06-0.03c-0.02-0.02-0.05-0.02-0.07-0.04c0,0,0,0-0.01,0c-0.1-0.07-0.2-0.14-0.3-0.22
						c-0.14-0.09-0.27-0.2-0.4-0.32c-0.02-0.01-0.03-0.02-0.03-0.02c-0.05-0.04-0.09-0.08-0.14-0.13c-0.09-0.07-0.18-0.16-0.27-0.25
						c-0.01-0.01-0.01-0.01-0.02-0.02c-0.01-0.01-0.02-0.02-0.02-0.02c-0.76-0.77-1.31-1.66-1.68-2.62
						c-0.31-0.81-0.47-1.67-0.49-2.53h0.01V48.5c-0.01-0.01-0.01-0.01,0-0.02C85.88,48.45,85.88,48.4,85.88,48.36z"/>
				</g>
			</g>
		</g>
	</g>
</g>
</svg>
