<?xml version="1.0" encoding="UTF-8" standalone="no"?>
<!-- Created with Inkscape (http://www.inkscape.org/) -->

<svg
   width="130mm"
   height="130mm"
   viewBox="0 0 130 130"
   version="1.1"
   id="svg1"
   xml:space="preserve"
   xmlns="http://www.w3.org/2000/svg"
   xmlns:svg="http://www.w3.org/2000/svg"><defs
     id="defs1"><linearGradient
       id="swatch3"><stop
         style="stop-color:#ffffff;stop-opacity:1;"
         offset="0"
         id="stop3" /></linearGradient></defs><g
     id="layer1"
     transform="translate(-41.379789,-64.022718)"><circle
       style="fill:#003354;fill-opacity:1;fill-rule:evenodd;stroke:#003354;stroke-width:0.284246;stroke-linejoin:round;paint-order:markers fill stroke"
       id="path1"
       cx="106.37979"
       cy="129.02272"
       r="64.85788" /><g
       id="g17"
       transform="matrix(0.11602165,0,0,0.11346594,59.511395,81.133227)"
       style="fill:#ffffff;fill-opacity:1;stroke:#ffffff;stroke-opacity:1"><g
         id="g1"
         style="fill:#ffffff;fill-opacity:1;stroke:#ffffff;stroke-opacity:1">
	<path
   d="M 454.406,792 H 316.005 c -10.454,0 -18.938,-8.484 -18.938,-18.938 V 448.005 h -96.851 c -10.454,0 -18.938,-8.484 -18.938,-18.938 V 295.021 c 0,-10.454 8.484,-18.938 18.938,-18.938 h 96.851 V 196.201 C 297.066,75.147 370.358,0 488.381,0 c 52.724,0 95.184,4.053 105.902,5.492 9.432,1.25 16.438,9.28 16.438,18.787 v 119.842 c 0,10.454 -8.484,18.938 -18.938,18.938 l -70.905,0.076 c -40.944,0 -47.535,13.635 -47.535,46.323 v 66.663 h 113.819 c 5.454,0 10.644,2.348 14.203,6.439 3.599,4.053 5.266,9.507 4.584,14.923 l -17.272,134.045 c -1.212,9.469 -9.279,16.552 -18.786,16.552 H 473.343 V 773.138 C 473.344,783.554 464.86,792 454.406,792 Z M 334.943,754.123 H 435.467 V 429.066 c 0,-10.454 8.484,-18.938 18.938,-18.938 h 98.82 l 12.424,-96.169 H 454.406 c -10.454,0 -18.938,-8.484 -18.938,-18.938 V 209.42 c 0,-36.134 8.863,-84.2 85.412,-84.2 l 52.005,-0.038 V 41.361 C 553.53,39.694 522.433,37.876 488.382,37.876 392.289,37.876 334.944,97.04 334.944,196.2 v 98.82 c 0,10.454 -8.484,18.938 -18.938,18.938 h -96.851 v 96.169 h 96.851 c 10.454,0 18.938,8.484 18.938,18.938 v 325.058 z"
   id="path1-4"
   style="fill:#ffffff;fill-opacity:1;stroke:#ffffff;stroke-opacity:1" />
</g><g
         id="g2"
         style="fill:#ffffff;fill-opacity:1;stroke:#ffffff;stroke-opacity:1">
</g><g
         id="g3"
         style="fill:#ffffff;fill-opacity:1;stroke:#ffffff;stroke-opacity:1">
</g><g
         id="g4"
         style="fill:#ffffff;fill-opacity:1;stroke:#ffffff;stroke-opacity:1">
</g><g
         id="g5"
         style="fill:#ffffff;fill-opacity:1;stroke:#ffffff;stroke-opacity:1">
</g><g
         id="g6"
         style="fill:#ffffff;fill-opacity:1;stroke:#ffffff;stroke-opacity:1">
</g><g
         id="g7"
         style="fill:#ffffff;fill-opacity:1;stroke:#ffffff;stroke-opacity:1">
</g><g
         id="g8"
         style="fill:#ffffff;fill-opacity:1;stroke:#ffffff;stroke-opacity:1">
</g><g
         id="g9"
         style="fill:#ffffff;fill-opacity:1;stroke:#ffffff;stroke-opacity:1">
</g><g
         id="g10"
         style="fill:#ffffff;fill-opacity:1;stroke:#ffffff;stroke-opacity:1">
</g><g
         id="g11"
         style="fill:#ffffff;fill-opacity:1;stroke:#ffffff;stroke-opacity:1">
</g><g
         id="g12"
         style="fill:#ffffff;fill-opacity:1;stroke:#ffffff;stroke-opacity:1">
</g><g
         id="g13"
         style="fill:#ffffff;fill-opacity:1;stroke:#ffffff;stroke-opacity:1">
</g><g
         id="g14"
         style="fill:#ffffff;fill-opacity:1;stroke:#ffffff;stroke-opacity:1">
</g><g
         id="g15"
         style="fill:#ffffff;fill-opacity:1;stroke:#ffffff;stroke-opacity:1">
</g><g
         id="g16"
         style="fill:#ffffff;fill-opacity:1;stroke:#ffffff;stroke-opacity:1">
</g></g></g></svg>
