<?xml version="1.0" encoding="UTF-8" standalone="no"?>
<!-- Created with Inkscape (http://www.inkscape.org/) -->

<svg
   width="130mm"
   height="130mm"
   viewBox="0 0 130 130"
   version="1.1"
   id="svg1"
   xml:space="preserve"
   sodipodi:docname="Instagram_BS.svg"
   inkscape:version="1.3.2 (091e20e, 2023-11-25, custom)"
   xmlns:inkscape="http://www.inkscape.org/namespaces/inkscape"
   xmlns:sodipodi="http://sodipodi.sourceforge.net/DTD/sodipodi-0.dtd"
   xmlns="http://www.w3.org/2000/svg"
   xmlns:svg="http://www.w3.org/2000/svg"><sodipodi:namedview
     id="namedview1"
     pagecolor="#ffffff"
     bordercolor="#000000"
     borderopacity="0.25"
     inkscape:showpageshadow="2"
     inkscape:pageopacity="0.0"
     inkscape:pagecheckerboard="0"
     inkscape:deskcolor="#d1d1d1"
     inkscape:document-units="mm"
     inkscape:zoom="0.49575348"
     inkscape:cx="284.41555"
     inkscape:cy="456.88031"
     inkscape:window-width="1920"
     inkscape:window-height="1001"
     inkscape:window-x="-9"
     inkscape:window-y="-9"
     inkscape:window-maximized="1"
     inkscape:current-layer="layer1" /><defs
     id="defs1"><linearGradient
       id="swatch3"
       inkscape:swatch="solid"><stop
         style="stop-color:#ffffff;stop-opacity:1;"
         offset="0"
         id="stop3" /></linearGradient></defs><g
     inkscape:label="Capa 1"
     inkscape:groupmode="layer"
     id="layer1"
     transform="translate(-41.379789,-64.022718)"><circle
       style="fill:#003354;fill-opacity:1;fill-rule:evenodd;stroke:#003354;stroke-width:0.284246;stroke-linejoin:round;paint-order:markers fill stroke"
       id="path1"
       cx="106.37979"
       cy="129.02272"
       r="64.85788" /><g
       id="g3"
       style="fill:#ffffff;fill-opacity:1;stroke:#003354;stroke-opacity:1"
       transform="matrix(0.08774162,0,0,0.08777814,64.309437,87.256878)"><path
         clip-rule="evenodd"
         d="m 484.16417,0.08775077 c 66.96769,0 133.94013,-0.30987209 200.90593,0.08880476 C 748.07396,0.55255884 807.24533,14.914374 858.51453,53.199636 925.46711,103.19769 959.7288,171.4933 966.10556,253.90322 c 2.24561,29.00327 1.54716,58.25879 1.58496,87.39903 0.15216,113.00791 0.068,226.01674 0.0558,339.02652 0,46.15582 -6.42589,91.22048 -25.96538,133.42638 -39.63661,85.61445 -108.77526,132.41835 -199.99579,148.63849 -19.02062,3.3812 -38.64234,4.64427 -57.99186,4.7019 -133.57721,0.39394 -267.15724,0.30325 -400.73539,0.16437 C 213.59601,967.18906 150.06666,948.85373 95.929021,903.80605 40.925603,858.04419 11.900845,798.19164 2.8720764,728.01884 1.3145121,715.91588 0.36088205,703.64003 0.34954057,691.44449 0.21911346,551.08377 -0.62866273,410.71455 0.74743775,270.368 1.4997564,193.68789 27.042677,125.7012 84.148956,72.130176 131.51762,27.697543 189.09552,4.4807544 253.07946,2.208674 330.01634,-0.52349081 407.12617,1.5615326 484.16133,1.5615326 c 9.5e-4,-0.4922054 9.5e-4,-0.98346595 0.003,-1.47378183 z M 483.40807,877.97708 c 64.43855,0 128.8752,0.25886 193.30998,-0.1776 16.85155,-0.11432 33.9479,-0.95135 50.48285,-3.94048 63.1598,-11.41331 111.17871,-43.07978 136.34358,-104.55348 12.78564,-31.22812 16.9612,-64.73682 17.50558,-97.19025 2.11425,-125.90537 0.92245,-251.86743 0.77406,-377.8087 -0.017,-13.64382 -0.16445,-27.43975 -2.09534,-40.90217 -8.66017,-60.45151 -34.87791,-109.99987 -90.53531,-140.13114 -31.06528,-16.817184 -64.78919,-23.166725 -99.8429,-23.178062 -134.993,-0.03968 -269.986,-0.07935 -404.97805,0.08219 -12.19966,0.01512 -24.50707,0.689655 -36.57819,2.385448 -68.75398,9.649494 -119.39656,43.520024 -144.741,110.155754 -10.228136,26.8899 -13.496374,55.06653 -13.502045,83.67396 -0.01985,131.69846 -0.146495,263.3941 0.172957,395.09446 0.03875,16.1124 1.240948,32.45626 4.126412,48.28903 12.799816,70.24554 51.985596,118.52702 121.772606,137.94126 23.25572,6.46668 48.11531,9.32261 72.32277,9.81009 65.13228,1.30752 130.30519,0.44497 195.46204,0.44969 z"
         fill-rule="evenodd"
         id="path1-4"
         style="fill:#ffffff;fill-opacity:1;stroke:#003354;stroke-width:0.944928;stroke-opacity:1" /><path
         clip-rule="evenodd"
         d="M 733.29695,482.1344 C 733.23646,619.85459 620.82248,731.87146 483.00828,731.53513 345.1421,731.20164 234.11461,619.96606 234.03428,482.09849 233.95393,344.38397 346.20064,232.35766 484.11691,232.50788 620.84421,232.65525 733.35838,345.37122 733.29695,482.1344 Z M 483.7606,641.6231 c 87.90314,0.0671 160.30153,-72.24838 160.14936,-159.96674 -0.15217,-87.10995 -72.36625,-159.43012 -159.55394,-159.7844 -87.7765,-0.35616 -160.1399,71.73822 -160.3261,159.72961 -0.18525,88.11703 71.51658,159.95162 159.73068,160.02153 z"
         fill-rule="evenodd"
         id="path2"
         style="fill:#ffffff;fill-opacity:1;stroke:#003354;stroke-width:0.944928;stroke-opacity:1" /><path
         clip-rule="evenodd"
         d="m 742.54971,282.76667 c -31.20705,-0.2787 -55.80673,-25.2404 -55.70655,-56.5252 0.0983,-31.64002 25.31515,-56.44774 57.15259,-56.23045 30.85263,0.2135 55.99482,25.66648 55.90125,56.59323 -0.0945,31.36509 -25.7036,56.44489 -57.34729,56.16242 z"
         fill-rule="evenodd"
         id="path3"
         style="fill:#ffffff;fill-opacity:1;stroke:#003354;stroke-width:0.944928;stroke-opacity:1" /></g></g></svg>
